<?xml version="1.0" encoding="UTF-8" standalone="no"?>
<!-- Generator: Adobe Illustrator 21.0.0, SVG Export Plug-In . SVG Version: 6.00 Build 0)  -->

<svg
   xmlns:dc="http://purl.org/dc/elements/1.1/"
   xmlns:cc="http://creativecommons.org/ns#"
   xmlns:rdf="http://www.w3.org/1999/02/22-rdf-syntax-ns#"
   xmlns:svg="http://www.w3.org/2000/svg"
   xmlns="http://www.w3.org/2000/svg"
   xmlns:sodipodi="http://sodipodi.sourceforge.net/DTD/sodipodi-0.dtd"
   xmlns:inkscape="http://www.inkscape.org/namespaces/inkscape"
   version="1.1"
   id="Ebene_1"
   x="0px"
   y="0px"
   viewBox="0 0 182.5 115.425"
   xml:space="preserve"
   inkscape:version="0.91 r13725"
   sodipodi:docname="bike.svg"
   width="182.5"
   height="115.425"><metadata
     id="metadata13"><rdf:RDF><cc:Work
         rdf:about=""><dc:format>image/svg+xml</dc:format><dc:type
           rdf:resource="http://purl.org/dc/dcmitype/StillImage" /><dc:title></dc:title></cc:Work></rdf:RDF></metadata><defs
     id="defs11" /><sodipodi:namedview
     pagecolor="#ffffff"
     bordercolor="#666666"
     borderopacity="1"
     objecttolerance="10"
     gridtolerance="10"
     guidetolerance="10"
     inkscape:pageopacity="0"
     inkscape:pageshadow="2"
     inkscape:window-width="1920"
     inkscape:window-height="1017"
     id="namedview9"
     showgrid="false"
     inkscape:zoom="1.18"
     inkscape:cx="-284.83898"
     inkscape:cy="57.099997"
     inkscape:window-x="-8"
     inkscape:window-y="-8"
     inkscape:window-maximized="1"
     inkscape:current-layer="Ebene_1"
     fit-margin-top="0"
     fit-margin-left="0"
     fit-margin-right="0"
     fit-margin-bottom="0" /><style
     type="text/css"
     id="style3">
	.st0{fill:#FFFFFF;}
	.st1{fill:#96BD0D;}
</style><path
     class="st1"
     d="m 147.1,44.625 c -2.9,0 -5.7,0.4 -8.4,1.1 -6.3,-24.1 -8.3,-40.1 -8.3,-40.3 0,-0.5 -0.3,-1 -0.7,-1.3 -0.4,-0.3 -0.9,-0.5 -1.4,-0.4 -10.1,1.3 -17.5,0.1 -20.8,-3.2 -0.7,-0.7 -1.9,-0.7 -2.6,0 -0.7,0.7 -0.7,1.9 0,2.6 4.1,4.1 11.5,5.6 22.1,4.5 0.4,3 1.4,9.5 3.3,18.4 l -67.8,0 -6.6,-13.2 c 0.2,0 0.3,0 0.5,0 8.4,0 12,-2 12,-4.1 0,-1.7 -1.6,-1.7 -4,-1.7 0,0 -19.5,0 -21,0 -3.7,0 -4.4,1.5 -4.4,4.3 0,8 6,3.8 13,2.2 l 7.3,14.5 -9.8,19.6 c -4.3,-1.9 -9.1,-3 -14.1,-3 -19.5,0 -35.4,15.9 -35.4,35.4 0,19.5 15.9,35.4 35.4,35.4 18.9,0 34.3,-14.9 35.3,-33.5 l 16.8,0 0,0 0,0 0,0 c 0.3,0 0.5,-0.1 0.8,-0.2 l 0,0 c 0.2,-0.1 0.4,-0.3 0.6,-0.5 l 42.5,-49.6 c 1,4.6 2.2,9.6 3.7,15.1 -13.6,4.9 -23.4,18 -23.4,33.2 0,19.5 15.9,35.4 35.4,35.4 19.5,0 35.4,-15.9 35.4,-35.4 0,-19.4 -15.9,-35.3 -35.4,-35.3 z m -85.7,-12.6 23.1,46.2 -13.9,0 c -0.6,-12.4 -7.7,-23.1 -17.8,-28.9 l 8.6,-17.3 z m 5.5,46.2 -28.6,0 12.8,-25.5 c 9,5.1 15.2,14.5 15.8,25.5 z m -31.6,33.5 c -17.5,0 -31.7,-14.2 -31.7,-31.7 0,-17.5 14.2,-31.7 31.7,-31.7 4.4,0 8.6,0.9 12.5,2.6 l -14.1,28.3 c -0.3,0.6 -0.3,1.3 0.1,1.8 0.3,0.5 0.9,0.9 1.6,0.9 l 31.6,0 c -1.1,16.6 -14.8,29.8 -31.7,29.8 z m 52.6,-35 -23.5,-47 63.8,0 -40.3,47 z m 59.2,35 c -17.5,0 -31.7,-14.2 -31.7,-31.7 0,-13.6 8.6,-25.1 20.6,-29.6 2.5,9.2 5.5,19.3 9.3,30.2 0.3,0.8 1,1.3 1.8,1.3 0.2,0 0.4,0 0.6,-0.1 1,-0.3 1.5,-1.4 1.2,-2.4 -3.7,-10.8 -6.8,-21 -9.2,-30.1 2.4,-0.6 4.9,-0.9 7.5,-0.9 17.5,0 31.7,14.2 31.7,31.7 -0.1,17.4 -14.3,31.6 -31.8,31.6 z"
     id="path7"
     inkscape:connector-curvature="0"
     style="fill:#96bd0d" /></svg>