<?xml version="1.0" encoding="utf-8"?>
<!-- Generator: Adobe Illustrator 19.1.0, SVG Export Plug-In . SVG Version: 6.00 Build 0)  -->
<svg version="1.1" id="Layer_1" xmlns="http://www.w3.org/2000/svg" xmlns:xlink="http://www.w3.org/1999/xlink" x="0px" y="0px"
	 viewBox="0 0 372.2 143.4" style="enable-background:new 0 0 372.2 143.4;" xml:space="preserve">
<style type="text/css">
	.st0{fill:#FFFFFF;}
</style>
<g>
	<path class="st0" d="M200.2,38.2c-0.4-5.3-1.5-10-3.1-14.1c-1.6-4.1-3.7-7.6-6.2-10.3c-2.5-2.8-5.5-4.8-8.9-6.1
		c-3.4-1.3-7-1.8-11-1.5c-3.1,0.3-5.7,0.9-8,1.8c-2.2,1-4,2.1-5.4,3.5c-1.4,1.4-2.3,2.9-2.9,4.5c-0.6,1.7-0.8,3.3-0.7,4.9
		c0.1,0.8,0.3,1.7,0.6,2.5c0.4,0.8,0.9,1.5,1.6,2c3.3-0.1,6.3,0.4,9.1,1.3c2.8,0.9,5.2,2.4,7.3,4.3c2.1,1.9,3.8,4.4,5.1,7.4
		c1.3,3,2.1,6.5,2.5,10.5c0.3,3.8,0.4,7.5,0.3,11.2c-0.1,3.7-0.4,7.2-0.9,10.6c-0.5,3.3-1.1,6.5-1.8,9.3c-0.7,2.9-1.6,5.4-2.4,7.5
		c-0.9,2.1-1.8,3.8-2.8,5c-1,1.2-2,1.9-3,2c-0.7,0.1-1.3,0-1.9-0.1c-0.5-0.1-1-0.4-1.4-0.9c-0.4-0.4-0.7-1.1-0.9-1.8
		c-0.2-0.8-0.4-1.7-0.5-2.9c-0.1-1.7-0.2-3.4-0.1-5.4c0.1-1.9,0.3-3.9,0.7-5.8c0.4-2,0.9-4,1.5-6c0.6-2,1.4-3.9,2.4-5.8
		c0.9-1.9,2-3.6,3.3-5.2c1.3-1.6,2.7-3.1,4.3-4.3c0.1-0.3,0.1-0.6,0.1-0.9c0-0.3,0-0.5-0.1-0.8c-0.2-1.8-0.8-3.3-2-4.3
		c-1.1-1-2.8-1.4-5-1.2c-1.9,0.2-3.8,0.8-5.8,2.1c-2,1.2-4,2.9-5.9,4.9c-1.9,2-3.7,4.4-5.4,7.1c-1.7,2.7-3.1,5.6-4.4,8.8
		c-1.2,3.1-2.1,6.4-2.7,9.8c-0.4,2.4-0.6,4.7-0.6,7.1c-1.1,1.3-2.1,2.5-3,3.5c-1.5,1.6-2.9,2.8-4,3.6c-1.2,0.8-2.1,1.2-2.8,1.3
		c-0.3,0-0.5,0-0.7,0c-0.2-0.1-0.4-0.2-0.6-0.4c-0.2-0.2-0.3-0.5-0.4-0.9c-0.1-0.4-0.2-1-0.2-1.7c-0.1-0.9-0.1-2.2,0-3.8
		c0.1-1.6,0.3-3.7,0.7-6.1c0.3-2.5,0.8-5.4,1.4-8.8c0.6-3.4,1.3-7.4,2.2-11.9c0.4-2,0.7-3.8,0.7-5.5c0.1-1.7,0.1-2.9,0-3.8
		c-0.1-1.2-0.5-2.5-1.3-3.8c-0.7-1.3-1.8-2.4-3.1-3.4c-1.3-1-2.9-1.8-4.8-2.4c-1.9-0.6-4-0.8-6.4-0.6c-1,0.1-1.9,0.3-2.7,0.7
		c-0.8,0.4-1.5,0.9-2,1.5l0.2,8.2c-0.4-0.3-0.8-0.6-1.4-0.7c-0.6-0.1-1.3-0.1-2.3,0c-2.3,0.2-4.7,1-7,2.3c-2.4,1.4-4.6,3.1-6.8,5.3
		c-2.2,2.2-4.1,4.8-6,7.7c-1.8,2.9-3.4,6-4.7,9.3c-1.3,3.3-2.2,6.7-2.8,10.3c-0.6,3.6-0.8,7.1-0.5,10.6c0.3,3.2,0.8,5.9,1.7,8.3
		c0.2,0.4,0.3,0.8,0.5,1.2c0,0-0.1,0-0.1,0c-0.5,0-1,0-1.5-0.1c-0.5-0.1-0.9-0.3-1.3-0.6c-0.4-0.3-0.9-0.7-1.3-1.2
		c-0.4-0.5-0.9-1.2-1.4-2c-1.4-2.4-2.9-4.5-4.3-6.5c-1.4-2-2.8-3.8-4.2-5.4c-1.3-1.6-2.6-3-3.7-4.1c-1.1-1.2-2.1-2.1-2.9-2.7
		c3.7-4,6.8-7.8,9.5-11.5c2.7-3.7,4.9-7.2,6.7-10.7c1.7-3.5,3-6.9,3.7-10.3c0.7-3.4,1-6.8,0.7-10.3c-0.3-4.1-1.4-7.8-3.2-11.2
		c-1.8-3.3-4.3-6.1-7.5-8.4c-3.2-2.2-7.1-3.9-11.8-4.9c-4.6-1-9.9-1.3-15.9-0.8c-5,0.4-9.7,1.4-14.2,2.8c-4.5,1.5-8.6,3.3-12.5,5.4
		c-3.8,2.2-7.3,4.6-10.3,7.2c-3.1,2.7-5.6,5.4-7.7,8.2c-2.1,2.8-3.7,5.6-4.7,8.4C0.3,53.1-0.2,55.7,0,58c0.1,1.3,0.3,2.4,0.7,3.4
		c0.4,1,0.8,1.8,1.4,2.5c0.6,0.7,1.2,1.2,2,1.5c0.8,0.3,1.6,0.4,2.6,0.4c0.6,0,1.1-0.2,1.7-0.3c0.6-0.2,1.1-0.4,1.4-0.6
		c0.7-1.6,1.5-3.3,2.5-5c1-1.7,2.1-3.3,3.3-4.9c1.2-1.6,2.6-3.1,4-4.5c1.4-1.4,3-2.8,4.6-3.9c1.6-1.2,3.4-2.2,5.2-3
		c1.8-0.8,3.6-1.5,5.6-1.9c-1.8,8.4-3.6,16.3-5.4,23.4c-1.8,7.2-3.4,13.9-4.9,20c-0.8,3-1.4,5.7-1.9,8.1c-0.5,2.4-1,4.4-1.4,6.3
		c-0.4,1.8-0.7,3.4-0.9,4.8c-0.2,1.4-0.4,2.6-0.5,3.6c-0.1,1-0.1,1.9-0.2,2.7c0,0.8,0,1.5,0.1,2.1c0.1,0.9,0.3,1.9,0.7,2.9
		c0.4,1,0.9,2,1.5,2.9c0.6,1,1.4,1.9,2.2,2.8c0.9,0.9,1.8,1.6,2.8,2.3c1,0.6,2.2,1.1,3.4,1.4c1.2,0.3,2.5,0.4,3.8,0.3
		c1.8-0.1,3.2-0.5,4.3-1c1.1-0.6,1.9-1.2,2.4-2.1c0-1.2,0-2.8,0.1-4.8c0.1-2,0.3-4.2,0.5-6.7c0.2-2.4,0.5-5,0.8-7.7
		c0.3-2.7,0.7-5.4,1.1-8c1.1,0.3,2.1,0.7,3.1,1.2c1,0.6,2,1.3,3,2.2c1,0.9,2,2.1,3,3.4c1,1.4,2.2,3,3.4,4.8c1.2,1.9,2.5,4,3.9,6.4
		c1.4,2.4,3,5.2,4.7,8.2c1,1.8,2,3.3,2.9,4.5c0.9,1.2,1.8,2.1,2.7,2.8c0.9,0.7,1.9,1.1,2.9,1.3c1,0.2,2.2,0.3,3.5,0.2
		c1.9-0.2,3.7-0.5,5.5-1.1c1.8-0.6,3.4-1.3,4.9-2.2c1.5-0.9,2.9-1.9,4.1-3c1.2-1.1,2.3-2.3,3.1-3.6c0.8-1.2,1.4-2.5,1.8-3.7
		c0.1,0.1,0.3,0.1,0.4,0.2c1.8,0.7,3.6,0.9,5.6,0.8c1.2-0.1,2.5-0.5,3.8-1.1c1.3-0.6,2.6-1.6,3.9-2.9c1.3-1.3,2.5-3.1,3.7-5.3
		c1.2-2.2,2.2-4.9,3-8.2c0,1.1-0.1,2-0.1,3c0,0.9,0,1.8,0.1,2.5c0.2,2.2,0.6,4.1,1.2,5.5c0.6,1.4,1.4,2.5,2.3,3.3
		c0.9,0.8,2,1.3,3.3,1.6c1.3,0.2,2.7,0.3,4.2,0.2c1.3-0.1,2.7-0.6,4.2-1.3c1.6-0.8,3.2-1.8,4.9-3.1c1.7-1.3,3.4-2.7,5.2-4.4
		c1.8-1.7,3.4-3.4,5.1-5.2c0.1-0.1,0.2-0.2,0.2-0.3c0,0.1,0.1,0.3,0.1,0.4c1.1,2.8,2.5,5,4.3,6.8c1.8,1.7,3.8,3,6.2,3.7
		c2.3,0.7,4.9,1,7.7,0.7c3-0.2,5.9-1.3,8.9-3c3-1.8,5.9-4.2,8.6-7.4c2.7-3.1,5.3-6.9,7.6-11.3c2.3-4.4,4.3-9.3,5.8-14.8
		c1.6-5.5,2.7-11.4,3.3-17.9C200.8,52.3,200.8,45.5,200.2,38.2z M67.2,58.9c-0.2,2-0.7,4.1-1.4,6.3c-0.7,2.2-1.7,4.6-3,7.1
		c-1.3,2.5-2.9,5.4-4.9,8.6c-1-0.2-2.1-0.3-3.4-0.4c-1.3-0.1-2.6-0.1-3.9,0.1c-1.7,0.1-3.2,0.4-4.6,0.8c1.4-9.2,2.5-17.3,3.1-24.3
		c0.6-7,0.8-12.8,0.6-17.2c3,0,5.6,0.3,7.8,0.9c2.1,0.6,3.9,1.5,5.3,2.7c1.4,1.2,2.4,2.5,3.2,4.1c0.7,1.6,1.2,3.3,1.3,5.2
		C67.4,54.8,67.4,56.9,67.2,58.9z M116.4,92.9c-0.8,1.1-1.6,2.1-2.5,2.8c-0.9,0.7-1.8,1.1-2.8,1.2c-0.5,0-0.9,0-1.4-0.1
		c-0.5-0.1-0.9-0.3-1.2-0.7c-0.4-0.4-0.7-0.9-0.9-1.7c-0.3-0.7-0.4-1.7-0.5-3c-0.2-2.7-0.1-5.4,0.5-8.2c0.5-2.8,1.4-5.4,2.4-7.9
		c1.1-2.5,2.3-4.8,3.8-6.9c1.5-2.1,3-3.7,4.7-5L116.4,92.9z"/>
	<g>
		<path class="st0" d="M341.3,62.4c-0.1-0.7-0.3-1.3-0.6-1.9c-0.4-0.5-0.8-1-1.4-1.3c-0.5-0.4-1.2-0.6-1.8-0.8
			c-0.7-0.2-1.3-0.2-2-0.2c-2.1,3.5-4.1,6.5-6.1,9c-2,2.5-3.9,4.6-5.7,6.2c-1.8,1.6-3.3,2.8-4.7,3.6c-1.4,0.8-2.5,1.2-3.3,1.3
			c-1.1,0.1-2.1,0-2.9-0.2c-0.8-0.2-1.6-0.5-2.4-0.9c2.1-2.9,3.9-5.7,5.6-8.6c1.7-2.9,3.1-5.7,4.2-8.4c1.1-2.7,2-5.3,2.5-7.8
			c0.5-2.5,0.7-4.9,0.5-7c-0.2-1.8-0.6-3.5-1.2-5c-0.6-1.5-1.5-2.8-2.5-3.8c-1-1-2.3-1.8-3.7-2.3c-1.4-0.5-3-0.7-4.7-0.5
			c-1.5,0.1-3.1,0.7-4.8,1.7c-1.8,1-3.6,2.4-5.5,4.2c-1.9,1.8-3.9,4.1-5.9,6.8c-2,2.7-4,5.8-6,9.3c0.5-3,1.1-5.7,1.8-8.1
			c0.7-2.4,1.6-4.6,2.5-6.6c0.9-2,1.9-3.7,3-5.3c1.1-1.6,2.2-3,3.4-4.2c0-0.3,0.1-0.6,0-0.8c0-0.3,0-0.5,0-0.7
			c-0.1-1-0.4-1.9-0.9-2.7c-0.5-0.8-1.2-1.4-2.1-2c-0.9-0.5-1.9-0.9-3.1-1.1c-1.2-0.2-2.5-0.3-3.9-0.2c-1.7,0.1-3.3,0.6-5.1,1.4
			c-1.7,0.8-3.4,1.9-4.9,3.3c-1.6,1.4-3.1,3.2-4.4,5.3c-1.4,2.1-2.5,4.5-3.5,7.2c-1,2.7-1.7,5.8-2.2,9.1c-0.5,3.4-0.6,7-0.4,11
			l-0.1,5.1c-1.3,2.1-2.6,4-3.8,5.7c-1.8,2.4-3.4,4.5-4.8,6.1c-1.5,1.6-2.8,2.8-4,3.6c-1.2,0.8-2.2,1.3-2.9,1.3
			c-0.6,0-1-0.1-1.4-0.3c-0.4-0.3-0.6-0.8-0.7-1.7c0-0.4,0.1-1.1,0.3-2.2c0.2-1,0.5-2.2,0.9-3.5c0.4-1.3,0.8-2.8,1.3-4.4
			c0.5-1.6,1-3.2,1.5-4.9c0.5-1.7,1-3.3,1.5-4.9c0.5-1.6,0.9-3.1,1.3-4.5c0.4-1.5,0.7-2.7,1-3.8c0.3-1.1,0.4-2.1,0.6-2.9
			c0.1-0.9,0.2-1.7,0.2-2.4c0-0.7,0-1.4,0-2c-0.1-1.4-0.6-2.8-1.4-4.1c-0.8-1.3-1.8-2.4-3.1-3.4c-1.3-1-2.8-1.7-4.5-2.2
			c-1.7-0.5-3.5-0.7-5.5-0.5c-1,0.1-2.1,0.4-3.1,0.9c-1,0.5-1.9,1.3-2.5,2.2c0.1,3,0.1,5.9,0,8.8c-0.1,2.8-0.4,5.7-0.7,8.7
			c-0.3,3-0.8,6.1-1.4,9.3c-0.6,3.3-1.3,6.8-2.2,10.7c-0.6,0.8-1.4,1.6-2.2,2.4c-0.8,0.8-1.6,1.6-2.5,2.2c-0.8,0.7-1.6,1.2-2.4,1.7
			c-0.8,0.5-1.5,0.7-2.1,0.8c-1,0.1-1.7-0.2-2.2-0.8c-0.5-0.6-0.8-1.5-0.9-2.6c-0.1-1.1,0-2.7,0.2-4.7c0.2-2,0.6-4.3,1.1-6.9
			c3.1-6.1,5.4-11.3,6.8-15.6c1.4-4.2,2.1-7.5,1.9-9.7c-0.1-1-0.3-1.9-0.7-2.6c-0.4-0.7-0.8-1.2-1.4-1.6c-0.6-0.4-1.3-0.6-2.2-0.8
			c-0.8-0.1-1.8-0.1-2.9-0.1c-1.6,0.1-3.3,0.7-5,1.6c-1.7,0.9-3.4,2.1-5,3.6c-1.6,1.5-3.1,3.1-4.5,4.9c-1.4,1.8-2.6,3.7-3.7,5.6
			c-1,1.9-1.8,3.8-2.4,5.6c-0.5,1.8-0.8,3.4-0.6,4.9c0.1,1.4,0.3,2.8,0.7,4.3c0.3,1.4,1,2.8,1.8,4.3c-0.7,2.3-1.3,4.6-1.9,6.7
			c-0.5,2.1-0.9,4.2-1.3,6c-0.3,1.9-0.5,3.6-0.7,5.1c-0.1,1.5-0.1,2.8,0,3.8c0.2,2.1,0.5,3.9,0.9,5.6c0.4,1.6,1.1,2.9,1.9,4
			c0.9,1.1,2,1.8,3.3,2.3c1.4,0.5,3.1,0.6,5.1,0.4c1.6-0.1,3.2-0.6,5-1.5c1.8-0.9,3.5-2.2,5.3-3.9c1.7-1.7,3.5-3.8,5.1-6.3
			c1.7-2.5,3.2-5.4,4.6-8.7c-0.1,1.5-0.2,2.9-0.3,4.1c0,1.2,0,2.3,0,3.3c0.2,1.8,0.5,3.3,1,4.4c0.5,1.1,1.2,2,2.1,2.6
			c0.9,0.6,1.9,1,3,1.2c1.2,0.2,2.5,0.2,3.9,0.1c1.5-0.1,3-0.5,4.6-1.2c1.6-0.7,3.2-1.5,4.8-2.6c1.6-1.1,3.2-2.3,4.9-3.7
			c1.6-1.4,3.2-2.9,4.7-4.5c1.8-1.9,3.6-3.9,5.2-5.9l-0.1,9.3c-2.2,4.9-1.9,12.9-2.7,16.5s-1.1,8-1,10c0.1,1.2,0.4,2.3,0.9,3.3
			c0.5,1,1.2,2,2,2.8c0.8,0.9,1.7,1.6,2.8,2.3c1.1,0.7,2.2,1.2,3.3,1.7c1.1,0.4,2.3,0.8,3.5,1c1.2,0.2,2.3,0.3,3.4,0.2
			c1.4-0.1,2.6-0.9,3.7-2.4c1-1.5,1.9-3.6,2.6-6.4c0.7-2.7,1.1-7.7,1.5-11.6c0.4-3.9,1.4-18.3,1.3-24.1c-0.1-5.8-0.3-11.9-0.6-18.4
			c1.2-1.5,2.3-2.8,3.2-3.9c0.9-1.1,1.8-1.9,2.5-2.6c0.7-0.7,1.4-1.2,1.9-1.5c0.6-0.3,1.1-0.5,1.5-0.5c0.9-0.1,1.6,0.1,2.2,0.7
			c0.5,0.5,0.8,1.5,1,3c0.1,1.5-0.1,3.4-0.7,5.6c-0.6,2.2-1.5,4.6-2.5,7.2c-0.9,0.4-1.7,0.8-2.3,1.3c-0.6,0.5-1.1,1.1-1.4,1.7
			c-0.3,0.6-0.6,1.3-0.7,2.1c-0.1,0.8-0.1,1.6-0.1,2.4c0.1,1,0.3,2,0.5,3.1c0.3,1,0.6,2,1.1,3c0.5,1,1.1,1.9,1.8,2.7
			c0.7,0.8,1.6,1.6,2.6,2.2c1,0.6,2.1,1,3.4,1.3c1.3,0.3,2.7,0.4,4.3,0.2c1.6-0.1,3.3-0.6,5.2-1.4c1.8-0.8,3.7-1.8,5.6-3.1
			c1.9-1.3,3.8-2.7,5.7-4.3c1.9-1.6,3.7-3.3,5.4-5.1c1.7-1.8,3.3-3.6,4.7-5.5c1.5-1.9,2.7-3.7,3.7-5.4c1-1.7,1.8-3.4,2.4-4.9
			C341.2,64.8,341.4,63.5,341.3,62.4z"/>
		<path class="st0" d="M372.2,5.7c-0.1-1-0.3-1.9-0.6-2.7c-0.3-0.8-0.8-1.4-1.4-1.8s-1.4-0.8-2.3-1c-0.9-0.2-2.1-0.2-3.4-0.1
			c-1.6,0.1-3.1,0.5-4.6,1c-1.5,0.5-2.9,1.2-4.2,2.1C354.4,4,353.2,5,352.1,6c-1.1,1.1-2,2.2-2.8,3.4c-0.8,1.2-1.3,2.4-1.7,3.6
			c-0.4,1.2-0.5,2.4-0.4,3.5c0.1,1.3,0.4,2.7,0.7,4.1c0.4,1.4,0.9,2.7,1.5,4c-0.4,2-1,6.1-1.2,8.1s-0.4,2.4-0.5,4.3
			c-0.1,1.9-0.2,2.6-0.2,4.3c0,1.7,0,3.2,0,4.6c0,1.4,0.1,2.5,0.2,3.5c0.1,1.5,0.4,3,0.9,4.4c0.5,1.4,1.2,2.7,2,3.8
			c0.8,1.1,1.8,1.9,2.9,2.5s2.3,0.9,3.7,0.8c0.6-0.1,1.3-0.2,1.9-0.4c0.6-0.2,1.1-0.4,1.4-0.7c0.5-4.1,1-7.9,1.5-11.6
			c0.5-3.6,1-7.2,1.6-10.5c0.6-3.4,1.3-4,1.9-7.2c0.7-3.2,0.7-3.2,1.8-5.3c1.1-2.2,1.8-4.4,2.5-6.4c0.7-2,1.2-3.8,1.6-5.5
			c0.4-1.7,0.7-3.1,0.9-4.4C372.2,7.6,372.3,6.6,372.2,5.7z"/>
		<path class="st0" d="M361.3,68.5c-0.5-0.5-1.2-0.8-2.1-1c-0.9-0.2-1.9-0.2-3.2-0.1c-1.3,0.1-2.6,0.4-3.9,0.9
			c-1.4,0.5-2.7,1.1-4,1.8c-1.3,0.7-2.5,1.6-3.6,2.6c-1.1,1-2.1,2-2.9,3.1c-0.8,1.1-1.5,2.2-1.9,3.4c-0.4,1.2-0.6,2.3-0.5,3.4
			c0.1,1.4,0.5,2.7,1.3,4c0.7,1.3,1.7,2.4,2.8,3.4c1.1,1,2.4,1.7,3.8,2.2c1.4,0.5,2.9,0.7,4.4,0.6c1.3-0.1,2.4-0.5,3.5-1.1
			c1.1-0.7,2.1-1.5,3-2.5c0.9-1,1.7-2.2,2.4-3.5c0.7-1.3,1.3-2.7,1.7-4.1c0.5-1.4,0.8-2.9,1-4.4c0.2-1.5,0.2-2.9,0.1-4.3
			c-0.1-1-0.3-1.8-0.5-2.5C362.3,69.5,361.9,68.9,361.3,68.5z"/>
	</g>
</g>
</svg>
