<?xml version="1.0" encoding="UTF-8" standalone="no"?>
<!-- Generator: Adobe Illustrator 21.0.0, SVG Export Plug-In . SVG Version: 6.00 Build 0)  -->

<svg
   xmlns:dc="http://purl.org/dc/elements/1.1/"
   xmlns:cc="http://creativecommons.org/ns#"
   xmlns:rdf="http://www.w3.org/1999/02/22-rdf-syntax-ns#"
   xmlns:svg="http://www.w3.org/2000/svg"
   xmlns="http://www.w3.org/2000/svg"
   xmlns:sodipodi="http://sodipodi.sourceforge.net/DTD/sodipodi-0.dtd"
   xmlns:inkscape="http://www.inkscape.org/namespaces/inkscape"
   version="1.1"
   id="Ebene_1"
   x="0px"
   y="0px"
   viewBox="0 0 200 200"
   style="enable-background:new 0 0 200 200;"
   xml:space="preserve"
   inkscape:version="0.91 r13725"
   sodipodi:docname="profile_male.svg"><metadata
     id="metadata13"><rdf:RDF><cc:Work
         rdf:about=""><dc:format>image/svg+xml</dc:format><dc:type
           rdf:resource="http://purl.org/dc/dcmitype/StillImage" /></cc:Work></rdf:RDF></metadata><defs
     id="defs11" /><sodipodi:namedview
     pagecolor="#ffffff"
     bordercolor="#666666"
     borderopacity="1"
     objecttolerance="10"
     gridtolerance="10"
     guidetolerance="10"
     inkscape:pageopacity="0"
     inkscape:pageshadow="2"
     inkscape:window-width="828"
     inkscape:window-height="480"
     id="namedview9"
     showgrid="false"
     inkscape:zoom="1.18"
     inkscape:cx="100"
     inkscape:cy="100"
     inkscape:window-x="0"
     inkscape:window-y="0"
     inkscape:window-maximized="0"
     inkscape:current-layer="Ebene_1" /><style
     type="text/css"
     id="style3">
	.st0{fill:#9E9E9E;}
</style><g
     id="g5"
     transform="translate(0,16)"><path
       class="st0"
       d="m 185,177.2 c 0,2.1 0,4.3 0,6.4 -0.4,0.1 -0.9,0.2 -1.3,0.2 -55.7,0 -111.4,0 -167.1,0 -0.4,0 -0.8,0 -1.3,0 -0.2,-1.6 -0.5,-3.2 -0.5,-4.8 -0.2,-5 0.9,-9.9 2.7,-14.5 2.2,-5.8 5.7,-10.5 11.6,-12.9 3.2,-1.3 6.5,-2.3 9.7,-3.4 9.3,-3.3 18.1,-7.8 26.9,-12.2 3.6,-1.8 6,-4.7 7.4,-8.4 1.9,-4.8 2.4,-9.8 2.6,-14.9 0,-0.4 -0.2,-0.8 -0.5,-1.1 -1.2,-2.1 -2.7,-4.1 -3.7,-6.3 -1.2,-2.5 -2.1,-5.1 -3.1,-7.7 -1.8,0.3 -2.3,0 -2.9,-1.9 -0.2,-0.6 -0.3,-1.2 -0.5,-1.7 -0.8,-3.3 -1.6,-6.5 -2.5,-9.8 -0.7,-2.6 -1.5,-5.3 -1.3,-8 0.1,-1 0.3,-1.9 1.4,-2.1 -0.4,-2.5 -0.7,-5 -1.1,-7.5 -0.2,0.7 -0.4,1.4 -0.6,2 -0.1,0.3 -0.4,0.6 -0.6,0.9 -0.2,-0.3 -0.4,-0.5 -0.6,-0.8 -1,-3 -1.3,-6.1 -1.2,-9.2 0.1,-3.1 0.5,-6.2 1.7,-9.2 -0.9,1.4 -1.9,2.8 -2.8,4.2 -0.1,0 -0.2,-0.1 -0.3,-0.1 -0.1,-0.3 -0.2,-0.7 -0.1,-1 0.1,-1 0.2,-2 0.5,-3 0.7,-3.3 2.7,-6.1 3.8,-9.3 1,-2.9 3.3,-5.1 6,-6.6 0.2,-0.1 0.3,-0.3 0.7,-0.5 -0.4,0 -0.5,0.1 -0.7,0.1 -0.3,-0.1 -0.6,-0.2 -0.9,-0.2 0.1,-0.3 0.2,-0.7 0.4,-0.9 0.4,-0.5 0.9,-0.9 1.5,-1.4 -0.4,0.1 -0.7,0.2 -0.9,0.2 -0.3,0 -0.6,-0.1 -0.9,-0.1 0.1,-0.3 0.2,-0.6 0.4,-0.8 0.7,-0.7 1.4,-1.3 2.2,-1.9 1.2,-0.9 2.6,-1.6 3.9,-2.4 -0.2,-0.1 -0.4,-0.2 -0.6,-0.2 -0.2,-0.1 -0.4,-0.2 -0.9,-0.4 2.5,-1.6 5.2,-2.2 8,-2.8 -0.5,-0.3 -0.8,-0.5 -1.2,-0.9 2.3,-1.4 4.8,-1.1 7,-1.9 0.2,-0.4 0.4,-0.8 0.7,-0.9 2.1,-1.2 4.4,-1.6 6.8,-1.5 2.2,0.1 4.4,0.5 6.5,0.8 0,0 0,-0.1 -0.1,-0.2 -0.5,-0.9 -0.4,-1.2 0.7,-1.2 0.8,0 1.6,0 2.3,0.3 1.4,0.6 2.8,1.5 4,2.2 -0.1,-0.1 -0.2,-0.5 -0.3,-0.8 -0.3,-0.6 -0.1,-0.9 0.6,-0.7 3.2,1 6.1,2.4 8.4,5 0.2,0.2 0.4,0.4 0.7,0.5 0.5,0.2 1.1,0.3 1.5,0.7 1.1,1 2,2.2 3,3.2 0.3,-0.6 0.5,-1.1 0.8,-1.8 1.9,2.2 3.8,4.1 4.4,6.9 0.5,-0.6 0.8,-1.1 1.2,-1.6 0.7,-0.7 1,-0.7 1.4,0.2 0.5,1.1 1.1,2.1 1.5,3.3 0.5,1.4 0.9,2.8 1.4,4.2 0.1,0.2 0.1,0.4 0.2,0.5 0.8,-0.3 1.5,-0.6 2.3,-0.8 -0.3,1.4 -0.5,2.5 -0.7,3.7 1.5,0.2 2.7,0.3 3.6,1.2 -0.8,0.6 -1.6,1.2 -2.5,1.9 2.3,1.3 3.3,3.2 4,5.2 -0.3,0 -0.6,0 -0.8,-0.1 -0.2,-0.1 -0.4,-0.2 -0.7,-0.4 1.5,2.9 3.6,5.4 3,9.1 -0.7,-0.6 -1.2,-1 -1.8,-1.5 1,2.7 0.9,5.2 0.7,7.9 -0.5,-0.2 -0.7,-0.3 -1,-0.4 0,1.5 0,2.8 0,4.2 -0.1,0.1 -0.2,0.1 -0.4,0.2 -0.2,-0.4 -0.5,-0.8 -0.7,-1.1 -0.7,2.4 -1.4,4.6 -2.1,7 0.3,-0.2 0.5,-0.3 0.7,-0.4 1.6,-0.9 2.5,-0.5 2.7,1.3 0,0.4 0.1,0.7 0,1.1 -0.4,2.2 -0.7,4.5 -1.3,6.7 -0.5,2.3 -1.3,4.5 -1.9,6.7 -0.5,1.8 -0.7,3.6 -1.2,5.4 -0.4,1.6 -1,1.9 -2.6,1.9 0,0.2 -0.1,0.3 -0.1,0.5 -1.4,5.1 -3.2,10.1 -6.1,14.6 -0.2,0.3 -0.2,0.7 -0.2,1 0.2,4 0.7,8 2,11.8 1.3,4.1 3.3,7.8 7.3,9.8 8,3.9 16,7.8 24.1,11.4 3.8,1.7 7.9,2.7 11.8,4.1 5,1.8 9,5 11.5,9.9 1.6,3.2 2.7,6.6 3.4,10.1 0.3,1.4 0.6,3.5 1,5.7 z"
       id="path7"
       inkscape:connector-curvature="0"
       style="fill:#9e9e9e" /></g></svg>