<?xml version="1.0" encoding="UTF-8" standalone="no"?>
<!-- Generator: Adobe Illustrator 21.0.0, SVG Export Plug-In . SVG Version: 6.00 Build 0)  -->

<svg
   xmlns:dc="http://purl.org/dc/elements/1.1/"
   xmlns:cc="http://creativecommons.org/ns#"
   xmlns:rdf="http://www.w3.org/1999/02/22-rdf-syntax-ns#"
   xmlns:svg="http://www.w3.org/2000/svg"
   xmlns="http://www.w3.org/2000/svg"
   xmlns:sodipodi="http://sodipodi.sourceforge.net/DTD/sodipodi-0.dtd"
   xmlns:inkscape="http://www.inkscape.org/namespaces/inkscape"
   version="1.1"
   id="Ebene_1"
   x="0px"
   y="0px"
   viewBox="0 0 193.11916 68.099998"
   xml:space="preserve"
   inkscape:version="0.91 r13725"
   sodipodi:docname="radup_logo_standalone.svg"
   width="193.11916"
   height="68.099998"><metadata
     id="metadata21"><rdf:RDF><cc:Work
         rdf:about=""><dc:format>image/svg+xml</dc:format><dc:type
           rdf:resource="http://purl.org/dc/dcmitype/StillImage" /><dc:title></dc:title></cc:Work></rdf:RDF></metadata><defs
     id="defs19" /><sodipodi:namedview
     pagecolor="#ffffff"
     bordercolor="#666666"
     borderopacity="1"
     objecttolerance="10"
     gridtolerance="10"
     guidetolerance="10"
     inkscape:pageopacity="0"
     inkscape:pageshadow="2"
     inkscape:window-width="828"
     inkscape:window-height="480"
     id="namedview17"
     showgrid="false"
     fit-margin-top="0"
     fit-margin-left="0"
     fit-margin-right="0"
     fit-margin-bottom="0"
     inkscape:zoom="1.18"
     inkscape:cx="96.81916"
     inkscape:cy="24.9"
     inkscape:window-x="0"
     inkscape:window-y="0"
     inkscape:window-maximized="0"
     inkscape:current-layer="Ebene_1" /><style
     type="text/css"
     id="style3">
	.st0{fill:#96BD0D;}
	.st1{fill:#0A71B3;}
</style><g
     id="g5"
     transform="translate(-3.1808398,-56.8)"><path
       class="st0"
       d="m 107.2,76.7 c -0.2,-2.7 -0.8,-5.2 -1.6,-7.3 -0.8,-2.1 -1.9,-3.9 -3.2,-5.4 -1.3,-1.4 -2.8,-2.5 -4.6,-3.2 -1.7,-0.7 -3.6,-0.9 -5.7,-0.8 -1.6,0.1 -3,0.4 -4.1,0.9 -1.1,0.5 -2.1,1.1 -2.8,1.8 -0.7,0.7 -1.2,1.5 -1.5,2.3 -0.3,0.9 -0.4,1.7 -0.3,2.6 0,0.4 0.1,0.9 0.3,1.3 0.2,0.4 0.5,0.8 0.8,1 1.7,0 3.3,0.2 4.7,0.7 1.4,0.5 2.7,1.2 3.8,2.2 1.1,1 2,2.3 2.6,3.8 0.7,1.5 1.1,3.4 1.3,5.5 0.2,2 0.2,3.9 0.1,5.8 -0.1,1.9 -0.2,3.7 -0.5,5.5 -0.2,1.7 -0.6,3.3 -0.9,4.8 -0.4,1.5 -0.8,2.8 -1.3,3.9 -0.5,1.1 -1,2 -1.5,2.6 -0.5,0.6 -1,1 -1.5,1 -0.4,0 -0.7,0 -1,-0.1 -0.3,-0.1 -0.5,-0.2 -0.7,-0.5 -0.2,-0.2 -0.4,-0.5 -0.5,-0.9 -0.1,-0.4 -0.2,-0.9 -0.3,-1.5 -0.1,-0.9 -0.1,-1.8 0,-2.8 0,-1 0.2,-2 0.4,-3 0.2,-1 0.4,-2.1 0.8,-3.1 0.3,-1 0.7,-2 1.2,-3 0.5,-1 1.1,-1.9 1.7,-2.7 0.7,-0.8 1.4,-1.6 2.2,-2.2 0,-0.2 0,-0.3 0,-0.4 0,-0.1 0,-0.3 0,-0.4 -0.1,-1 -0.4,-1.7 -1,-2.2 -0.6,-0.5 -1.5,-0.7 -2.6,-0.6 -1,0.1 -2,0.4 -3,1.1 -1,0.6 -2.1,1.5 -3.1,2.5 -1,1.1 -1.9,2.3 -2.8,3.7 -0.9,1.4 -1.6,2.9 -2.3,4.5 -0.6,1.6 -1.1,3.3 -1.4,5.1 -0.2,1.2 -0.3,2.5 -0.3,3.7 -0.5,0.7 -1.1,1.3 -1.6,1.8 -0.8,0.8 -1.5,1.4 -2.1,1.8 -0.6,0.4 -1.1,0.6 -1.5,0.7 -0.1,0 -0.3,0 -0.4,0 -0.1,0 -0.2,-0.1 -0.3,-0.2 -0.1,-0.1 -0.2,-0.3 -0.2,-0.5 -0.1,-0.2 -0.1,-0.5 -0.1,-0.9 0,-0.5 0,-1.1 0,-2 0.1,-0.8 0.2,-1.9 0.3,-3.2 0.2,-1.3 0.4,-2.8 0.7,-4.6 0.3,-1.8 0.7,-3.8 1.1,-6.1 0.2,-1 0.3,-2 0.4,-2.8 0,-0.9 0.1,-1.5 0,-2 -0.1,-0.6 -0.3,-1.3 -0.7,-1.9 -0.4,-0.6 -0.9,-1.3 -1.6,-1.8 -0.7,-0.5 -1.5,-0.9 -2.5,-1.2 -1,-0.3 -2.1,-0.4 -3.3,-0.3 -0.5,0 -1,0.2 -1.4,0.3 -0.4,0.2 -0.8,0.5 -1,0.8 l 0.1,4.2 c -0.2,-0.2 -0.4,-0.3 -0.7,-0.3 -0.3,-0.1 -0.7,-0.1 -1.2,0 -1.2,0.1 -2.4,0.5 -3.6,1.2 -1.2,0.7 -2.4,1.6 -3.5,2.8 -1.1,1.1 -2.1,2.5 -3.1,4 -0.9,1.5 -1.8,3.1 -2.4,4.8 -0.7,1.7 -1.2,3.5 -1.5,5.3 -0.3,1.8 -0.4,3.7 -0.2,5.5 0.1,1.6 0.4,3.1 0.9,4.3 0.1,0.2 0.2,0.4 0.3,0.6 0,0 0,0 -0.1,0 -0.3,0 -0.5,0 -0.8,0 -0.2,0 -0.5,-0.1 -0.7,-0.3 -0.2,-0.1 -0.5,-0.4 -0.7,-0.6 -0.2,-0.3 -0.5,-0.6 -0.7,-1 -0.7,-1.2 -1.5,-2.3 -2.2,-3.4 -0.8,-1 -1.5,-2 -2.2,-2.8 -0.7,-0.8 -1.3,-1.5 -1.9,-2.1 -0.6,-0.6 -1.1,-1.1 -1.5,-1.4 1.9,-2.1 3.5,-4 4.9,-5.9 1.4,-1.9 2.6,-3.7 3.5,-5.6 0.9,-1.8 1.6,-3.6 1.9,-5.3 0.4,-1.8 0.5,-3.5 0.4,-5.3 -0.2,-2.1 -0.7,-4.1 -1.7,-5.8 -0.9,-1.7 -2.2,-3.2 -3.9,-4.3 -1.7,-1.2 -3.7,-2 -6.1,-2.5 -2.4,-0.5 -5.1,-0.7 -8.3,-0.4 -2.6,0.2 -5,0.7 -7.3,1.5 -2.3,0.8 -4.5,1.7 -6.5,2.8 -2,1.1 -3.8,2.4 -5.3,3.7 -1.6,1.4 -2.9,2.8 -4,4.3 -1.1,1.5 -1.9,2.9 -2.4,4.3 -0.5,1.4 -0.8,2.8 -0.7,4 0.1,0.6 0.2,1.2 0.4,1.7 0.2,0.5 0.4,1 0.7,1.3 0.3,0.3 0.6,0.6 1.1,0.8 0.6,0 1.1,0.1 1.6,0.1 0.3,0 0.6,-0.1 0.9,-0.2 0.3,-0.1 0.5,-0.2 0.7,-0.3 0.3,-0.8 0.8,-1.7 1.3,-2.6 0.5,-0.9 1.1,-1.7 1.7,-2.5 0.6,-0.8 1.3,-1.6 2.1,-2.4 0.7,-0.7 1.5,-1.4 2.4,-2 0.9,-0.6 1.7,-1.1 2.7,-1.6 0.9,-0.4 1.9,-0.8 2.9,-1 -1,4.4 -1.9,8.4 -2.8,12.1 -0.9,3.7 -1.8,7.2 -2.6,10.4 -0.4,1.6 -0.7,3 -1,4.2 -0.3,1.2 -0.5,2.3 -0.7,3.3 -0.2,0.9 -0.3,1.8 -0.5,2.5 -0.1,0.7 -0.2,1.3 -0.2,1.9 -0.1,0.5 -0.1,1 -0.1,1.4 0,0.4 0,0.8 0,1.1 0,0.5 0.2,1 0.3,1.5 0.2,0.5 0.5,1 0.8,1.5 0.3,0.5 0.7,1 1.2,1.4 0.4,0.4 0.9,0.8 1.5,1.2 0.5,0.3 1.1,0.6 1.8,0.7 0.6,0.2 1.3,0.2 2,0.2 0.9,-0.1 1.7,-0.3 2.2,-0.5 0.6,-0.3 1,-0.6 1.3,-1.1 0,-0.6 0,-1.4 0.1,-2.5 0.1,-1 0.1,-2.2 0.3,-3.5 0.1,-1.3 0.3,-2.6 0.4,-4 0.2,-1.4 0.4,-2.8 0.6,-4.1 0.6,0.1 1.1,0.3 1.6,0.6 0.5,0.3 1,0.7 1.5,1.2 0.5,0.5 1,1.1 1.6,1.8 0.5,0.7 1.1,1.5 1.7,2.5 0.6,1 1.3,2.1 2,3.3 0.7,1.3 1.5,2.7 2.4,4.3 0.5,0.9 1,1.7 1.5,2.3 0.5,0.6 0.9,1.1 1.4,1.4 0.5,0.3 1,0.6 1.5,0.7 0.5,0.1 1.1,0.1 1.8,0.1 1,-0.1 1.9,-0.3 2.9,-0.6 0.9,-0.3 1.8,-0.7 2.5,-1.1 0.8,-0.5 1.5,-1 2.1,-1.6 0.6,-0.6 1.2,-1.2 1.6,-1.9 0.4,-0.6 0.7,-1.3 0.9,-1.9 0.1,0 0.1,0.1 0.2,0.1 0.9,0.4 1.9,0.5 2.9,0.4 0.6,-0.1 1.3,-0.2 2,-0.6 0.7,-0.3 1.4,-0.8 2,-1.5 0.7,-0.7 1.3,-1.6 1.9,-2.7 0.6,-1.1 1.1,-2.6 1.6,-4.2 0,0.5 0,1.1 0,1.5 0,0.5 0,0.9 0,1.3 0.1,1.2 0.3,2.1 0.6,2.8 0.3,0.7 0.7,1.3 1.2,1.7 0.5,0.4 1.1,0.7 1.7,0.8 0.7,0.1 1.4,0.2 2.2,0.1 0.6,-0.1 1.4,-0.3 2.2,-0.7 0.8,-0.4 1.7,-0.9 2.5,-1.6 0.9,-0.7 1.8,-1.4 2.7,-2.3 0.9,-0.9 1.8,-1.8 2.6,-2.7 0,0 0.1,-0.1 0.1,-0.1 0,0.1 0,0.1 0.1,0.2 0.6,1.4 1.3,2.6 2.2,3.5 0.9,0.9 2,1.5 3.2,1.9 1.2,0.4 2.6,0.5 4,0.4 1.5,-0.1 3.1,-0.7 4.6,-1.6 1.6,-0.9 3.1,-2.2 4.5,-3.8 1.4,-1.6 2.7,-3.6 3.9,-5.8 1.2,-2.3 2.2,-4.8 3,-7.7 0.8,-2.8 1.4,-5.9 1.7,-9.3 0.6,-3.3 0.6,-6.9 0.3,-10.6 z M 38.3,87.4 c -0.1,1 -0.3,2.1 -0.7,3.3 -0.4,1.1 -0.9,2.4 -1.6,3.7 -0.7,1.3 -1.5,2.8 -2.5,4.5 -0.5,-0.1 -1.1,-0.2 -1.8,-0.2 -0.7,0 -1.3,0 -2,0 -0.9,0.1 -1.6,0.2 -2.4,0.4 0.7,-4.7 1.3,-8.9 1.6,-12.6 0.3,-3.6 0.4,-6.6 0.3,-8.9 1.6,0 2.9,0.1 4,0.5 1.1,0.3 2,0.8 2.7,1.4 0.7,0.6 1.3,1.3 1.6,2.1 0.4,0.8 0.6,1.7 0.7,2.7 0.2,1 0.2,2.1 0.1,3.1 z M 63.8,105 c -0.4,0.6 -0.8,1.1 -1.3,1.4 -0.5,0.4 -1,0.6 -1.5,0.6 -0.2,0 -0.5,0 -0.7,0 -0.2,0 -0.4,-0.2 -0.6,-0.3 -0.2,-0.2 -0.3,-0.5 -0.5,-0.9 -0.1,-0.4 -0.2,-0.9 -0.3,-1.6 -0.1,-1.4 0,-2.8 0.3,-4.3 0.3,-1.4 0.7,-2.8 1.3,-4.1 0.6,-1.3 1.2,-2.5 2,-3.6 0.8,-1.1 1.6,-1.9 2.4,-2.6 L 63.8,105 Z"
       id="path7"
       inkscape:connector-curvature="0"
       style="fill:#96bd0d" /><g
       id="g9"><path
         class="st1"
         d="m 180.3,89.2 c 0,-0.4 -0.1,-0.7 -0.3,-1 -0.2,-0.3 -0.4,-0.5 -0.7,-0.7 -0.3,-0.2 -0.6,-0.3 -0.9,-0.4 -0.4,-0.1 -0.7,-0.1 -1,-0.1 -1.1,1.8 -2.1,3.4 -3.2,4.7 -1,1.3 -2,2.4 -2.9,3.2 -0.9,0.8 -1.7,1.5 -2.5,1.9 -0.7,0.4 -1.3,0.6 -1.7,0.7 -0.6,0 -1.1,0 -1.5,-0.1 -0.4,-0.1 -0.8,-0.3 -1.3,-0.5 1.1,-1.5 2,-3 2.9,-4.5 0.9,-1.5 1.6,-2.9 2.2,-4.3 0.6,-1.4 1,-2.8 1.3,-4.1 0.3,-1.3 0.4,-2.5 0.3,-3.6 -0.1,-1 -0.3,-1.8 -0.6,-2.6 -0.3,-0.8 -0.8,-1.4 -1.3,-2 -0.5,-0.5 -1.2,-0.9 -1.9,-1.2 -0.7,-0.3 -1.5,-0.4 -2.4,-0.3 -0.8,0.1 -1.6,0.3 -2.5,0.9 -0.9,0.5 -1.9,1.2 -2.8,2.2 -1,1 -2,2.1 -3,3.5 -1,1.4 -2.1,3 -3.1,4.8 0.3,-1.6 0.6,-3 0.9,-4.2 0.4,-1.3 0.8,-2.4 1.3,-3.4 0.5,-1 1,-1.9 1.6,-2.7 0.6,-0.8 1.2,-1.5 1.8,-2.2 0,-0.2 0,-0.3 0,-0.4 0,-0.1 0,-0.3 0,-0.4 0,-0.5 -0.2,-1 -0.5,-1.4 -0.3,-0.4 -0.6,-0.7 -1.1,-1 -0.4,-0.3 -1,-0.5 -1.6,-0.6 -0.6,-0.1 -1.3,-0.1 -2,-0.1 -0.9,0.1 -1.7,0.3 -2.6,0.7 -0.9,0.4 -1.7,1 -2.6,1.7 -0.8,0.7 -1.6,1.7 -2.3,2.7 -0.7,1.1 -1.3,2.3 -1.8,3.7 -0.5,1.4 -0.9,3 -1.1,4.7 -0.2,1.7 -0.3,3.6 -0.2,5.7 l 0,2.7 c -0.7,1.1 -1.3,2.1 -2,2.9 -0.9,1.3 -1.7,2.3 -2.5,3.2 -0.8,0.8 -1.5,1.5 -2.1,1.9 -0.6,0.4 -1.1,0.7 -1.5,0.7 -0.3,0 -0.5,0 -0.7,-0.2 -0.2,-0.1 -0.3,-0.4 -0.4,-0.9 0,-0.2 0,-0.6 0.1,-1.1 0.1,-0.5 0.3,-1.1 0.5,-1.8 0.2,-0.7 0.4,-1.5 0.7,-2.3 0.3,-0.8 0.5,-1.7 0.8,-2.5 0.3,-0.9 0.5,-1.7 0.8,-2.5 0.3,-0.8 0.5,-1.6 0.7,-2.3 0.2,-0.8 0.4,-1.4 0.5,-2 0.1,-0.6 0.2,-1.1 0.3,-1.5 0.1,-0.5 0.1,-0.9 0.1,-1.2 0,-0.4 0,-0.7 0,-1 -0.1,-0.7 -0.3,-1.5 -0.7,-2.1 -0.4,-0.7 -1,-1.3 -1.6,-1.8 -0.7,-0.5 -1.4,-0.9 -2.3,-1.1 -0.9,-0.3 -1.8,-0.3 -2.8,-0.3 -0.5,0 -1.1,0.2 -1.6,0.5 -0.5,0.3 -1,0.7 -1.3,1.2 0,1.6 0,3.1 0,4.5 -0.1,1.5 -0.2,3 -0.4,4.5 -0.2,1.5 -0.4,3.2 -0.7,4.8 -0.3,1.7 -0.7,3.5 -1.1,5.5 -0.3,0.4 -0.7,0.8 -1.1,1.2 -0.4,0.4 -0.8,0.8 -1.3,1.2 -0.4,0.4 -0.9,0.6 -1.3,0.9 -0.4,0.2 -0.8,0.4 -1.1,0.4 -0.5,0 -0.9,-0.1 -1.1,-0.4 -0.3,-0.3 -0.4,-0.8 -0.5,-1.4 0,-0.6 0,-1.4 0.1,-2.4 0.1,-1 0.3,-2.2 0.6,-3.6 1.6,-3.2 2.8,-5.9 3.5,-8.1 0.7,-2.2 1.1,-3.9 1,-5 0,-0.5 -0.2,-1 -0.3,-1.4 -0.2,-0.4 -0.4,-0.6 -0.7,-0.8 -0.3,-0.2 -0.7,-0.3 -1.1,-0.4 -0.4,-0.1 -0.9,-0.1 -1.5,0 -0.8,0.1 -1.7,0.4 -2.6,0.8 -0.9,0.5 -1.7,1.1 -2.6,1.9 -0.8,0.8 -1.6,1.6 -2.3,2.6 -0.7,0.9 -1.4,1.9 -1.9,2.9 -0.5,1 -0.9,1.9 -1.2,2.9 -0.3,0.9 -0.4,1.8 -0.3,2.5 0.1,0.7 0.2,1.5 0.4,2.2 0.2,0.7 0.5,1.5 1,2.2 -0.4,1.2 -0.7,2.4 -1,3.5 -0.3,1.1 -0.5,2.2 -0.7,3.1 -0.2,1 -0.3,1.9 -0.3,2.6 -0.1,0.8 -0.1,1.5 0,2 0.1,1.1 0.2,2 0.5,2.9 0.2,0.8 0.6,1.5 1,2.1 0.4,0.5 1,0.9 1.7,1.2 0.7,0.2 1.6,0.3 2.7,0.2 0.8,-0.1 1.7,-0.3 2.6,-0.8 0.9,-0.5 1.8,-1.1 2.7,-2 0.9,-0.9 1.8,-2 2.6,-3.2 0.9,-1.3 1.7,-2.8 2.4,-4.5 -0.1,0.8 -0.1,1.5 -0.2,2.1 0,0.6 0,1.2 0,1.7 0.1,0.9 0.3,1.7 0.5,2.3 0.3,0.6 0.6,1 1.1,1.4 0.4,0.3 1,0.5 1.6,0.6 0.6,0.1 1.3,0.1 2,0 0.8,-0.1 1.6,-0.3 2.4,-0.6 0.8,-0.3 1.7,-0.8 2.5,-1.3 0.8,-0.6 1.7,-1.2 2.5,-1.9 0.8,-0.7 1.6,-1.5 2.4,-2.3 0.9,-1 1.8,-2 2.7,-3.1 l -0.1,4.8 c -1.1,2.5 -1,6.7 -1.4,8.5 -0.4,1.9 -0.6,4.1 -0.5,5.2 0.1,0.6 0.2,1.2 0.5,1.7 0.3,0.5 0.6,1 1,1.5 0.4,0.5 0.9,0.8 1.5,1.2 0.5,0.3 1.1,0.6 1.7,0.9 0.6,0.2 1.2,0.4 1.8,0.5 0.6,0.1 1.2,0.1 1.8,0.1 0.7,-0.1 1.4,-0.5 1.9,-1.3 0.5,-0.8 1,-1.9 1.3,-3.3 0.4,-1.4 0.6,-4 0.8,-6 0.2,-2 0.7,-9.5 0.7,-12.5 -0.1,-3 -0.1,-6.2 -0.3,-9.6 0.6,-0.8 1.2,-1.5 1.7,-2 0.5,-0.6 0.9,-1 1.3,-1.3 0.4,-0.3 0.7,-0.6 1,-0.8 0.3,-0.2 0.6,-0.3 0.8,-0.3 0.5,0 0.8,0.1 1.1,0.3 0.3,0.3 0.4,0.8 0.5,1.6 0.1,0.8 -0.1,1.8 -0.4,2.9 -0.3,1.1 -0.8,2.4 -1.3,3.7 -0.5,0.2 -0.9,0.4 -1.2,0.7 -0.3,0.3 -0.6,0.6 -0.7,0.9 -0.2,0.3 -0.3,0.7 -0.4,1.1 -0.1,0.4 -0.1,0.8 0,1.2 0,0.5 0.1,1 0.3,1.6 0.2,0.6 0.3,1.1 0.6,1.6 0.2,0.5 0.6,1 0.9,1.4 0.4,0.4 0.8,0.8 1.3,1.1 0.5,0.3 1.1,0.5 1.8,0.7 0.7,0.1 1.4,0.2 2.2,0.1 0.8,-0.1 1.7,-0.3 2.7,-0.7 0.9,-0.4 1.9,-0.9 2.9,-1.6 1,-0.7 2,-1.4 2.9,-2.2 1,-0.8 1.9,-1.7 2.8,-2.7 0.9,-0.9 1.7,-1.9 2.5,-2.9 0.8,-1 1.4,-1.9 1.9,-2.8 0.5,-0.9 0.9,-1.8 1.2,-2.5 -0.3,-0.8 -0.1,-1.5 -0.2,-2.1 z"
         id="path11"
         inkscape:connector-curvature="0"
         style="fill:#0a71b3" /><path
         class="st1"
         d="m 196.3,59.8 c 0,-0.5 -0.1,-1 -0.3,-1.4 -0.2,-0.4 -0.4,-0.7 -0.7,-1 -0.3,-0.2 -0.7,-0.4 -1.2,-0.5 -0.5,-0.1 -1.1,-0.1 -1.8,-0.1 -0.8,0.1 -1.6,0.2 -2.4,0.5 -0.8,0.3 -1.5,0.6 -2.2,1.1 -0.7,0.4 -1.3,0.9 -1.9,1.5 -0.6,0.6 -1,1.1 -1.4,1.8 -0.4,0.6 -0.7,1.2 -0.9,1.9 -0.2,0.6 -0.3,1.2 -0.2,1.8 0.1,0.7 0.2,1.4 0.4,2.1 0.2,0.7 0.4,1.4 0.8,2.1 -0.2,1 -0.5,3.1 -0.6,4.2 -0.1,1 -0.2,1.2 -0.2,2.2 0,1 -0.1,1.4 -0.1,2.2 0,0.9 0,1.6 0,2.4 0,0.7 0,1.3 0.1,1.8 0.1,0.8 0.2,1.5 0.5,2.3 0.3,0.7 0.6,1.4 1,2 0.4,0.6 0.9,1 1.5,1.3 0.6,0.3 1.2,0.4 1.9,0.4 0.3,0 0.7,-0.1 1,-0.2 0.3,-0.1 0.5,-0.2 0.7,-0.3 0.2,-2.1 0.5,-4.1 0.8,-6 0.3,-1.9 0.5,-3.7 0.8,-5.5 0.3,-1.8 0.7,-2.1 1,-3.7 0.3,-1.7 0.3,-1.7 0.9,-2.7 0.6,-1.1 0.9,-2.3 1.3,-3.3 0.3,-1 0.6,-2 0.8,-2.8 0.2,-0.9 0.4,-1.6 0.4,-2.3 0,-0.7 0,-1.3 0,-1.8 z"
         id="path13"
         inkscape:connector-curvature="0"
         style="fill:#0a71b3" /><path
         class="st1"
         d="m 190.7,92.4 c -0.3,-0.2 -0.6,-0.4 -1.1,-0.5 -0.4,-0.1 -1,-0.1 -1.7,-0.1 -0.7,0.1 -1.3,0.2 -2,0.5 -0.7,0.2 -1.4,0.6 -2.1,0.9 -0.7,0.4 -1.3,0.8 -1.9,1.3 -0.6,0.5 -1.1,1 -1.5,1.6 -0.4,0.6 -0.8,1.1 -1,1.7 -0.2,0.6 -0.3,1.2 -0.3,1.8 0.1,0.7 0.3,1.4 0.7,2.1 0.4,0.7 0.9,1.3 1.4,1.8 0.6,0.5 1.2,0.9 2,1.2 0.7,0.3 1.5,0.4 2.3,0.3 0.6,-0.1 1.3,-0.3 1.8,-0.6 0.6,-0.3 1.1,-0.8 1.6,-1.3 0.5,-0.5 0.9,-1.1 1.2,-1.8 0.4,-0.7 0.7,-1.4 0.9,-2.1 0.2,-0.7 0.4,-1.5 0.5,-2.3 0.1,-0.8 0.1,-1.5 0.1,-2.2 0,-0.5 -0.1,-0.9 -0.3,-1.3 -0.1,-0.5 -0.3,-0.8 -0.6,-1 z"
         id="path15"
         inkscape:connector-curvature="0"
         style="fill:#0a71b3" /></g></g></svg>