<?xml version="1.0" encoding="utf-8"?>
<!-- Generator: Adobe Illustrator 19.1.0, SVG Export Plug-In . SVG Version: 6.00 Build 0)  -->
<svg version="1.1" id="Layer_1" xmlns="http://www.w3.org/2000/svg" xmlns:xlink="http://www.w3.org/1999/xlink" x="0px" y="0px"
	 viewBox="0 0 50 50" style="enable-background:new 0 0 50 50;" xml:space="preserve">
<style type="text/css">
	.st0{fill:#93C01F;}
	.st1{fill:#FFFFFF;}
</style>
<g>
	<path class="st0" d="M28.1,3.8v44.4c0,0.5-0.1,1-0.3,1h-1.8c-0.2,0-0.3-0.4-0.3-1V3.8c0-0.5,0.1-1,0.3-1h1.8
		C28,2.9,28.1,3.3,28.1,3.8L28.1,3.8z"/>
	<path class="st0" d="M24.2,4.5H9.4c-0.1,0-0.2,0.1-0.2,0.2L5.6,10c-0.1,0.1-0.1,0.3-0.1,0.5c0,0.2,0.1,0.4,0.2,0.5l3.6,5.5
		c0.1,0.1,0.1,0.1,0.2,0.1h14.7c0.2,0,0.4-0.3,0.4-0.7V5.2C24.5,4.8,24.4,4.5,24.2,4.5L24.2,4.5z"/>
	<path class="st0" d="M29.5,24.5h14.7c0.1,0,0.2-0.1,0.2-0.2l3.6-5.3c0.1-0.1,0.1-0.3,0.1-0.5c0-0.2-0.1-0.4-0.2-0.5l-3.6-5.5
		c-0.1-0.1-0.1-0.1-0.2-0.1H29.5c-0.2,0-0.4,0.3-0.4,0.7v10.8C29.1,24.2,29.3,24.5,29.5,24.5L29.5,24.5z"/>
	<path class="st0" d="M24.2,18.2H9.4c-0.1,0-0.2,0.1-0.2,0.2l-3.6,5.3c-0.1,0.1-0.1,0.3-0.1,0.5c0,0.2,0.1,0.4,0.2,0.5l3.6,5.5
		c0.1,0.1,0.1,0.1,0.2,0.1h14.7c0.2,0,0.4-0.3,0.4-0.7V18.9C24.5,18.6,24.4,18.2,24.2,18.2L24.2,18.2z"/>
	<g>
		<path class="st1" d="M37.1,15.2h0.5c0,0,0,0,0,0c0-0.1-0.1-0.3-0.3-0.3C37.3,14.9,37.1,15,37.1,15.2
			C37.1,15.2,37.1,15.2,37.1,15.2L37.1,15.2z"/>
		<path class="st1" d="M36.6,16.2h0.9v-0.3h-1.2l0,0C36.3,16.1,36.4,16.2,36.6,16.2z"/>
		<path class="st1" d="M36.9,15.2c0-0.2-0.1-0.3-0.3-0.3l0,0h-0.4l0.3,0.3H36.9z"/>
		<path class="st1" d="M35.7,16.2H36l0-0.3C35.9,15.9,35.7,16,35.7,16.2L35.7,16.2z"/>
		<path class="st1" d="M37,16.3h-0.6l-0.7,0c0,0.2,0.2,0.3,0.3,0.3h1.3l0,0C37.3,16.4,37.2,16.3,37,16.3z"/>
		<polygon class="st1" points="38.7,17 38.7,17 38.7,17 		"/>
		<path class="st1" d="M36.1,17.2h2.2c0.2,0,0.3-0.1,0.3-0.3h-2.3L36.1,17.2z"/>
		<path class="st1" d="M38.5,14.9h-0.4v0c-0.2,0-0.3,0.1-0.3,0.3l0.4,0L38.5,14.9z"/>
		<polygon class="st1" points="37.9,15.5 37.9,15.5 38.2,15.2 38.2,15.2 36.6,15.2 36.9,15.5 		"/>
		<path class="st1" d="M37.4,16.5l1,0c0.2,0,0.3-0.1,0.3-0.3h0l-1.3,0V16.5z"/>
		<path class="st1" d="M37.5,16.2l0.8,0c0.2,0,0.3-0.1,0.3-0.3l0,0h-0.8L37.5,16.2z"/>
		<path class="st1" d="M38.8,16.6h-2.3c0,0.2,0.1,0.3,0.3,0.3h1.7C38.7,16.9,38.8,16.8,38.8,16.6z"/>
		<rect x="35.6" y="17.7" class="st1" width="0" height="0"/>
		<path class="st1" d="M36.2,17.6L36.2,17.6l2.1,0c0.2,0,0.3-0.1,0.3-0.3l-0.3,0H36l-0.4,0.4l0.2,0.2L36.2,17.6z"/>
		<path class="st1" d="M35.4,18.8l0.9-0.9l1.8,0c0.2,0,0.3-0.1,0.3-0.3h-2.2L35,18.8C35.1,18.9,35.3,18.9,35.4,18.8z"/>
		<path class="st1" d="M35.9,18.8l0.5-0.5l1.4,0c0.2,0,0.3-0.1,0.3-0.3l-1.8,0l-0.8,0.8C35.6,18.9,35.8,18.9,35.9,18.8z"/>
		<path class="st1" d="M36.4,18.8l0.2-0.2h1.6L38,18.3h-1.5l0,0L36,18.8C36.1,18.9,36.3,18.9,36.4,18.8z"/>
		<path class="st1" d="M37.2,19.3l1.4,0L38.5,19l-1.5,0C36.9,19.2,37.1,19.3,37.2,19.3z"/>
		<path class="st1" d="M38.4,19l-0.2-0.3l-1.6,0c0,0.2,0.1,0.3,0.3,0.3L38.4,19z"/>
		<path class="st1" d="M37.4,22.5h-0.5c0,0.2,0.1,0.3,0.3,0.3h0.2L37.4,22.5L37.4,22.5L37.4,22.5z"/>
		<path class="st1" d="M38.3,21.8H37c-0.2,0-0.3,0.1-0.3,0.3l0,0h0.9h0.9l0,0C38.5,21.9,38.4,21.8,38.3,21.8z"/>
		<path class="st1" d="M37.4,21.4c0-0.1-0.1-0.3-0.3-0.3v0.3L37.4,21.4L37.4,21.4z"/>
		<path class="st1" d="M37,21.4c-0.2,0-0.3,0.1-0.3,0.3l0,0h1.6c0.2,0,0.3-0.1,0.3-0.3l0,0h-1H37z"/>
		<path class="st1" d="M37.4,22.1h-1c-0.2,0-0.3,0.1-0.3,0.3l0,0h1.7c0.2,0,0.3-0.1,0.3-0.3l0,0H37.4L37.4,22.1z"/>
		<path class="st1" d="M36.5,15.9L36.5,15.9l1.2,0l0,0l0.5,0h0c0.2,0,0.3-0.1,0.3-0.3l0,0l-0.8,0l-0.9,0
			C36.6,15.6,36.5,15.7,36.5,15.9z"/>
		<polygon class="st1" points="37.7,20.4 37.7,20.4 37.7,20.4 		"/>
		<path class="st1" d="M37.7,20.7L37.7,20.7l0.2,0l0,0l0.6,0l0,0c0-0.1-0.1-0.3-0.3-0.3l-0.3,0l-0.2,0l-0.4,0c0,0.2,0.1,0.3,0.3,0.3
			H37.7z"/>
		<path class="st1" d="M38.3,20.3l0.3-0.3l-1.4,0c0,0.2,0.1,0.3,0.3,0.3L38.3,20.3z"/>
		<polygon class="st1" points="38.9,19.7 37.5,19.7 37.3,20 37.8,20 38.6,20 		"/>
		<path class="st1" d="M37.6,19.6L37.6,19.6l1.3,0l0,0c0-0.1-0.1-0.3-0.3-0.3l-1,0l0,0h-0.4C37.3,19.5,37.4,19.6,37.6,19.6z"/>
		<path class="st1" d="M38.7,20.7h-0.8h-0.5c0,0.2,0.1,0.3,0.3,0.3l0,0h0.2l1.1,0C39,20.9,38.8,20.7,38.7,20.7z"/>
		<path class="st1" d="M38.5,21.1l-0.6,0c-0.2,0-0.3,0.1-0.3,0.3l0.9,0h0.2c0.2,0,0.3-0.1,0.3-0.3L38.5,21.1L38.5,21.1z"/>
		<path class="st1" d="M39.4,18.8c0.1-0.1,0.1-0.3,0-0.4L39,18.7l-0.3,0.3c0.1,0.1,0.3,0.1,0.4,0l0,0L39.4,18.8z"/>
		<path class="st1" d="M40.1,15.2v0.4l0.3-0.3C40.3,15.3,40.2,15.2,40.1,15.2z"/>
		<path class="st1" d="M40.1,18.1L40.1,18.1l0.7-0.7c0.1-0.1,0.1-0.3,0-0.4l0,0l-0.7,0.7C40,17.8,40,17.9,40.1,18.1z"/>
		<polygon class="st1" points="40.7,16.6 40.7,16.6 40.7,16.6 		"/>
		<path class="st1" d="M40.1,17.6L40.1,17.6l0.6-0.6c0.1-0.1,0.1-0.3,0-0.4l-0.6,0.6C40,17.3,40,17.5,40.1,17.6z"/>
		<path class="st1" d="M40.8,16L39.7,17l0,0c0.1,0.1,0.3,0.1,0.4,0l0,0l0.6-0.6C40.9,16.3,40.9,16.1,40.8,16L40.8,16z"/>
		<path class="st1" d="M40.1,16.2l0.4-0.4l0.2-0.2c0.1-0.1,0.1-0.3,0-0.4l0,0l-0.7,0.7C40,15.9,40,16,40.1,16.2L40.1,16.2z"/>
		<path class="st1" d="M39.4,15L39.4,15l-0.6,0.6l0,0V16l0.6-0.6C39.5,15.3,39.5,15.1,39.4,15z"/>
		<path class="st1" d="M39,16.4c-0.1,0.1-0.1,0.3,0,0.4l0.7-0.7l-0.2-0.2L39,16.4z"/>
		<path class="st1" d="M38.8,17.4l1.1-1l-0.2-0.2L38.8,17C38.7,17.1,38.7,17.3,38.8,17.4z"/>
		<path class="st1" d="M38.5,17.8c-0.1,0.1-0.1,0.3,0,0.4l2.3-2.3c0.1-0.1,0.1-0.3,0-0.4L38.5,17.8z"/>
		<path class="st1" d="M38.8,15.2C38.8,15.2,38.8,15.2,38.8,15.2l0,0.3l0.2-0.2C39,15.2,38.9,15.2,38.8,15.2z"/>
		<path class="st1" d="M39.4,17.4l-0.2,0.2l-0.5,0.5l-0.4,0.4c0.1,0.1,0.3,0.1,0.4,0l0,0l0.4-0.4l0.2-0.2c0,0,0,0,0,0
			C39.5,17.7,39.5,17.5,39.4,17.4L39.4,17.4z"/>
		<path class="st1" d="M39.2,18.1L39,18.3l-0.2,0.2v0l-0.2,0.2c0.1,0.1,0.3,0.1,0.4,0v0l0.3-0.3l0.2-0.2c0.1-0.1,0.1-0.3,0-0.4
			L39.2,18.1z"/>
		<path class="st1" d="M40.9,17.8L40.7,18l-1.3,1.3l-0.4,0.4c0.1,0.1,0.3,0.1,0.4,0h0l0.1-0.1l0.1-0.1l0.7-0.7l0.4-0.4
			C41,18.1,41,18,40.9,17.8L40.9,17.8z"/>
		<path class="st1" d="M39.3,19.3L39.3,19.3l0.2-0.2l0,0l0,0l0.4-0.4l0,0c-0.1-0.1-0.3-0.1-0.4,0l0,0l-0.2,0.2l-0.2,0.2l0,0
			l-0.2,0.2l0,0C39,19.4,39.2,19.4,39.3,19.3z"/>
		<path class="st1" d="M39.3,15.6L39.3,15.6l-0.2,0.2L39,15.9l0,0L38.9,16c-0.1,0.1-0.1,0.3,0,0.4l0.3-0.3l0,0l0.1-0.1l0.1-0.1h0
			c0.1-0.1,0.1-0.3,0-0.4L39.3,15.6z"/>
		
			<rect x="38.7" y="19.8" transform="matrix(0.7093 0.7049 -0.7049 0.7093 25.4298 -21.5777)" class="st1" width="0.3" height="0.5"/>
		<path class="st1" d="M39.3,20.3l0.1-0.1l0.2-0.2h-0.4l-0.4,0.4C39,20.5,39.1,20.5,39.3,20.3L39.3,20.3z"/>
		<path class="st1" d="M40.8,18.4l-0.4,0.4l0,0l-0.6,0.6l-0.3,0.2c-0.1,0.1-0.1,0.3,0,0.4l1.2-1.2C40.9,18.7,40.9,18.5,40.8,18.4
			L40.8,18.4z"/>
		<polygon class="st1" points="39.2,20.5 39.2,20.5 39.2,20.5 		"/>
		<path class="st1" d="M40,19.7l-0.8,0.8l0.4,0l0.4-0.4C40.1,20,40.1,19.8,40,19.7L40,19.7z"/>
		<polygon class="st1" points="39.6,20.6 39.6,21 39.9,20.7 39.9,20.3 		"/>
		<path class="st1" d="M40.1,18.6L40.1,18.6L40.1,18.6l0.8-0.8c0.1-0.1,0.1-0.3,0-0.4l0,0l-0.8,0.8C40,18.3,40,18.4,40.1,18.6z"/>
		<path class="st1" d="M40.3,19.4l-0.3,0.3h0.2l0,0c0,0,0.1,0,0.1,0C40.4,19.5,40.4,19.4,40.3,19.4L40.3,19.4z"/>
		<path class="st1" d="M34.4,15.4c-0.1-0.1-0.3-0.1-0.4,0l0.2,0.2L34.4,15.4z"/>
		<path class="st1" d="M35.1,15.2L35.1,15.2c-0.1-0.1-0.3-0.1-0.4,0l0,0L33.9,16c-0.1,0.1-0.1,0.3,0,0.4L35.1,15.2z"/>
		<path class="st1" d="M34.1,16.3c0.1,0.1,0.3,0.1,0.4,0l0,0l0.4-0.4l0.2-0.2c0.1-0.1,0.1-0.3,0-0.4L34.5,16L34.1,16.3z"/>
		<path class="st1" d="M34.5,16.8L34.5,16.8l1.2-1.2c0.1-0.1,0.1-0.3,0-0.4l0,0l-1.2,1.2C34.4,16.5,34.4,16.7,34.5,16.8z"/>
		<path class="st1" d="M35.5,15.9L35.5,15.9l-0.3,0.3L35,16.4l-0.3,0.3L34.4,17c0.1,0.1,0.3,0.1,0.4,0l0.6-0.6
			C35.6,16.2,35.6,16,35.5,15.9z"/>
		<path class="st1" d="M35.3,17L35.3,17l0.4-0.4l-0.2-0.2L34.9,17C35,17.1,35.2,17.1,35.3,17z"/>
		<path class="st1" d="M35.6,17.7l0.6-0.6L36,16.9l-0.8,0.8C35.3,17.8,35.5,17.8,35.6,17.7z"/>
		<polygon class="st1" points="35.2,17.7 35.2,17.7 35.2,17.7 		"/>
		<path class="st1" d="M35.3,17.4l0.6-0.6l-0.2-0.2l-0.8,0.8l0,0C35.1,17.5,35.2,17.5,35.3,17.4z"/>
		<path class="st1" d="M34.2,17.6c-0.1-0.1-0.3-0.1-0.4,0v0l0.2,0.2L34.2,17.6z"/>
		<path class="st1" d="M33.6,18.7l0.5-0.5l0.5-0.5c0.1-0.1,0.1-0.3,0-0.4L34,17.9l0,0l-0.3,0.3C33.5,18.4,33.5,18.5,33.6,18.7z"/>
		<polygon class="st1" points="33.6,18.2 33.6,18.2 33.6,18.2 		"/>
		<path class="st1" d="M34.8,17.9c0.1-0.1,0.1-0.3,0-0.4l0,0l-1.2,1.2c-0.1,0.1-0.1,0.3,0,0.4l0,0L34.8,17.9L34.8,17.9z"/>
		<path class="st1" d="M34.4,18.5c-0.1,0.1-0.1,0.3,0,0.4l0,0l0.9-0.9l-0.4,0L34.4,18.5z"/>
		<path class="st1" d="M34.6,19.1L34.6,19.1l1.1-1.1l-0.4,0l-1.1,1.1l0,0C34.3,19.2,34.5,19.2,34.6,19.1z"/>
		<path class="st1" d="M36.1,19.6l0.5-0.5h-0.4l-0.1,0.1C36,19.3,36,19.4,36.1,19.6L36.1,19.6z"/>
		<path class="st1" d="M35.7,20.1l-1.1,1.1c0.1,0.1,0.3,0.1,0.4,0l1.1-1H35.7z"/>
		<path class="st1" d="M34.6,19.6L34.6,19.6l0.2,0.2l0.2-0.2C34.9,19.5,34.7,19.5,34.6,19.6z"/>
		<path class="st1" d="M35.6,19.6c0.1-0.1,0.1-0.3,0-0.4l0,0l-1.2,1.2c-0.1,0.1-0.1,0.3,0,0.4l0,0L35.6,19.6L35.6,19.6z"/>
		<path class="st1" d="M34.8,20.8L34.8,20.8l0.7-0.7l0,0c0.1-0.1,0.1-0.3,0-0.4l-0.7,0.7C34.8,20.5,34.7,20.7,34.8,20.8z"/>
		<polygon class="st1" points="36.1,21.1 36.1,21.1 36.1,21.1 		"/>
		<path class="st1" d="M36.5,21.1l0.7-0.7l-0.2-0.2l-0.3,0.3l-0.6,0.6C36.2,21.2,36.4,21.2,36.5,21.1z"/>
		<path class="st1" d="M37.1,20.5L37,20.7l0,0l-0.3,0.3l0,0c0.1,0.1,0.3,0.1,0.4,0l0.3-0.3L37.1,20.5z"/>
		<path class="st1" d="M36.2,20l0.7-0.7L36.7,19l-0.5,0.5C36.1,19.7,36.1,19.8,36.2,20L36.2,20z"/>
		<path class="st1" d="M35.8,20.8l1.4-1.3L37,19.3l-1.6,1.6l0,0C35.5,20.9,35.7,20.9,35.8,20.8z"/>
		<path class="st1" d="M37.2,19.5l-1.8,1.8l0,0c0.1,0.1,0.3,0.1,0.4,0l1.5-1.5L37.2,19.5z"/>
	</g>
	<g>
		<path class="st1" d="M15.7,7.5h0.5c0,0,0,0,0,0c0-0.1-0.1-0.3-0.3-0.3C15.8,7.2,15.7,7.3,15.7,7.5C15.7,7.5,15.7,7.5,15.7,7.5
			L15.7,7.5z"/>
		<path class="st1" d="M15.1,8.5H16V8.2h-1.2l0,0C14.8,8.4,14.9,8.5,15.1,8.5z"/>
		<path class="st1" d="M15.5,7.5c0-0.2-0.1-0.3-0.3-0.3l0,0h-0.4l0.3,0.3H15.5z"/>
		<path class="st1" d="M14.2,8.5h0.3l0-0.3C14.4,8.2,14.3,8.4,14.2,8.5L14.2,8.5z"/>
		<path class="st1" d="M15.5,8.6h-0.6l-0.7,0c0,0.2,0.2,0.3,0.3,0.3h1.3l0,0C15.8,8.7,15.7,8.6,15.5,8.6z"/>
		<polygon class="st1" points="17.2,9.3 17.2,9.3 17.2,9.3 		"/>
		<path class="st1" d="M14.6,9.5h2.2c0.2,0,0.3-0.1,0.3-0.3h-2.3L14.6,9.5z"/>
		<path class="st1" d="M17.1,7.2h-0.4v0c-0.2,0-0.3,0.1-0.3,0.3l0.4,0L17.1,7.2z"/>
		<polygon class="st1" points="16.4,7.8 16.4,7.8 16.7,7.5 16.7,7.5 15.1,7.5 15.4,7.8 		"/>
		<path class="st1" d="M16,8.9l1,0c0.2,0,0.3-0.1,0.3-0.3h0l-1.3,0V8.9z"/>
		<path class="st1" d="M16,8.5l0.8,0c0.2,0,0.3-0.1,0.3-0.3l0,0h-0.8L16,8.5z"/>
		<path class="st1" d="M17.3,8.9H15c0,0.2,0.1,0.3,0.3,0.3H17C17.2,9.2,17.3,9.1,17.3,8.9z"/>
		<rect x="14.1" y="10" class="st1" width="0" height="0"/>
		<path class="st1" d="M14.7,9.9L14.7,9.9l2.1,0c0.2,0,0.3-0.1,0.3-0.3l-0.3,0h-2.2L14.1,10l0.2,0.2L14.7,9.9z"/>
		<path class="st1" d="M13.9,11.1l0.9-0.9l1.8,0c0.2,0,0.3-0.1,0.3-0.3h-2.2l-1.2,1.2C13.6,11.2,13.8,11.2,13.9,11.1z"/>
		<path class="st1" d="M14.4,11.1l0.5-0.5l1.4,0c0.2,0,0.3-0.1,0.3-0.3l-1.8,0L14,11.1C14.1,11.2,14.3,11.2,14.4,11.1z"/>
		<path class="st1" d="M14.9,11.1l0.2-0.2h1.6l-0.2-0.3H15l0,0l-0.5,0.5C14.6,11.2,14.8,11.2,14.9,11.1z"/>
		<path class="st1" d="M15.8,11.6l1.4,0L17,11.3l-1.5,0C15.5,11.5,15.6,11.6,15.8,11.6z"/>
		<path class="st1" d="M17,11.3L16.8,11l-1.6,0c0,0.2,0.1,0.3,0.3,0.3L17,11.3z"/>
		<path class="st1" d="M15.9,14.8h-0.5c0,0.2,0.1,0.3,0.3,0.3H16L15.9,14.8L15.9,14.8L15.9,14.8z"/>
		<path class="st1" d="M16.8,14.1h-1.3c-0.2,0-0.3,0.1-0.3,0.3l0,0h0.9h0.9l0,0C17.1,14.2,16.9,14.1,16.8,14.1z"/>
		<path class="st1" d="M15.9,13.7c0-0.1-0.1-0.3-0.3-0.3v0.3L15.9,13.7L15.9,13.7z"/>
		<path class="st1" d="M15.5,13.7c-0.2,0-0.3,0.1-0.3,0.3l0,0h1.6c0.2,0,0.3-0.1,0.3-0.3l0,0h-1H15.5z"/>
		<path class="st1" d="M16,14.4h-1c-0.2,0-0.3,0.1-0.3,0.3l0,0h1.7c0.2,0,0.3-0.1,0.3-0.3l0,0H16L16,14.4z"/>
		<path class="st1" d="M15,8.2L15,8.2l1.2,0l0,0l0.5,0h0C16.9,8.2,17,8,17,7.9l0,0l-0.8,0l-0.9,0C15.2,7.9,15,8,15,8.2z"/>
		<polygon class="st1" points="16.3,12.7 16.3,12.7 16.3,12.7 		"/>
		<path class="st1" d="M16.3,13L16.3,13l0.2,0l0,0l0.6,0l0,0c0-0.1-0.1-0.3-0.3-0.3l-0.3,0l-0.2,0l-0.4,0c0,0.2,0.1,0.3,0.3,0.3
			H16.3z"/>
		<path class="st1" d="M16.8,12.6l0.3-0.3l-1.4,0c0,0.2,0.1,0.3,0.3,0.3L16.8,12.6z"/>
		<polygon class="st1" points="17.4,12 16.1,12 15.8,12.3 16.3,12.3 17.1,12.3 		"/>
		<path class="st1" d="M16.1,11.9L16.1,11.9l1.3,0l0,0c0-0.1-0.1-0.3-0.3-0.3l-1,0l0,0h-0.4C15.8,11.8,15.9,11.9,16.1,11.9z"/>
		<path class="st1" d="M17.2,13h-0.8h-0.5c0,0.2,0.1,0.3,0.3,0.3l0,0h0.2l1.1,0C17.5,13.2,17.4,13.1,17.2,13z"/>
		<path class="st1" d="M17,13.4l-0.6,0c-0.2,0-0.3,0.1-0.3,0.3l0.9,0h0.2c0.2,0,0.3-0.1,0.3-0.3L17,13.4L17,13.4z"/>
		<path class="st1" d="M17.9,11.1c0.1-0.1,0.1-0.3,0-0.4L17.5,11l-0.3,0.3c0.1,0.1,0.3,0.1,0.4,0l0,0L17.9,11.1z"/>
		<path class="st1" d="M18.6,7.5v0.4l0.3-0.3C18.8,7.6,18.7,7.5,18.6,7.5z"/>
		<path class="st1" d="M18.6,10.4L18.6,10.4l0.7-0.7c0.1-0.1,0.1-0.3,0-0.4l0,0L18.6,10C18.5,10.1,18.5,10.3,18.6,10.4z"/>
		<polygon class="st1" points="19.2,8.9 19.2,8.9 19.2,8.9 		"/>
		<path class="st1" d="M18.6,9.9L18.6,9.9l0.6-0.6c0.1-0.1,0.1-0.3,0-0.4l-0.6,0.6C18.5,9.6,18.5,9.8,18.6,9.9z"/>
		<path class="st1" d="M19.3,8.3l-1.1,1.1l0,0c0.1,0.1,0.3,0.1,0.4,0l0,0l0.6-0.6C19.4,8.6,19.4,8.4,19.3,8.3L19.3,8.3z"/>
		<path class="st1" d="M18.6,8.5L19,8l0.2-0.2c0.1-0.1,0.1-0.3,0-0.4l0,0L18.6,8C18.5,8.2,18.5,8.3,18.6,8.5L18.6,8.5z"/>
		<path class="st1" d="M17.9,7.3L17.9,7.3l-0.6,0.6l0,0v0.4l0.6-0.6C18,7.6,18,7.4,17.9,7.3z"/>
		<path class="st1" d="M17.5,8.7c-0.1,0.1-0.1,0.3,0,0.4l0.7-0.7l-0.2-0.2L17.5,8.7z"/>
		<path class="st1" d="M17.3,9.7l1.1-1l-0.2-0.2l-0.8,0.8C17.2,9.4,17.2,9.6,17.3,9.7z"/>
		<path class="st1" d="M17,10.1c-0.1,0.1-0.1,0.3,0,0.4l2.3-2.3c0.1-0.1,0.1-0.3,0-0.4L17,10.1z"/>
		<path class="st1" d="M17.3,7.5C17.3,7.5,17.3,7.5,17.3,7.5l0,0.3l0.2-0.2C17.5,7.5,17.4,7.5,17.3,7.5z"/>
		<path class="st1" d="M17.9,9.7l-0.2,0.2l-0.5,0.5l-0.4,0.4c0.1,0.1,0.3,0.1,0.4,0l0,0l0.4-0.4l0.2-0.2c0,0,0,0,0,0
			C18,10,18,9.8,17.9,9.7L17.9,9.7z"/>
		<path class="st1" d="M17.7,10.4l-0.2,0.2l-0.2,0.2v0L17,11.1c0.1,0.1,0.3,0.1,0.4,0v0l0.3-0.3l0.2-0.2c0.1-0.1,0.1-0.3,0-0.4
			L17.7,10.4z"/>
		<path class="st1" d="M19.4,10.2l-0.2,0.2L18,11.6L17.6,12c0.1,0.1,0.3,0.1,0.4,0h0l0.1-0.1l0.1-0.1l0.7-0.7l0.4-0.4
			C19.5,10.5,19.5,10.3,19.4,10.2L19.4,10.2z"/>
		<path class="st1" d="M17.9,11.6L17.9,11.6l0.2-0.2l0,0l0,0l0.4-0.4l0,0c-0.1-0.1-0.3-0.1-0.4,0l0,0l-0.2,0.2l-0.2,0.2l0,0
			l-0.2,0.2l0,0C17.6,11.7,17.7,11.7,17.9,11.6z"/>
		<path class="st1" d="M17.8,7.9L17.8,7.9L17.6,8l-0.1,0.1l0,0l-0.1,0.1c-0.1,0.1-0.1,0.3,0,0.4l0.3-0.3l0,0l0.1-0.1l0.1-0.1h0
			c0.1-0.1,0.1-0.3,0-0.4L17.8,7.9z"/>
		
			<rect x="17.3" y="12.1" transform="matrix(0.7093 0.7049 -0.7049 0.7093 13.7687 -8.6799)" class="st1" width="0.3" height="0.5"/>
		<path class="st1" d="M17.8,12.7l0.1-0.1l0.2-0.2h-0.4l-0.4,0.4C17.5,12.8,17.7,12.8,17.8,12.7L17.8,12.7z"/>
		<path class="st1" d="M19.4,10.7L19,11l0,0l-0.6,0.6l-0.3,0.2c-0.1,0.1-0.1,0.3,0,0.4l1.2-1.2C19.5,11,19.5,10.8,19.4,10.7
			L19.4,10.7z"/>
		<polygon class="st1" points="17.7,12.8 17.7,12.8 17.7,12.8 		"/>
		<path class="st1" d="M18.5,12l-0.8,0.8l0.4,0l0.4-0.4C18.6,12.3,18.6,12.1,18.5,12L18.5,12z"/>
		<polygon class="st1" points="18.2,12.9 18.2,13.3 18.4,13 18.4,12.6 		"/>
		<path class="st1" d="M18.6,10.9L18.6,10.9L18.6,10.9l0.8-0.8c0.1-0.1,0.1-0.3,0-0.4l0,0l-0.8,0.8C18.5,10.6,18.5,10.8,18.6,10.9z"
			/>
		<path class="st1" d="M18.9,11.7l-0.3,0.3h0.2l0,0c0,0,0.1,0,0.1,0C18.9,11.8,18.9,11.7,18.9,11.7L18.9,11.7z"/>
		<path class="st1" d="M13,7.7c-0.1-0.1-0.3-0.1-0.4,0l0.2,0.2L13,7.7z"/>
		<path class="st1" d="M13.7,7.5L13.7,7.5c-0.1-0.1-0.3-0.1-0.4,0l0,0l-0.8,0.8c-0.1,0.1-0.1,0.3,0,0.4L13.7,7.5z"/>
		<path class="st1" d="M12.7,8.6c0.1,0.1,0.3,0.1,0.4,0l0,0l0.4-0.4L13.7,8c0.1-0.1,0.1-0.3,0-0.4L13,8.3L12.7,8.6z"/>
		<path class="st1" d="M13,9.1L13,9.1l1.2-1.2c0.1-0.1,0.1-0.3,0-0.4l0,0L13,8.7C12.9,8.8,12.9,9,13,9.1z"/>
		<path class="st1" d="M14,8.2L14,8.2l-0.3,0.3l-0.2,0.2l-0.3,0.3l-0.2,0.2c0.1,0.1,0.3,0.1,0.4,0L14,8.6C14.1,8.5,14.1,8.4,14,8.2z
			"/>
		<path class="st1" d="M13.8,9.3L13.8,9.3l0.4-0.4L14,8.7l-0.6,0.6C13.5,9.4,13.7,9.4,13.8,9.3z"/>
		<path class="st1" d="M14.1,10l0.6-0.6l-0.2-0.2L13.7,10C13.8,10.1,14,10.1,14.1,10z"/>
		<polygon class="st1" points="13.7,10 13.7,10 13.7,10 		"/>
		<path class="st1" d="M13.9,9.7l0.6-0.6L14.2,9l-0.8,0.8l0,0C13.6,9.8,13.8,9.8,13.9,9.7z"/>
		<path class="st1" d="M12.7,9.9c-0.1-0.1-0.3-0.1-0.4,0v0l0.2,0.2L12.7,9.9z"/>
		<path class="st1" d="M12.1,11l0.5-0.5l0.5-0.5c0.1-0.1,0.1-0.3,0-0.4l-0.7,0.7l0,0l-0.3,0.3C12,10.7,12,10.8,12.1,11z"/>
		<polygon class="st1" points="12.2,10.6 12.2,10.6 12.2,10.6 		"/>
		<path class="st1" d="M13.4,10.2c0.1-0.1,0.1-0.3,0-0.4l0,0L12.2,11c-0.1,0.1-0.1,0.3,0,0.4l0,0L13.4,10.2L13.4,10.2z"/>
		<path class="st1" d="M12.9,10.8c-0.1,0.1-0.1,0.3,0,0.4l0,0l0.9-0.9l-0.4,0L12.9,10.8z"/>
		<path class="st1" d="M13.1,11.4L13.1,11.4l1.1-1.1l-0.4,0l-1.1,1.1l0,0C12.8,11.5,13,11.5,13.1,11.4z"/>
		<path class="st1" d="M14.6,11.9l0.5-0.5h-0.4l-0.1,0.1C14.5,11.6,14.5,11.7,14.6,11.9L14.6,11.9z"/>
		<path class="st1" d="M14.2,12.4l-1.1,1.1c0.1,0.1,0.3,0.1,0.4,0l1.1-1H14.2z"/>
		<path class="st1" d="M13.2,11.9L13.2,11.9l0.2,0.2l0.2-0.2C13.5,11.8,13.3,11.8,13.2,11.9z"/>
		<path class="st1" d="M14.1,11.9c0.1-0.1,0.1-0.3,0-0.4l0,0L13,12.6c-0.1,0.1-0.1,0.3,0,0.4l0,0L14.1,11.9L14.1,11.9z"/>
		<path class="st1" d="M13.4,13.1L13.4,13.1l0.7-0.7l0,0c0.1-0.1,0.1-0.3,0-0.4l-0.7,0.7C13.3,12.8,13.3,13,13.4,13.1z"/>
		<polygon class="st1" points="14.7,13.4 14.7,13.4 14.7,13.4 		"/>
		<path class="st1" d="M15.1,13.4l0.7-0.7l-0.2-0.2l-0.3,0.3l-0.6,0.6C14.8,13.5,14.9,13.5,15.1,13.4z"/>
		<path class="st1" d="M15.7,12.8L15.5,13l0,0l-0.3,0.3l0,0c0.1,0.1,0.3,0.1,0.4,0l0.3-0.3L15.7,12.8z"/>
		<path class="st1" d="M14.7,12.3l0.7-0.7l-0.2-0.2l-0.5,0.5C14.6,12,14.6,12.2,14.7,12.3L14.7,12.3z"/>
		<path class="st1" d="M14.3,13.1l1.4-1.3l-0.2-0.2l-1.6,1.6l0,0C14,13.2,14.2,13.2,14.3,13.1z"/>
		<path class="st1" d="M15.7,11.8L14,13.6l0,0c0.1,0.1,0.3,0.1,0.4,0l1.5-1.5L15.7,11.8z"/>
	</g>
	<g>
		<path class="st1" d="M15.7,21.2h0.5c0,0,0,0,0,0c0-0.1-0.1-0.3-0.3-0.3C15.8,20.9,15.7,21.1,15.7,21.2
			C15.7,21.2,15.7,21.2,15.7,21.2L15.7,21.2z"/>
		<path class="st1" d="M15.1,22.2H16V22h-1.2l0,0C14.8,22.1,14.9,22.2,15.1,22.2z"/>
		<path class="st1" d="M15.5,21.2c0-0.2-0.1-0.3-0.3-0.3l0,0h-0.4l0.3,0.3H15.5z"/>
		<path class="st1" d="M14.2,22.2h0.3l0-0.3C14.4,22,14.3,22.1,14.2,22.2L14.2,22.2z"/>
		<path class="st1" d="M15.5,22.3h-0.6l-0.7,0c0,0.2,0.2,0.3,0.3,0.3h1.3l0,0C15.8,22.4,15.7,22.3,15.5,22.3z"/>
		<polygon class="st1" points="17.2,23 17.2,23 17.2,23 		"/>
		<path class="st1" d="M14.6,23.3h2.2c0.2,0,0.3-0.1,0.3-0.3h-2.3L14.6,23.3z"/>
		<path class="st1" d="M17.1,20.9h-0.4v0c-0.2,0-0.3,0.1-0.3,0.3l0.4,0L17.1,20.9z"/>
		<polygon class="st1" points="16.4,21.6 16.4,21.6 16.7,21.3 16.7,21.3 15.1,21.3 15.4,21.6 		"/>
		<path class="st1" d="M16,22.6l1,0c0.2,0,0.3-0.1,0.3-0.3h0l-1.3,0V22.6z"/>
		<path class="st1" d="M16,22.2l0.8,0c0.2,0,0.3-0.1,0.3-0.3l0,0h-0.8L16,22.2z"/>
		<path class="st1" d="M17.3,22.7H15c0,0.2,0.1,0.3,0.3,0.3H17C17.2,22.9,17.3,22.8,17.3,22.7z"/>
		<rect x="14.1" y="23.8" class="st1" width="0" height="0"/>
		<path class="st1" d="M14.7,23.6L14.7,23.6l2.1,0c0.2,0,0.3-0.1,0.3-0.3l-0.3,0h-2.2l-0.4,0.4l0.2,0.2L14.7,23.6z"/>
		<path class="st1" d="M13.9,24.8l0.9-0.9l1.8,0c0.2,0,0.3-0.1,0.3-0.3h-2.2l-1.2,1.2C13.6,25,13.8,25,13.9,24.8z"/>
		<path class="st1" d="M14.4,24.8l0.5-0.5l1.4,0c0.2,0,0.3-0.1,0.3-0.3l-1.8,0L14,24.9C14.1,25,14.3,25,14.4,24.8z"/>
		<path class="st1" d="M14.9,24.8l0.2-0.2h1.6l-0.2-0.3H15l0,0l-0.5,0.5C14.6,25,14.8,25,14.9,24.8z"/>
		<path class="st1" d="M15.8,25.3l1.4,0L17,25.1l-1.5,0C15.5,25.2,15.6,25.3,15.8,25.3z"/>
		<path class="st1" d="M17,25l-0.2-0.3l-1.6,0c0,0.2,0.1,0.3,0.3,0.3L17,25z"/>
		<path class="st1" d="M15.9,28.5h-0.5c0,0.2,0.1,0.3,0.3,0.3H16L15.9,28.5L15.9,28.5L15.9,28.5z"/>
		<path class="st1" d="M16.8,27.8h-1.3c-0.2,0-0.3,0.1-0.3,0.3l0,0h0.9h0.9l0,0C17.1,27.9,16.9,27.8,16.8,27.8z"/>
		<path class="st1" d="M15.9,27.4c0-0.1-0.1-0.3-0.3-0.3v0.3L15.9,27.4L15.9,27.4z"/>
		<path class="st1" d="M15.5,27.5c-0.2,0-0.3,0.1-0.3,0.3l0,0h1.6c0.2,0,0.3-0.1,0.3-0.3l0,0h-1H15.5z"/>
		<path class="st1" d="M16,28.2h-1c-0.2,0-0.3,0.1-0.3,0.3l0,0h1.7c0.2,0,0.3-0.1,0.3-0.3l0,0H16L16,28.2z"/>
		<path class="st1" d="M15,21.9L15,21.9l1.2,0l0,0l0.5,0h0c0.2,0,0.3-0.1,0.3-0.3l0,0l-0.8,0l-0.9,0C15.2,21.6,15,21.7,15,21.9z"/>
		<polygon class="st1" points="16.3,26.4 16.3,26.4 16.3,26.4 		"/>
		<path class="st1" d="M16.3,26.7L16.3,26.7l0.2,0l0,0l0.6,0l0,0c0-0.1-0.1-0.3-0.3-0.3l-0.3,0l-0.2,0l-0.4,0c0,0.2,0.1,0.3,0.3,0.3
			H16.3z"/>
		<path class="st1" d="M16.8,26.4l0.3-0.3l-1.4,0c0,0.2,0.1,0.3,0.3,0.3L16.8,26.4z"/>
		<polygon class="st1" points="17.4,25.8 16.1,25.8 15.8,26 16.3,26 17.1,26 		"/>
		<path class="st1" d="M16.1,25.7L16.1,25.7l1.3,0l0,0c0-0.1-0.1-0.3-0.3-0.3l-1,0l0,0h-0.4C15.8,25.6,15.9,25.7,16.1,25.7z"/>
		<path class="st1" d="M17.2,26.8h-0.8h-0.5c0,0.2,0.1,0.3,0.3,0.3l0,0h0.2l1.1,0C17.5,26.9,17.4,26.8,17.2,26.8z"/>
		<path class="st1" d="M17,27.1l-0.6,0c-0.2,0-0.3,0.1-0.3,0.3l0.9,0h0.2c0.2,0,0.3-0.1,0.3-0.3L17,27.1L17,27.1z"/>
		<path class="st1" d="M17.9,24.8c0.1-0.1,0.1-0.3,0-0.4l-0.4,0.4l-0.3,0.3c0.1,0.1,0.3,0.1,0.4,0l0,0L17.9,24.8z"/>
		<path class="st1" d="M18.6,21.3v0.4l0.3-0.3C18.8,21.3,18.7,21.3,18.6,21.3z"/>
		<path class="st1" d="M18.6,24.1L18.6,24.1l0.7-0.7c0.1-0.1,0.1-0.3,0-0.4l0,0l-0.7,0.7C18.5,23.8,18.5,24,18.6,24.1z"/>
		<polygon class="st1" points="19.2,22.6 19.2,22.6 19.2,22.6 		"/>
		<path class="st1" d="M18.6,23.6L18.6,23.6l0.6-0.6c0.1-0.1,0.1-0.3,0-0.4l-0.6,0.6C18.5,23.3,18.5,23.5,18.6,23.6z"/>
		<path class="st1" d="M19.3,22l-1.1,1.1l0,0c0.1,0.1,0.3,0.1,0.4,0l0,0l0.6-0.6C19.4,22.3,19.4,22.2,19.3,22L19.3,22z"/>
		<path class="st1" d="M18.6,22.2l0.4-0.4l0.2-0.2c0.1-0.1,0.1-0.3,0-0.4l0,0l-0.7,0.7C18.5,21.9,18.5,22.1,18.6,22.2L18.6,22.2z"/>
		<path class="st1" d="M17.9,21L17.9,21l-0.6,0.6l0,0V22l0.6-0.6C18,21.3,18,21.1,17.9,21z"/>
		<path class="st1" d="M17.5,22.4c-0.1,0.1-0.1,0.3,0,0.4l0.7-0.7L17.9,22L17.5,22.4z"/>
		<path class="st1" d="M17.3,23.4l1.1-1l-0.2-0.2L17.4,23C17.2,23.1,17.2,23.3,17.3,23.4z"/>
		<path class="st1" d="M17,23.8c-0.1,0.1-0.1,0.3,0,0.4l2.3-2.3c0.1-0.1,0.1-0.3,0-0.4L17,23.8z"/>
		<path class="st1" d="M17.3,21.2C17.3,21.2,17.3,21.2,17.3,21.2l0,0.3l0.2-0.2C17.5,21.2,17.4,21.2,17.3,21.2z"/>
		<path class="st1" d="M17.9,23.4l-0.2,0.2l-0.5,0.5l-0.4,0.4c0.1,0.1,0.3,0.1,0.4,0l0,0l0.4-0.4l0.2-0.2c0,0,0,0,0,0
			C18,23.7,18,23.5,17.9,23.4L17.9,23.4z"/>
		<path class="st1" d="M17.7,24.1l-0.2,0.2l-0.2,0.2v0L17,24.8c0.1,0.1,0.3,0.1,0.4,0v0l0.3-0.3l0.2-0.2c0.1-0.1,0.1-0.3,0-0.4
			L17.7,24.1z"/>
		<path class="st1" d="M19.4,23.9l-0.2,0.2L18,25.3l-0.4,0.4c0.1,0.1,0.3,0.1,0.4,0h0l0.1-0.1l0.1-0.1l0.7-0.7l0.4-0.4
			C19.5,24.2,19.5,24,19.4,23.9L19.4,23.9z"/>
		<path class="st1" d="M17.9,25.4L17.9,25.4l0.2-0.2l0,0l0,0l0.4-0.4l0,0c-0.1-0.1-0.3-0.1-0.4,0l0,0l-0.2,0.2l-0.2,0.2l0,0
			l-0.2,0.2l0,0C17.6,25.5,17.7,25.5,17.9,25.4z"/>
		<path class="st1" d="M17.8,21.6L17.8,21.6l-0.2,0.2l-0.1,0.1l0,0L17.4,22c-0.1,0.1-0.1,0.3,0,0.4l0.3-0.3l0,0l0.1-0.1l0.1-0.1h0
			c0.1-0.1,0.1-0.3,0-0.4L17.8,21.6z"/>
		
			<rect x="17.3" y="25.8" transform="matrix(0.7093 0.7049 -0.7049 0.7093 23.4499 -4.6877)" class="st1" width="0.3" height="0.5"/>
		<path class="st1" d="M17.8,26.4l0.1-0.1l0.2-0.2h-0.4l-0.4,0.4C17.5,26.5,17.7,26.5,17.8,26.4L17.8,26.4z"/>
		<path class="st1" d="M19.4,24.4L19,24.8l0,0l-0.6,0.6l-0.3,0.2c-0.1,0.1-0.1,0.3,0,0.4l1.2-1.2C19.5,24.7,19.5,24.5,19.4,24.4
			L19.4,24.4z"/>
		<polygon class="st1" points="17.7,26.5 17.7,26.5 17.7,26.5 		"/>
		<path class="st1" d="M18.5,25.8l-0.8,0.8l0.4,0l0.4-0.4C18.6,26.1,18.6,25.9,18.5,25.8L18.5,25.8z"/>
		<polygon class="st1" points="18.2,26.6 18.2,27 18.4,26.7 18.4,26.3 		"/>
		<path class="st1" d="M18.6,24.6L18.6,24.6L18.6,24.6l0.8-0.8c0.1-0.1,0.1-0.3,0-0.4l0,0l-0.8,0.8C18.5,24.3,18.5,24.5,18.6,24.6z"
			/>
		<path class="st1" d="M18.9,25.4l-0.3,0.3h0.2l0,0c0,0,0.1,0,0.1,0C18.9,25.6,18.9,25.5,18.9,25.4L18.9,25.4z"/>
		<path class="st1" d="M13,21.4c-0.1-0.1-0.3-0.1-0.4,0l0.2,0.2L13,21.4z"/>
		<path class="st1" d="M13.7,21.2L13.7,21.2c-0.1-0.1-0.3-0.1-0.4,0l0,0l-0.8,0.8c-0.1,0.1-0.1,0.3,0,0.4L13.7,21.2z"/>
		<path class="st1" d="M12.7,22.3c0.1,0.1,0.3,0.1,0.4,0l0,0l0.4-0.4l0.2-0.2c0.1-0.1,0.1-0.3,0-0.4L13,22L12.7,22.3z"/>
		<path class="st1" d="M13,22.9L13,22.9l1.2-1.2c0.1-0.1,0.1-0.3,0-0.4l0,0L13,22.4C12.9,22.6,12.9,22.7,13,22.9z"/>
		<path class="st1" d="M14,22L14,22l-0.3,0.3l-0.2,0.2l-0.3,0.3L12.9,23c0.1,0.1,0.3,0.1,0.4,0l0.6-0.6C14.1,22.3,14.1,22.1,14,22z"
			/>
		<path class="st1" d="M13.8,23L13.8,23l0.4-0.4L14,22.5L13.4,23C13.5,23.1,13.7,23.1,13.8,23z"/>
		<path class="st1" d="M14.1,23.7l0.6-0.6l-0.2-0.2l-0.8,0.8C13.8,23.8,14,23.8,14.1,23.7z"/>
		<polygon class="st1" points="13.7,23.7 13.7,23.7 13.7,23.7 		"/>
		<path class="st1" d="M13.9,23.5l0.6-0.6l-0.2-0.2l-0.8,0.8l0,0C13.6,23.6,13.8,23.6,13.9,23.5z"/>
		<path class="st1" d="M12.7,23.6c-0.1-0.1-0.3-0.1-0.4,0v0l0.2,0.2L12.7,23.6z"/>
		<path class="st1" d="M12.1,24.7l0.5-0.5l0.5-0.5c0.1-0.1,0.1-0.3,0-0.4L12.5,24l0,0l-0.3,0.3C12,24.4,12,24.6,12.1,24.7z"/>
		<polygon class="st1" points="12.2,24.3 12.2,24.3 12.2,24.3 		"/>
		<path class="st1" d="M13.4,24c0.1-0.1,0.1-0.3,0-0.4l0,0l-1.2,1.2c-0.1,0.1-0.1,0.3,0,0.4l0,0L13.4,24L13.4,24z"/>
		<path class="st1" d="M12.9,24.5c-0.1,0.1-0.1,0.3,0,0.4l0,0l0.9-0.9l-0.4,0L12.9,24.5z"/>
		<path class="st1" d="M13.1,25.2L13.1,25.2l1.1-1.1l-0.4,0l-1.1,1.1l0,0C12.8,25.3,13,25.3,13.1,25.2z"/>
		<path class="st1" d="M14.6,25.6l0.5-0.5h-0.4l-0.1,0.1C14.5,25.3,14.5,25.5,14.6,25.6L14.6,25.6z"/>
		<path class="st1" d="M14.2,26.1l-1.1,1.1c0.1,0.1,0.3,0.1,0.4,0l1.1-1H14.2z"/>
		<path class="st1" d="M13.2,25.7L13.2,25.7l0.2,0.2l0.2-0.2C13.5,25.6,13.3,25.6,13.2,25.7z"/>
		<path class="st1" d="M14.1,25.6c0.1-0.1,0.1-0.3,0-0.4l0,0L13,26.4c-0.1,0.1-0.1,0.3,0,0.4l0,0L14.1,25.6L14.1,25.6z"/>
		<path class="st1" d="M13.4,26.8L13.4,26.8l0.7-0.7l0,0c0.1-0.1,0.1-0.3,0-0.4l-0.7,0.7C13.3,26.5,13.3,26.7,13.4,26.8z"/>
		<polygon class="st1" points="14.7,27.1 14.7,27.1 14.7,27.1 		"/>
		<path class="st1" d="M15.1,27.1l0.7-0.7l-0.2-0.2l-0.3,0.3l-0.6,0.6C14.8,27.2,14.9,27.2,15.1,27.1z"/>
		<path class="st1" d="M15.7,26.6l-0.2,0.2l0,0l-0.3,0.3l0,0c0.1,0.1,0.3,0.1,0.4,0l0.3-0.3L15.7,26.6z"/>
		<path class="st1" d="M14.7,26l0.7-0.7l-0.2-0.2l-0.5,0.5C14.6,25.7,14.6,25.9,14.7,26L14.7,26z"/>
		<path class="st1" d="M14.3,26.9l1.4-1.3l-0.2-0.2l-1.6,1.6l0,0C14,27,14.2,27,14.3,26.9z"/>
		<path class="st1" d="M15.7,25.6L14,27.3l0,0c0.1,0.1,0.3,0.1,0.4,0l1.5-1.5L15.7,25.6z"/>
	</g>
</g>
</svg>
