<?xml version="1.0" encoding="utf-8"?>
<!-- Generator: Adobe Illustrator 19.1.0, SVG Export Plug-In . SVG Version: 6.00 Build 0)  -->
<svg version="1.1" id="Layer_1" xmlns="http://www.w3.org/2000/svg" xmlns:xlink="http://www.w3.org/1999/xlink" x="0px" y="0px"
	 viewBox="0 0 50 50" style="enable-background:new 0 0 50 50;" xml:space="preserve">
<style type="text/css">
	.st0{fill:#FFFFFF;}
</style>
<g>
	<path class="st0" d="M41.8,14.2h-33c-0.4,0-0.8-0.3-0.8-0.8s0.3-0.8,0.8-0.8h33c0.4,0,0.8,0.3,0.8,0.8S42.2,14.2,41.8,14.2z"/>
	<path class="st0" d="M41.8,25.8h-33C8.3,25.8,8,25.4,8,25s0.3-0.8,0.8-0.8h33c0.4,0,0.8,0.3,0.8,0.8S42.2,25.8,41.8,25.8z"/>
	<path class="st0" d="M41.8,37.2h-33c-0.4,0-0.8-0.3-0.8-0.8s0.3-0.8,0.8-0.8h33c0.4,0,0.8,0.3,0.8,0.8S42.2,37.2,41.8,37.2z"/>
</g>
</svg>
