<?xml version="1.0" encoding="utf-8"?>
<!-- Generator: Adobe Illustrator 19.1.0, SVG Export Plug-In . SVG Version: 6.00 Build 0)  -->
<svg version="1.1" id="Layer_1" xmlns="http://www.w3.org/2000/svg" xmlns:xlink="http://www.w3.org/1999/xlink" x="0px" y="0px"
	 viewBox="0 0 50 50" style="enable-background:new 0 0 50 50;" xml:space="preserve">
<style type="text/css">
	.st0{fill:#93C01F;}
</style>
<g>
	<path class="st0" d="M10.5,23.6h0.9c0,0,0,0,0,0c0-0.3-0.2-0.5-0.5-0.5C10.7,23.1,10.5,23.3,10.5,23.6
		C10.5,23.6,10.5,23.6,10.5,23.6L10.5,23.6z"/>
	<path class="st0" d="M9.5,25.5H11V25H8.9l0,0C8.9,25.3,9.2,25.5,9.5,25.5z"/>
	<path class="st0" d="M10.1,23.6c0-0.3-0.3-0.5-0.6-0.5l0,0H8.9l0.5,0.5H10.1z"/>
	<path class="st0" d="M7.9,25.5h0.6l0-0.5C8.2,25,7.9,25.2,7.9,25.5L7.9,25.5z"/>
	<path class="st0" d="M10.3,25.6H9.1l-1.2,0c0.1,0.3,0.3,0.5,0.6,0.5h2.4l0,0C10.8,25.8,10.6,25.6,10.3,25.6z"/>
	<polygon class="st0" points="13.3,26.9 13.3,26.9 13.3,26.9 	"/>
	<path class="st0" d="M8.6,27.4h4.1c0.3,0,0.5-0.2,0.6-0.5H9.1L8.6,27.4z"/>
	<path class="st0" d="M13.1,23.1h-0.7v0c-0.3,0-0.5,0.2-0.6,0.5l0.7,0L13.1,23.1z"/>
	<polygon class="st0" points="11.9,24.2 11.9,24.2 12.4,23.7 12.4,23.7 9.5,23.7 10,24.2 	"/>
	<path class="st0" d="M11,26.1l1.8,0c0.3,0,0.5-0.2,0.6-0.5h0l-2.4,0V26.1z"/>
	<path class="st0" d="M11.2,25.5l1.4,0c0.3,0,0.5-0.2,0.6-0.5l0,0h-1.5L11.2,25.5z"/>
	<path class="st0" d="M13.6,26.3H9.3c0,0.3,0.3,0.5,0.6,0.5H13C13.3,26.8,13.5,26.5,13.6,26.3z"/>
	<rect x="7.7" y="28.3" class="st0" width="0" height="0"/>
	<path class="st0" d="M8.7,28L8.7,28l3.8,0c0.3,0,0.5-0.2,0.6-0.5l-0.5,0H8.5l-0.8,0.8L8,28.7L8.7,28z"/>
	<path class="st0" d="M7.3,30.3L9,28.6l3.2,0c0.3,0,0.5-0.2,0.6-0.5h-4l-2.2,2.2C6.8,30.5,7.1,30.5,7.3,30.3z"/>
	<path class="st0" d="M8.2,30.3l1-1l2.6,0c0.3,0,0.5-0.2,0.6-0.5l-3.4,0l-1.5,1.5C7.7,30.5,8,30.5,8.2,30.3z"/>
	<path class="st0" d="M9.1,30.3l0.4-0.4h3l-0.4-0.5H9.2l0,0l-0.9,0.9C8.6,30.5,8.9,30.5,9.1,30.3z"/>
	<path class="st0" d="M10.7,31.2l2.6,0l-0.4-0.5l-2.8,0C10.1,31,10.4,31.2,10.7,31.2z"/>
	<path class="st0" d="M12.9,30.5L12.5,30l-3,0c0,0.3,0.3,0.5,0.6,0.5L12.9,30.5z"/>
	<path class="st0" d="M11,37h-0.9c0,0.3,0.3,0.5,0.5,0.5H11L11,37L11,37L11,37z"/>
	<path class="st0" d="M12.5,35.7h-2.3c-0.3,0-0.5,0.2-0.6,0.5l0,0h1.7h1.7l0,0C13.1,35.9,12.8,35.7,12.5,35.7z"/>
	<path class="st0" d="M11,35c0-0.3-0.2-0.5-0.5-0.5V35L11,35L11,35z"/>
	<path class="st0" d="M10.2,35.1c-0.3,0-0.5,0.2-0.6,0.5l0,0h2.9c0.3,0,0.5-0.2,0.6-0.5l0,0h-1.8H10.2z"/>
	<path class="st0" d="M11.1,36.3H9.3c-0.3,0-0.5,0.2-0.6,0.5l0,0h3c0.3,0,0.5-0.2,0.6-0.5l0,0H11.1L11.1,36.3z"/>
	<path class="st0" d="M9.3,24.9L9.3,24.9l2.3,0l0,0l0.9,0h0c0.3,0,0.5-0.2,0.6-0.5l0,0l-1.4,0l-1.7,0C9.6,24.4,9.3,24.6,9.3,24.9z"
		/>
	<polygon class="st0" points="11.6,33.2 11.6,33.2 11.6,33.2 	"/>
	<path class="st0" d="M11.6,33.7L11.6,33.7l0.4,0l0,0l1.1,0l0,0c0-0.3-0.3-0.5-0.5-0.5l-0.6,0l-0.4,0l-0.8,0c0,0.3,0.3,0.5,0.6,0.5
		H11.6z"/>
	<path class="st0" d="M12.6,33.1l0.5-0.5l-2.5,0c0,0.3,0.3,0.5,0.6,0.5L12.6,33.1z"/>
	<polygon class="st0" points="13.7,31.9 11.2,31.9 10.7,32.4 11.7,32.4 13.2,32.4 	"/>
	<path class="st0" d="M11.3,31.8L11.3,31.8l2.4,0l0,0c0-0.3-0.3-0.5-0.5-0.5l-1.8,0l0,0h-0.7C10.8,31.6,11,31.8,11.3,31.8z"/>
	<path class="st0" d="M13.3,33.8h-1.4h-1c0,0.3,0.3,0.5,0.6,0.5l0,0h0.4l2,0C13.9,34,13.6,33.8,13.3,33.8z"/>
	<path class="st0" d="M12.9,34.5l-1.1,0c-0.3,0-0.5,0.2-0.6,0.5l1.7,0h0.4c0.3,0,0.5-0.2,0.6-0.5L12.9,34.5L12.9,34.5z"/>
	<path class="st0" d="M14.6,30.2c0.2-0.2,0.2-0.5,0-0.8L14,30.1l-0.6,0.6c0.2,0.2,0.6,0.2,0.8,0l0,0L14.6,30.2z"/>
	<path class="st0" d="M15.9,23.7v0.8l0.5-0.5C16.3,23.8,16.1,23.7,15.9,23.7z"/>
	<path class="st0" d="M15.9,28.9L15.9,28.9l1.3-1.3c0.2-0.2,0.2-0.5,0-0.8l0,0l-1.3,1.3C15.7,28.4,15.7,28.7,15.9,28.9z"/>
	<polygon class="st0" points="17.1,26.2 17.1,26.2 17.1,26.2 	"/>
	<path class="st0" d="M15.9,28L15.9,28l1.1-1.1c0.2-0.2,0.2-0.5,0-0.8l-1.1,1.1C15.7,27.5,15.7,27.8,15.9,28z"/>
	<path class="st0" d="M17.2,25.1L15.3,27l0,0c0.2,0.2,0.6,0.2,0.8,0l0,0l1.1-1.1C17.4,25.7,17.4,25.3,17.2,25.1L17.2,25.1z"/>
	<path class="st0" d="M15.9,25.4l0.8-0.8l0.4-0.4c0.2-0.2,0.2-0.5,0-0.8l0,0l-1.2,1.2C15.7,24.9,15.7,25.2,15.9,25.4L15.9,25.4z"/>
	<path class="st0" d="M14.7,23.2L14.7,23.2l-1.2,1.1l0,0v0.7l1.1-1.1C14.8,23.8,14.8,23.4,14.7,23.2z"/>
	<path class="st0" d="M13.9,25.8c-0.2,0.2-0.2,0.5,0,0.8l1.2-1.2L14.7,25L13.9,25.8z"/>
	<path class="st0" d="M13.6,27.7l1.9-1.9l-0.4-0.4l-1.5,1.5C13.4,27.1,13.4,27.5,13.6,27.7z"/>
	<path class="st0" d="M13,28.4c-0.2,0.2-0.2,0.5,0,0.8l4.2-4.2c0.2-0.2,0.2-0.5,0-0.8L13,28.4z"/>
	<path class="st0" d="M13.6,23.6C13.5,23.6,13.5,23.6,13.6,23.6l-0.1,0.6l0.4-0.4C13.9,23.6,13.7,23.6,13.6,23.6z"/>
	<path class="st0" d="M14.7,27.6L14.3,28l-1,1l-0.6,0.6c0.2,0.2,0.6,0.2,0.8,0l0,0l0.8-0.8l0.4-0.4c0,0,0,0,0,0
		C14.8,28.2,14.8,27.9,14.7,27.6L14.7,27.6z"/>
	<path class="st0" d="M14.3,28.9l-0.5,0.4l-0.4,0.4v0L13,30.2c0.2,0.2,0.6,0.2,0.8,0v0l0.5-0.5l0.4-0.4c0.2-0.2,0.2-0.5,0-0.8
		L14.3,28.9z"/>
	<path class="st0" d="M17.4,28.5L17,28.9l-2.3,2.3l-0.6,0.6c0.2,0.2,0.6,0.2,0.8,0h0l0.2-0.2l0.2-0.2l1.4-1.3l0.7-0.7
		C17.6,29.1,17.6,28.7,17.4,28.5L17.4,28.5z"/>
	<path class="st0" d="M14.5,31.2L14.5,31.2l0.4-0.4l0.1-0.1l0,0l0.8-0.7l0,0c-0.2-0.2-0.6-0.2-0.8,0l0,0l-0.4,0.3l-0.5,0.5l0,0
		l-0.4,0.4l0,0C14,31.4,14.3,31.4,14.5,31.2z"/>
	<path class="st0" d="M14.4,24.4L14.4,24.4l-0.3,0.3l-0.2,0.2l0,0l-0.2,0.2c-0.2,0.2-0.2,0.5,0,0.8l0.5-0.5l0.1-0.1l0.2-0.2l0.2-0.2
		h0c0.2-0.2,0.2-0.5,0-0.8L14.4,24.4z"/>
	<polygon class="st0" points="14.2,32.4 13.9,32 13.2,32.7 13.5,33.1 	"/>
	<path class="st0" d="M14.4,33.1l0.2-0.2l0.4-0.4h-0.7l-0.7,0.6C13.9,33.3,14.2,33.3,14.4,33.1L14.4,33.1z"/>
	<path class="st0" d="M17.3,29.5l-0.7,0.7l0,0l-1.1,1.1l-0.5,0.5c-0.2,0.2-0.2,0.5,0,0.8l2.2-2.2C17.5,30,17.5,29.7,17.3,29.5
		L17.3,29.5z"/>
	<polygon class="st0" points="14.3,33.4 14.3,33.4 14.3,33.4 	"/>
	<path class="st0" d="M15.7,31.9l-1.4,1.4l0.7,0l0.7-0.7C15.9,32.5,15.9,32.2,15.7,31.9L15.7,31.9z"/>
	<polygon class="st0" points="15.1,33.5 15.1,34.2 15.6,33.7 15.6,33 	"/>
	<path class="st0" d="M15.9,29.8L15.9,29.8L15.9,29.8l1.5-1.5c0.2-0.2,0.2-0.5,0-0.8l0,0l-1.5,1.5C15.7,29.3,15.7,29.6,15.9,29.8z"
		/>
	<path class="st0" d="M16.4,31.3l-0.5,0.5h0.3l0,0c0.1,0,0.2,0,0.2-0.1C16.5,31.6,16.5,31.4,16.4,31.3L16.4,31.3z"/>
	<path class="st0" d="M5.6,24c-0.2-0.2-0.6-0.2-0.8,0l0.4,0.4L5.6,24z"/>
	<path class="st0" d="M6.8,23.6L6.8,23.6c-0.2-0.2-0.6-0.2-0.8,0l0,0l-1.5,1.5c-0.2,0.2-0.2,0.5,0,0.8L6.8,23.6z"/>
	<path class="st0" d="M5,25.7c0.2,0.2,0.6,0.2,0.8,0l0,0l0.8-0.8l0.4-0.4c0.2-0.2,0.2-0.5,0-0.8L5.6,25L5,25.7z"/>
	<path class="st0" d="M5.6,26.6L5.6,26.6l2.2-2.2c0.2-0.2,0.2-0.5,0-0.8l0,0l-2.2,2.2C5.5,26.1,5.5,26.4,5.6,26.6z"/>
	<path class="st0" d="M7.5,25L7.5,25l-0.5,0.5l-0.4,0.4l-0.6,0.6l-0.4,0.4c0.2,0.2,0.6,0.2,0.8,0l1.1-1.1C7.6,25.5,7.6,25.2,7.5,25z
		"/>
	<path class="st0" d="M7.1,26.9L7.1,26.9l0.7-0.7l-0.4-0.4L6.4,27C6.6,27.1,6.9,27.1,7.1,26.9z"/>
	<path class="st0" d="M7.6,28.2l1.1-1.1l-0.4-0.4l-1.4,1.4C7.1,28.4,7.4,28.4,7.6,28.2z"/>
	<polygon class="st0" points="6.9,28.2 6.9,28.2 6.9,28.2 	"/>
	<path class="st0" d="M7.2,27.7l1.1-1.1l-0.4-0.4l-1.4,1.4l0,0C6.7,27.9,7,27.9,7.2,27.7z"/>
	<path class="st0" d="M5.1,28c-0.2-0.2-0.6-0.2-0.8,0v0l0.4,0.4L5.1,28z"/>
	<path class="st0" d="M4,30L5,29.1l1-1c0.2-0.2,0.2-0.5,0-0.8l-1.3,1.3l-0.1,0.1l-0.5,0.5C3.9,29.4,3.9,29.8,4,30z"/>
	<polygon class="st0" points="4.1,29.2 4.1,29.2 4.1,29.2 	"/>
	<path class="st0" d="M6.3,28.7c0.2-0.2,0.2-0.5,0-0.8l0,0l-2.2,2.2c-0.2,0.2-0.2,0.5,0,0.8l0,0L6.3,28.7L6.3,28.7z"/>
	<path class="st0" d="M5.4,29.7c-0.2,0.2-0.2,0.5,0,0.8l0,0L7,28.8l-0.7,0L5.4,29.7z"/>
	<path class="st0" d="M5.9,30.8L5.9,30.8l2-2l-0.7,0l-2.1,2.1l0,0C5.3,31.1,5.7,31,5.9,30.8z"/>
	<path class="st0" d="M8.6,31.6l1-1H8.9l-0.2,0.2C8.4,31.1,8.4,31.4,8.6,31.6L8.6,31.6z"/>
	<path class="st0" d="M7.8,32.6l-2,2c0.2,0.2,0.6,0.2,0.8,0l1.9-1.9H7.8z"/>
	<path class="st0" d="M5.9,31.8L5.9,31.8l0.4,0.4l0.4-0.4C6.5,31.6,6.1,31.6,5.9,31.8z"/>
	<path class="st0" d="M7.7,31.6c0.2-0.2,0.2-0.5,0-0.8l0,0L5.6,33c-0.2,0.2-0.2,0.5,0,0.8l0,0L7.7,31.6L7.7,31.6z"/>
	<path class="st0" d="M6.3,33.9L6.3,33.9l1.4-1.4l0,0c0.2-0.2,0.2-0.5,0-0.7l-1.4,1.4C6.1,33.4,6.1,33.7,6.3,33.9z"/>
	<polygon class="st0" points="8.6,34.4 8.6,34.4 8.6,34.4 	"/>
	<path class="st0" d="M9.4,34.4l1.3-1.3l-0.4-0.4l-0.6,0.6l-1.1,1.1C8.9,34.6,9.2,34.6,9.4,34.4z"/>
	<path class="st0" d="M10.5,33.4l-0.3,0.3l0,0l-0.6,0.6l0,0c0.2,0.2,0.5,0.2,0.7,0l0.6-0.6L10.5,33.4z"/>
	<path class="st0" d="M8.7,32.4l1.4-1.3l-0.4-0.4l-1,0.9C8.6,31.8,8.6,32.2,8.7,32.4L8.7,32.4z"/>
	<path class="st0" d="M8.1,34l2.5-2.5l-0.4-0.4L7.3,34l0,0C7.5,34.2,7.8,34.2,8.1,34z"/>
	<path class="st0" d="M10.6,31.6l-3.2,3.2l0,0c0.2,0.2,0.6,0.2,0.8,0l2.8-2.8L10.6,31.6z"/>
</g>
<g>
	<path class="st0" d="M39,23.6H40c0,0,0,0,0,0c0-0.3-0.2-0.5-0.5-0.5C39.3,23.1,39,23.3,39,23.6C39,23.6,39,23.6,39,23.6L39,23.6z"
		/>
	<path class="st0" d="M38,25.5h1.6V25h-2.1l0,0C37.4,25.3,37.7,25.5,38,25.5z"/>
	<path class="st0" d="M38.7,23.6c0-0.3-0.3-0.5-0.6-0.5l0,0h-0.7l0.5,0.5H38.7z"/>
	<path class="st0" d="M36.4,25.5H37l0-0.5C36.7,25,36.5,25.2,36.4,25.5L36.4,25.5z"/>
	<path class="st0" d="M38.8,25.6h-1.2l-1.2,0c0.1,0.3,0.3,0.5,0.6,0.5h2.4l0,0C39.4,25.8,39.1,25.6,38.8,25.6z"/>
	<polygon class="st0" points="41.8,26.9 41.8,26.9 41.8,26.9 	"/>
	<path class="st0" d="M37.2,27.4h4.1c0.3,0,0.5-0.2,0.6-0.5h-4.2L37.2,27.4z"/>
	<path class="st0" d="M41.6,23.1H41v0c-0.3,0-0.5,0.2-0.6,0.5l0.7,0L41.6,23.1z"/>
	<polygon class="st0" points="40.4,24.2 40.4,24.2 41,23.7 41,23.7 38.1,23.7 38.6,24.2 	"/>
	<path class="st0" d="M39.6,26.1l1.8,0c0.3,0,0.5-0.2,0.6-0.5h0l-2.4,0V26.1z"/>
	<path class="st0" d="M39.7,25.5l1.4,0c0.3,0,0.5-0.2,0.6-0.5l0,0h-1.5L39.7,25.5z"/>
	<path class="st0" d="M42.1,26.3h-4.3c0,0.3,0.3,0.5,0.6,0.5h3.1C41.8,26.8,42.1,26.5,42.1,26.3z"/>
	<rect x="36.2" y="28.3" class="st0" width="0" height="0"/>
	<path class="st0" d="M37.2,28L37.2,28l3.8,0c0.3,0,0.5-0.2,0.6-0.5l-0.5,0H37l-0.8,0.8l0.4,0.4L37.2,28z"/>
	<path class="st0" d="M35.9,30.3l1.6-1.6l3.2,0c0.3,0,0.5-0.2,0.6-0.5h-4l-2.2,2.2C35.3,30.5,35.7,30.5,35.9,30.3z"/>
	<path class="st0" d="M36.7,30.3l1-1l2.6,0c0.3,0,0.5-0.2,0.6-0.5l-3.4,0L36,30.3C36.2,30.5,36.5,30.5,36.7,30.3z"/>
	<path class="st0" d="M37.6,30.3l0.4-0.4h3l-0.4-0.5h-2.8l0,0l-0.9,0.9C37.1,30.5,37.4,30.5,37.6,30.3z"/>
	<path class="st0" d="M39.2,31.2l2.6,0l-0.4-0.5l-2.8,0C38.7,31,38.9,31.2,39.2,31.2z"/>
	<path class="st0" d="M41.4,30.5L41,30l-3,0c0,0.3,0.3,0.5,0.6,0.5L41.4,30.5z"/>
	<path class="st0" d="M39.5,37h-0.9c0,0.3,0.3,0.5,0.5,0.5h0.4L39.5,37L39.5,37L39.5,37z"/>
	<path class="st0" d="M41.1,35.7h-2.3c-0.3,0-0.5,0.2-0.6,0.5l0,0h1.7h1.7l0,0C41.6,35.9,41.4,35.7,41.1,35.7z"/>
	<path class="st0" d="M39.5,35c0-0.3-0.2-0.5-0.5-0.5V35L39.5,35L39.5,35z"/>
	<path class="st0" d="M38.8,35.1c-0.3,0-0.5,0.2-0.6,0.5l0,0h2.9c0.3,0,0.5-0.2,0.6-0.5l0,0h-1.8H38.8z"/>
	<path class="st0" d="M39.6,36.3h-1.8c-0.3,0-0.5,0.2-0.6,0.5l0,0h3c0.3,0,0.5-0.2,0.6-0.5l0,0H39.6L39.6,36.3z"/>
	<path class="st0" d="M37.8,24.9L37.8,24.9l2.3,0l0,0l0.9,0h0c0.3,0,0.5-0.2,0.6-0.5l0,0l-1.4,0l-1.7,0
		C38.1,24.4,37.9,24.6,37.8,24.9z"/>
	<polygon class="st0" points="40.1,33.2 40.1,33.2 40.1,33.2 	"/>
	<path class="st0" d="M40.1,33.7L40.1,33.7l0.4,0l0,0l1.1,0l0,0c0-0.3-0.3-0.5-0.5-0.5l-0.6,0l-0.4,0l-0.8,0c0,0.3,0.3,0.5,0.6,0.5
		H40.1z"/>
	<path class="st0" d="M41.1,33.1l0.5-0.5l-2.5,0c0,0.3,0.3,0.5,0.6,0.5L41.1,33.1z"/>
	<polygon class="st0" points="42.3,31.9 39.8,31.9 39.2,32.4 40.3,32.4 41.7,32.4 	"/>
	<path class="st0" d="M39.8,31.8L39.8,31.8l2.4,0l0,0c0-0.3-0.3-0.5-0.5-0.5l-1.8,0l0,0h-0.7C39.3,31.6,39.5,31.8,39.8,31.8z"/>
	<path class="st0" d="M41.9,33.8h-1.4h-1c0,0.3,0.3,0.5,0.6,0.5l0,0h0.4l2,0C42.4,34,42.1,33.8,41.9,33.8z"/>
	<path class="st0" d="M41.4,34.5l-1.1,0c-0.3,0-0.5,0.2-0.6,0.5l1.7,0h0.4c0.3,0,0.5-0.2,0.6-0.5L41.4,34.5L41.4,34.5z"/>
	<path class="st0" d="M43.2,30.2c0.2-0.2,0.2-0.5,0-0.8l-0.7,0.7l-0.6,0.6c0.2,0.2,0.6,0.2,0.8,0l0,0L43.2,30.2z"/>
	<path class="st0" d="M44.4,23.7v0.8l0.5-0.5C44.8,23.8,44.6,23.7,44.4,23.7z"/>
	<path class="st0" d="M44.4,28.9L44.4,28.9l1.3-1.3c0.2-0.2,0.2-0.5,0-0.8l0,0l-1.3,1.3C44.3,28.4,44.2,28.7,44.4,28.9z"/>
	<polygon class="st0" points="45.6,26.2 45.6,26.2 45.6,26.2 	"/>
	<path class="st0" d="M44.4,28L44.4,28l1.1-1.1c0.2-0.2,0.2-0.5,0-0.8l-1.1,1.1C44.3,27.5,44.2,27.8,44.4,28z"/>
	<path class="st0" d="M45.8,25.1L43.8,27l0,0c0.2,0.2,0.6,0.2,0.8,0l0,0l1.1-1.1C45.9,25.7,45.9,25.3,45.8,25.1L45.8,25.1z"/>
	<path class="st0" d="M44.4,25.4l0.8-0.8l0.4-0.4c0.2-0.2,0.2-0.5,0-0.8l0,0l-1.2,1.2C44.2,24.9,44.2,25.2,44.4,25.4L44.4,25.4z"/>
	<path class="st0" d="M43.2,23.2L43.2,23.2L42,24.3l0,0v0.7l1.1-1.1C43.4,23.8,43.4,23.4,43.2,23.2z"/>
	<path class="st0" d="M42.4,25.8c-0.2,0.2-0.2,0.5,0,0.8l1.2-1.2L43.2,25L42.4,25.8z"/>
	<path class="st0" d="M42.1,27.7l1.9-1.9l-0.4-0.4l-1.5,1.5C41.9,27.1,41.9,27.5,42.1,27.7z"/>
	<path class="st0" d="M41.6,28.4c-0.2,0.2-0.2,0.5,0,0.8l4.2-4.2c0.2-0.2,0.2-0.5,0-0.8L41.6,28.4z"/>
	<path class="st0" d="M42.1,23.6C42.1,23.6,42.1,23.6,42.1,23.6L42,24.2l0.4-0.4C42.4,23.6,42.2,23.6,42.1,23.6z"/>
	<path class="st0" d="M43.2,27.6L42.8,28l-1,1l-0.6,0.6c0.2,0.2,0.6,0.2,0.8,0l0,0l0.8-0.8l0.4-0.4c0,0,0,0,0,0
		C43.4,28.2,43.4,27.9,43.2,27.6L43.2,27.6z"/>
	<path class="st0" d="M42.8,28.9l-0.5,0.4L42,29.7v0l-0.5,0.5c0.2,0.2,0.6,0.2,0.8,0v0l0.5-0.5l0.4-0.4c0.2-0.2,0.2-0.5,0-0.8
		L42.8,28.9z"/>
	<path class="st0" d="M45.9,28.5l-0.4,0.4l-2.3,2.3l-0.6,0.6c0.2,0.2,0.6,0.2,0.8,0h0l0.2-0.2l0.2-0.2l1.4-1.3l0.7-0.7
		C46.1,29.1,46.1,28.7,45.9,28.5L45.9,28.5z"/>
	<path class="st0" d="M43.1,31.2L43.1,31.2l0.4-0.4l0.1-0.1l0,0l0.8-0.7l0,0c-0.2-0.2-0.6-0.2-0.8,0l0,0l-0.4,0.3l-0.5,0.5l0,0
		l-0.4,0.4l0,0C42.5,31.4,42.8,31.4,43.1,31.2z"/>
	<path class="st0" d="M42.9,24.4L42.9,24.4l-0.3,0.3l-0.2,0.2l0,0l-0.2,0.2c-0.2,0.2-0.2,0.5,0,0.8l0.5-0.5l0.1-0.1L43,25l0.2-0.2h0
		c0.2-0.2,0.2-0.5,0-0.8L42.9,24.4z"/>
	<polygon class="st0" points="42.7,32.4 42.4,32 41.7,32.7 42.1,33.1 	"/>
	<path class="st0" d="M42.9,33.1l0.2-0.2l0.4-0.4h-0.7l-0.7,0.6C42.4,33.3,42.7,33.3,42.9,33.1L42.9,33.1z"/>
	<path class="st0" d="M45.8,29.5l-0.7,0.7l0,0l-1.1,1.1l-0.5,0.5c-0.2,0.2-0.2,0.5,0,0.8l2.2-2.2C46,30,46,29.7,45.8,29.5L45.8,29.5
		z"/>
	<polygon class="st0" points="42.8,33.4 42.8,33.4 42.8,33.4 	"/>
	<path class="st0" d="M44.3,31.9l-1.4,1.4l0.7,0l0.7-0.7C44.4,32.5,44.5,32.2,44.3,31.9L44.3,31.9z"/>
	<polygon class="st0" points="43.6,33.5 43.6,34.2 44.1,33.7 44.1,33 	"/>
	<path class="st0" d="M44.4,29.8L44.4,29.8L44.4,29.8l1.5-1.5c0.2-0.2,0.2-0.5,0-0.8l0,0l-1.5,1.5C44.2,29.3,44.2,29.6,44.4,29.8z"
		/>
	<path class="st0" d="M44.9,31.3l-0.5,0.5h0.3l0,0c0.1,0,0.2,0,0.2-0.1C45,31.6,45,31.4,44.9,31.3L44.9,31.3z"/>
	<path class="st0" d="M34.1,24c-0.2-0.2-0.6-0.2-0.8,0l0.4,0.4L34.1,24z"/>
	<path class="st0" d="M35.4,23.6L35.4,23.6c-0.2-0.2-0.6-0.2-0.8,0l0,0l-1.5,1.5c-0.2,0.2-0.2,0.5,0,0.8L35.4,23.6z"/>
	<path class="st0" d="M33.5,25.7c0.2,0.2,0.6,0.2,0.8,0l0,0l0.8-0.8l0.4-0.4c0.2-0.2,0.2-0.5,0-0.8L34.1,25L33.5,25.7z"/>
	<path class="st0" d="M34.2,26.6L34.2,26.6l2.2-2.2c0.2-0.2,0.2-0.5,0-0.8l0,0l-2.2,2.2C34,26.1,34,26.4,34.2,26.6z"/>
	<path class="st0" d="M36,25L36,25l-0.5,0.5L35,25.9l-0.6,0.6L34,26.9c0.2,0.2,0.6,0.2,0.8,0l1.1-1.1C36.1,25.5,36.2,25.2,36,25z"/>
	<path class="st0" d="M35.6,26.9L35.6,26.9l0.7-0.7L36,25.9L34.9,27C35.1,27.1,35.4,27.1,35.6,26.9z"/>
	<path class="st0" d="M36.2,28.2l1.1-1.1l-0.4-0.4l-1.4,1.4C35.6,28.4,36,28.4,36.2,28.2z"/>
	<polygon class="st0" points="35.4,28.2 35.4,28.2 35.4,28.2 	"/>
	<path class="st0" d="M35.7,27.7l1.1-1.1l-0.4-0.4L35,27.8l0,0C35.2,27.9,35.5,27.9,35.7,27.7z"/>
	<path class="st0" d="M33.7,28c-0.2-0.2-0.6-0.2-0.8,0v0l0.4,0.4L33.7,28z"/>
	<path class="st0" d="M32.6,30l0.9-0.9l1-1c0.2-0.2,0.2-0.5,0-0.8l-1.3,1.3l-0.1,0.1l-0.5,0.5C32.4,29.4,32.4,29.8,32.6,30z"/>
	<polygon class="st0" points="32.6,29.2 32.6,29.2 32.6,29.2 	"/>
	<path class="st0" d="M34.8,28.7c0.2-0.2,0.2-0.5,0-0.8l0,0l-2.2,2.2c-0.2,0.2-0.2,0.5,0,0.8l0,0L34.8,28.7L34.8,28.7z"/>
	<path class="st0" d="M33.9,29.7c-0.2,0.2-0.2,0.5,0,0.8l0,0l1.6-1.6l-0.7,0L33.9,29.7z"/>
	<path class="st0" d="M34.4,30.8L34.4,30.8l2-2l-0.7,0l-2.1,2.1l0,0C33.8,31.1,34.2,31,34.4,30.8z"/>
	<path class="st0" d="M37.1,31.6l1-1h-0.7l-0.2,0.2C36.9,31.1,36.9,31.4,37.1,31.6L37.1,31.6z"/>
	<path class="st0" d="M36.3,32.6l-2,2c0.2,0.2,0.6,0.2,0.8,0l1.9-1.9H36.3z"/>
	<path class="st0" d="M34.4,31.8L34.4,31.8l0.4,0.4l0.4-0.4C35,31.6,34.6,31.6,34.4,31.8z"/>
	<path class="st0" d="M36.2,31.6c0.2-0.2,0.2-0.5,0-0.8l0,0L34.1,33c-0.2,0.2-0.2,0.5,0,0.8l0,0L36.2,31.6L36.2,31.6z"/>
	<path class="st0" d="M34.8,33.9L34.8,33.9l1.4-1.4l0,0c0.2-0.2,0.2-0.5,0-0.7l-1.4,1.4C34.7,33.4,34.6,33.7,34.8,33.9z"/>
	<polygon class="st0" points="37.2,34.4 37.2,34.4 37.2,34.4 	"/>
	<path class="st0" d="M37.9,34.4l1.3-1.3l-0.4-0.4l-0.6,0.6l-1.1,1.1C37.4,34.6,37.7,34.6,37.9,34.4z"/>
	<path class="st0" d="M39.1,33.4l-0.3,0.3l0,0l-0.6,0.6l0,0c0.2,0.2,0.5,0.2,0.7,0l0.6-0.6L39.1,33.4z"/>
	<path class="st0" d="M37.3,32.4l1.4-1.3l-0.4-0.4l-1,0.9C37.1,31.8,37.1,32.2,37.3,32.4L37.3,32.4z"/>
	<path class="st0" d="M36.6,34l2.5-2.5l-0.4-0.4L35.8,34l0,0C36,34.2,36.4,34.2,36.6,34z"/>
	<path class="st0" d="M39.1,31.6l-3.2,3.2l0,0c0.2,0.2,0.6,0.2,0.8,0l2.8-2.8L39.1,31.6z"/>
</g>
<g>
	<path class="st0" d="M24.1,30H10.8c-0.2,0-0.3-0.1-0.4-0.2c-0.1-0.1-0.1-0.3,0-0.5L17,16c0.1-0.2,0.2-0.3,0.4-0.3h18
		c0.2,0,0.4,0.1,0.4,0.3c0.1,0.2,0.1,0.4-0.1,0.5L24.4,29.8C24.3,29.9,24.2,30,24.1,30z M11.5,29h12.3l10.6-12.3H17.7L11.5,29z"/>
	<path class="st0" d="M39.2,30c-0.2,0-0.4-0.1-0.4-0.3C35.5,20.3,34.4,13,34.1,11c-2.7,0.3-4.6-0.1-5.6-1.1c-0.2-0.2-0.2-0.5,0-0.7
		s0.5-0.2,0.7,0c0.8,0.8,2.7,1.1,5.3,0.8c0.1,0,0.3,0,0.4,0.1c0.1,0.1,0.2,0.2,0.2,0.3c0,0.1,1,8.2,4.7,18.9c0.1,0.2,0,0.5-0.3,0.6
		C39.3,30,39.3,30,39.2,30z"/>
	<path class="st0" d="M24.1,30c-0.2,0-0.3-0.1-0.4-0.3L14.8,12c-0.1-0.2,0-0.5,0.2-0.6c0.2-0.1,0.5,0,0.6,0.2l8.9,17.7
		c0.1,0.2,0,0.5-0.2,0.6C24.2,30,24.1,30,24.1,30z"/>
	<path class="st0" d="M19.2,11.3c0,0.6-0.9,1.1-3.1,1.1c-2.2,0-4.4,2.1-4.4-0.4c0-0.7,0.2-1.1,1.1-1.1c0.4,0,5.4,0,5.4,0
		C18.8,10.9,19.2,10.9,19.2,11.3z"/>
	<path class="st0" d="M10.8,38.5c-5,0-9-4-9-9c0-5,4-9,9-9s9,4,9,9C19.8,34.5,15.7,38.5,10.8,38.5z M10.8,21.4
		c-4.4,0-8.1,3.6-8.1,8.1c0,4.5,3.6,8.1,8.1,8.1s8.1-3.6,8.1-8.1C18.8,25.1,15.2,21.4,10.8,21.4z"/>
	<path class="st0" d="M39.2,38.5c-5,0-9-4-9-9c0-5,4-9,9-9s9,4,9,9C48.3,34.5,44.2,38.5,39.2,38.5z M39.2,21.4
		c-4.4,0-8.1,3.6-8.1,8.1c0,4.5,3.6,8.1,8.1,8.1s8.1-3.6,8.1-8.1C47.3,25.1,43.7,21.4,39.2,21.4z"/>
</g>
</svg>
