<?xml version="1.0" encoding="utf-8"?>
<!-- Generator: Adobe Illustrator 21.0.0, SVG Export Plug-In . SVG Version: 6.00 Build 0)  -->
<svg version="1.1" id="Ebene_1" xmlns="http://www.w3.org/2000/svg" xmlns:xlink="http://www.w3.org/1999/xlink" x="0px" y="0px"
	 viewBox="0 0 200 200" style="enable-background:new 0 0 200 200;" xml:space="preserve">
<style type="text/css">
	.st0{fill:#FFFFFF;}
	.st1{fill:#96BD0D;}
</style>
<circle class="st0" cx="50.7" cy="121.4" r="48.5"/>
<path class="st1" d="M161.6,86.3c-2.9,0-5.7,0.4-8.4,1.1c-6.3-24.1-8.3-40.1-8.3-40.3c0-0.5-0.3-1-0.7-1.3s-0.9-0.5-1.4-0.4
	c-10.1,1.3-17.5,0.1-20.8-3.2c-0.7-0.7-1.9-0.7-2.6,0s-0.7,1.9,0,2.6c4.1,4.1,11.5,5.6,22.1,4.5c0.4,3,1.4,9.5,3.3,18.4H77
	l-6.6-13.2c0.2,0,0.3,0,0.5,0c8.4,0,12-2,12-4.1c0-1.7-1.6-1.7-4-1.7c0,0-19.5,0-21,0c-3.7,0-4.4,1.5-4.4,4.3c0,8,6,3.8,13,2.2
	l7.3,14.5L64,89.3c-4.3-1.9-9.1-3-14.1-3c-19.5,0-35.4,15.9-35.4,35.4s15.9,35.4,35.4,35.4c18.9,0,34.3-14.9,35.3-33.5H102l0,0l0,0
	l0,0c0.3,0,0.5-0.1,0.8-0.2l0,0c0.2-0.1,0.4-0.3,0.6-0.5l42.5-49.6c1,4.6,2.2,9.6,3.7,15.1c-13.6,4.9-23.4,18-23.4,33.2
	c0,19.5,15.9,35.4,35.4,35.4s35.4-15.9,35.4-35.4C197,102.2,181.1,86.3,161.6,86.3z M75.9,73.7L99,119.9H85.1
	c-0.6-12.4-7.7-23.1-17.8-28.9L75.9,73.7z M81.4,119.9H52.8l12.8-25.5C74.6,99.5,80.8,108.9,81.4,119.9z M49.8,153.4
	c-17.5,0-31.7-14.2-31.7-31.7S32.3,90,49.8,90c4.4,0,8.6,0.9,12.5,2.6l-14.1,28.3c-0.3,0.6-0.3,1.3,0.1,1.8c0.3,0.5,0.9,0.9,1.6,0.9
	h31.6C80.4,140.2,66.7,153.4,49.8,153.4z M102.4,118.4l-23.5-47h63.8L102.4,118.4z M161.6,153.4c-17.5,0-31.7-14.2-31.7-31.7
	c0-13.6,8.6-25.1,20.6-29.6c2.5,9.2,5.5,19.3,9.3,30.2c0.3,0.8,1,1.3,1.8,1.3c0.2,0,0.4,0,0.6-0.1c1-0.3,1.5-1.4,1.2-2.4
	c-3.7-10.8-6.8-21-9.2-30.1c2.4-0.6,4.9-0.9,7.5-0.9c17.5,0,31.7,14.2,31.7,31.7C193.3,139.2,179.1,153.4,161.6,153.4z"/>
</svg>
