<?xml version="1.0" encoding="utf-8"?>
<!-- Generator: Adobe Illustrator 19.1.0, SVG Export Plug-In . SVG Version: 6.00 Build 0)  -->
<svg version="1.1" id="Layer_1" xmlns="http://www.w3.org/2000/svg" xmlns:xlink="http://www.w3.org/1999/xlink" x="0px" y="0px"
	 viewBox="0 0 50 50" style="enable-background:new 0 0 50 50;" xml:space="preserve">
<style type="text/css">
	.st0{fill:#F29100;}
</style>
<g>
	<path class="st0" d="M24.5,2.5C12.1,2.5,2,12.6,2,25c0,12.4,10.1,22.5,22.5,22.5C36.9,47.5,47,37.4,47,25
		C47,12.6,36.9,2.5,24.5,2.5z M24.5,46.6C12.6,46.6,2.9,36.9,2.9,25S12.6,3.4,24.5,3.4S46.1,13.1,46.1,25S36.4,46.6,24.5,46.6z"/>
	<path class="st0" d="M25,23.1V7.5c0-0.3-0.2-0.5-0.5-0.5S24,7.3,24,7.5v15.6c-1,0.2-1.5,1-1.5,1.9c0,0.4,0.1,0.7,0.3,1l-6,6
		c-0.2,0.2-0.2,0.5,0,0.7c0.1,0.1,0.2,0.1,0.3,0.1c0.1,0,0.2,0,0.3-0.1l6-6c0.3,0.2,0.6,0.3,1,0.3c1.1,0,2-0.9,2-2
		C26.5,24.1,26,23.3,25,23.1z"/>
</g>
</svg>
