<?xml version="1.0" encoding="utf-8"?>
<!-- Generator: Adobe Illustrator 19.1.0, SVG Export Plug-In . SVG Version: 6.00 Build 0)  -->
<svg version="1.1" id="Layer_1" xmlns="http://www.w3.org/2000/svg" xmlns:xlink="http://www.w3.org/1999/xlink" x="0px" y="0px"
	 viewBox="0 0 50 50" style="enable-background:new 0 0 50 50;" xml:space="preserve">
<style type="text/css">
	.st0{fill:#FFFFFF;}
</style>
<g>
	<path class="st0" d="M25,48C12.2,48,1.8,37.6,1.8,24.7S12.2,1.5,25,1.5c12.8,0,23.2,10.4,23.2,23.2S37.8,48,25,48z M25,2.9
		c-12,0-21.8,9.8-21.8,21.8c0,12,9.8,21.8,21.8,21.8s21.8-9.8,21.8-21.8C46.8,12.7,37,2.9,25,2.9z"/>
	<path class="st0" d="M21.2,17.7v3.9h-2.8v4.7h2.8v14.1H27V26.3h3.9c0,0,0.4-2.3,0.5-4.8H27v-3.2c0-0.5,0.6-1.1,1.3-1.1h3.2v-4.9
		h-4.3C21.1,12.2,21.2,17,21.2,17.7"/>
</g>
</svg>
