<?xml version="1.0" encoding="utf-8"?>
<!-- Generator: Adobe Illustrator 19.1.0, SVG Export Plug-In . SVG Version: 6.00 Build 0)  -->
<svg version="1.1" id="Layer_1" xmlns="http://www.w3.org/2000/svg" xmlns:xlink="http://www.w3.org/1999/xlink" x="0px" y="0px"
	 viewBox="0 0 50 50" style="enable-background:new 0 0 50 50;" xml:space="preserve">
<style type="text/css">
	.st0{fill:#FFFFFF;}
</style>
<g>
	<path class="st0" d="M42,19H8c-0.4,0-0.8-0.3-0.8-0.8s0.3-0.8,0.8-0.8h34c0.4,0,0.8,0.3,0.8,0.8S42.4,19,42,19z"/>
	<path class="st0" d="M42,32.5H8c-0.4,0-0.8-0.3-0.8-0.8C7.2,31.3,7.6,31,8,31h34c0.4,0,0.8,0.3,0.8,0.8
		C42.8,32.2,42.4,32.5,42,32.5z"/>
	<circle class="st0" cx="18.9" cy="18.3" r="3.5"/>
	<circle class="st0" cx="29.9" cy="31.7" r="3.5"/>
</g>
</svg>
