<?xml version="1.0" encoding="utf-8"?>
<!-- Generator: Adobe Illustrator 19.1.0, SVG Export Plug-In . SVG Version: 6.00 Build 0)  -->
<svg version="1.1" id="Layer_1" xmlns="http://www.w3.org/2000/svg" xmlns:xlink="http://www.w3.org/1999/xlink" x="0px" y="0px"
	 viewBox="0 0 50 50" style="enable-background:new 0 0 50 50;" xml:space="preserve">
<style type="text/css">
	.st0{fill:#9C9B9B;}
</style>
<g>
	<path class="st0" d="M24.5,6.4h2.7c0,0,0-0.1,0-0.1c0-0.7-0.6-1.3-1.3-1.3c-0.7,0-1.3,0.6-1.3,1.3C24.5,6.3,24.5,6.3,24.5,6.4
		L24.5,6.4z"/>
	<path class="st0" d="M21.4,11.8h4.5v-1.4h-6.1l0,0C19.9,11.1,20.6,11.8,21.4,11.8z"/>
	<path class="st0" d="M23.4,6.4c-0.1-0.8-0.8-1.4-1.6-1.4l0,0h-1.9l1.5,1.4H23.4z"/>
	<path class="st0" d="M17,11.8h1.7l0-1.4C17.9,10.3,17.1,11,17,11.8L17,11.8z"/>
	<path class="st0" d="M23.8,12.2h-3.3l-3.4,0c0.1,0.8,0.9,1.4,1.7,1.4h6.8l0,0C25.4,12.8,24.7,12.2,23.8,12.2z"/>
	<polygon class="st0" points="32.5,15.7 32.5,15.7 32.5,15.7 	"/>
	<path class="st0" d="M19.1,17.2h11.8c0.8,0,1.5-0.6,1.6-1.5H20.5L19.1,17.2z"/>
	<path class="st0" d="M31.8,4.9H30v0c-0.8,0-1.5,0.6-1.6,1.4l2,0L31.8,4.9z"/>
	<polygon class="st0" points="28.5,8.2 28.5,8.2 29.9,6.7 29.9,6.7 21.7,6.7 23.1,8.2 	"/>
	<path class="st0" d="M25.9,13.6l5.2,0c0.8,0,1.5-0.6,1.6-1.4h0l-6.8,0V13.6z"/>
	<path class="st0" d="M26.3,11.8l4.1,0c0.8,0,1.5-0.6,1.6-1.4l0,0h-4.2L26.3,11.8z"/>
	<path class="st0" d="M33.1,13.9H21c0.1,0.8,0.8,1.4,1.6,1.4h8.9C32.4,15.4,33,14.7,33.1,13.9z"/>
	<rect x="16.4" y="19.8" class="st0" width="0" height="0"/>
	<path class="st0" d="M19.3,19L19.3,19l10.9,0c0.8,0,1.5-0.6,1.6-1.4l-1.4,0H18.7l-2.3,2.3l1,1L19.3,19z"/>
	<path class="st0" d="M15.4,25.4l4.6-4.6l9.3,0c0.8,0,1.5-0.6,1.6-1.4H19.4l-6.2,6.1C13.9,26,14.8,25.9,15.4,25.4z"/>
	<path class="st0" d="M17.9,25.4l2.8-2.8l7.4,0c0.8,0,1.5-0.6,1.6-1.4l-9.7,0l-4.4,4.3C16.4,26,17.3,25.9,17.9,25.4z"/>
	<path class="st0" d="M20.4,25.4l1-1h8.4l-1-1.4h-8l0,0l-2.6,2.6C18.9,26,19.9,26,20.4,25.4z"/>
	<path class="st0" d="M24.9,28l7.5,0l-1-1.5l-8.1,0C23.4,27.3,24.1,28,24.9,28z"/>
	<path class="st0" d="M31.2,26.2l-1-1.5l-8.5,0c0.1,0.8,0.8,1.5,1.6,1.5L31.2,26.2z"/>
	<path class="st0" d="M25.8,44.5h-2.6c0.1,0.8,0.7,1.4,1.5,1.4h1.2v-1.4L25.8,44.5L25.8,44.5z"/>
	<path class="st0" d="M30.3,40.9h-6.6c-0.8,0-1.5,0.6-1.6,1.4l0,0H27h4.9l0,0C31.8,41.5,31.1,40.9,30.3,40.9z"/>
	<path class="st0" d="M25.9,38.7c-0.1-0.8-0.7-1.4-1.5-1.4v1.4L25.9,38.7L25.9,38.7z"/>
	<path class="st0" d="M23.7,39.1c-0.8,0-1.5,0.6-1.6,1.4l0,0h8.2c0.8,0,1.5-0.6,1.6-1.4l0,0h-5H23.7z"/>
	<path class="st0" d="M26,42.7h-5.1c-0.8,0-1.5,0.6-1.6,1.4l0,0h8.7c0.8,0,1.5-0.6,1.6-1.4l0,0H26L26,42.7z"/>
	<path class="st0" d="M21,10L21,10l6.4,0l0,0l2.5,0h0c0.8,0,1.5-0.6,1.6-1.5l0,0l-4.1,0l-4.8,0C21.8,8.5,21.1,9.2,21,10z"/>
	<polygon class="st0" points="27.5,33.7 27.5,33.7 27.6,33.7 	"/>
	<path class="st0" d="M27.5,35.2L27.5,35.2l1.1,0l0,0l3.3,0l0,0c-0.1-0.8-0.7-1.4-1.5-1.5l-1.7,0l-1.1,0l-2.3,0
		c0.1,0.8,0.8,1.5,1.6,1.5H27.5z"/>
	<path class="st0" d="M30.4,33.4l1.5-1.5l-7.1,0c0.1,0.8,0.8,1.5,1.6,1.5L30.4,33.4z"/>
	<polygon class="st0" points="33.7,30.1 26.5,30.1 25.1,31.6 28,31.6 32.2,31.6 	"/>
	<path class="st0" d="M26.7,29.8h0.3l6.7,0l0,0c-0.1-0.8-0.7-1.4-1.5-1.5l-5.2,0l0,0h-1.9C25.1,29.1,25.8,29.8,26.7,29.8z"/>
	<path class="st0" d="M32.5,35.5h-4h-2.7c0.1,0.8,0.8,1.4,1.6,1.4l0,0h1.1l5.6,0C34,36.1,33.3,35.5,32.5,35.5z"/>
	<path class="st0" d="M31.3,37.3l-3.3,0c-0.8,0-1.5,0.6-1.6,1.4l4.9,0h1.2c0.8,0,1.5-0.6,1.6-1.4L31.3,37.3L31.3,37.3z"/>
	<path class="st0" d="M36.2,25.1c0.6-0.6,0.6-1.5,0.1-2.2L34.3,25l-1.8,1.8c0.6,0.5,1.6,0.5,2.2-0.1l0,0L36.2,25.1z"/>
	<path class="st0" d="M39.8,6.7v2.2l1.4-1.4C40.9,7,40.4,6.7,39.8,6.7z"/>
	<path class="st0" d="M39.8,21.6L39.8,21.6l3.6-3.6c0.6-0.6,0.6-1.5,0.1-2.2l0,0l-3.6,3.6C39.3,20,39.3,20.9,39.8,21.6z"/>
	<polygon class="st0" points="43.1,13.7 43.1,13.7 43.1,13.7 	"/>
	<path class="st0" d="M39.8,19L39.8,19l3.2-3.2c0.6-0.6,0.6-1.5,0.1-2.2l-3.2,3.2C39.3,17.5,39.3,18.4,39.8,19z"/>
	<path class="st0" d="M43.6,10.7L38,16.2l0,0c0.6,0.5,1.6,0.5,2.2-0.1l0,0l3.3-3.2C44.1,12.2,44.1,11.3,43.6,10.7L43.6,10.7z"/>
	<path class="st0" d="M39.7,11.5L42,9.2l1.2-1.2c0.6-0.6,0.6-1.5,0.1-2.2l0,0l-3.5,3.5C39.2,10,39.2,10.9,39.7,11.5L39.7,11.5z"/>
	<path class="st0" d="M36.3,5.2L36.3,5.2L33,8.5l0,0v2l3.2-3.2C36.8,6.8,36.8,5.9,36.3,5.2z"/>
	<path class="st0" d="M34,12.6c-0.6,0.6-0.6,1.5-0.1,2.2l3.5-3.4l-1-1L34,12.6z"/>
	<path class="st0" d="M33.1,18l5.5-5.5l-1-1l-4.3,4.3C32.7,16.5,32.6,17.4,33.1,18z"/>
	<path class="st0" d="M31.6,20c-0.6,0.6-0.6,1.5-0.1,2.2l11.9-11.9c0.6-0.6,0.6-1.5,0.1-2.2L31.6,20z"/>
	<path class="st0" d="M33.2,6.3c-0.1,0-0.1,0-0.2,0V8l1.2-1.2C34,6.5,33.6,6.3,33.2,6.3z"/>
	<path class="st0" d="M36.3,17.9l-1.1,1.1l-2.7,2.7l-1.8,1.8c0.6,0.5,1.6,0.5,2.2-0.1l0,0l2.2-2.2l1.1-1.1c0,0,0.1-0.1,0.1-0.1
		C36.8,19.5,36.8,18.5,36.3,17.9L36.3,17.9z"/>
	<path class="st0" d="M35.3,21.5L34,22.7l-1.1,1.1v0l-1.3,1.3c0.6,0.5,1.6,0.5,2.2-0.1v0l1.3-1.3l1.1-1.1c0.6-0.6,0.6-1.5,0.1-2.2
		L35.3,21.5z"/>
	<path class="st0" d="M44.1,20.4l-1,1l-6.6,6.5l-1.8,1.8c0.6,0.5,1.6,0.5,2.2-0.1h0l0.7-0.7l0.7-0.7l3.9-3.8l1.9-1.9
		C44.6,21.9,44.6,21,44.1,20.4L44.1,20.4z"/>
	<path class="st0" d="M35.9,28l0.1-0.1l1.1-1.1l0.2-0.2l0,0l2.1-2.1l0,0c-0.6-0.5-1.6-0.5-2.2,0.1l0,0l-1,1L35,26.9l0,0l-1.3,1.2
		l0,0C34.4,28.6,35.3,28.6,35.9,28z"/>
	<path class="st0" d="M35.5,8.5L35.5,8.5l-0.8,0.8L34.1,10l0,0l-0.6,0.6c-0.6,0.6-0.6,1.5-0.1,2.2l1.5-1.5l0.2-0.2l0.7-0.7l0.6-0.6
		h0C37,9.2,37,8.2,36.5,7.6L35.5,8.5z"/>
	<polygon class="st0" points="35,31.4 34,30.4 32.1,32.3 33.1,33.3 	"/>
	<path class="st0" d="M35.5,33.5l0.7-0.7l1.1-1.1h-2.1l-1.9,1.9C34,34.1,34.9,34.1,35.5,33.5L35.5,33.5z"/>
	<path class="st0" d="M43.8,23.1L42,25l0,0l-3.2,3.2l-1.3,1.3c-0.6,0.6-0.6,1.5-0.1,2.2l6.4-6.3C44.3,24.7,44.3,23.8,43.8,23.1
		L43.8,23.1z"/>
	<polygon class="st0" points="35.3,34.2 35.3,34.2 35.3,34.2 	"/>
	<path class="st0" d="M39.4,30.1l-4.1,4.1l2.1,0l1.9-1.9C39.9,31.7,39.9,30.8,39.4,30.1L39.4,30.1z"/>
	<polygon class="st0" points="37.4,34.6 37.5,36.6 38.8,35.2 38.8,33.2 	"/>
	<path class="st0" d="M39.7,24.2L39.7,24.2L39.7,24.2L44,20c0.6-0.6,0.6-1.5,0.1-2.2l0,0L39.9,22C39.3,22.6,39.2,23.5,39.7,24.2z"/>
	<path class="st0" d="M41.2,28.3l-1.4,1.4h0.8l0,0c0.2,0,0.4-0.1,0.6-0.2C41.5,29.2,41.5,28.7,41.2,28.3L41.2,28.3z"/>
	<path class="st0" d="M10.4,7.5C9.7,7,8.8,7.1,8.2,7.6l1,1L10.4,7.5z"/>
	<path class="st0" d="M14,6.5L14,6.5C13.4,6,12.4,6,11.8,6.6l0,0l-4.2,4.2C7,11.4,6.9,12.3,7.5,13L14,6.5z"/>
	<path class="st0" d="M8.7,12.3c0.6,0.5,1.6,0.5,2.2-0.1l0,0L13,10l1.1-1.1c0.6-0.6,0.6-1.5,0.1-2.2l-3.8,3.7L8.7,12.3z"/>
	<path class="st0" d="M10.6,15L10.6,15l6.2-6.1c0.6-0.6,0.6-1.5,0.1-2.2l0,0l-6.2,6.1C10.1,13.4,10.1,14.3,10.6,15z"/>
	<path class="st0" d="M15.7,10.3L15.7,10.3l-1.5,1.4L13,13.1l-1.7,1.6l-1.2,1.2c0.6,0.5,1.6,0.5,2.2-0.1l3.3-3.3
		C16.2,11.9,16.3,11,15.7,10.3z"/>
	<path class="st0" d="M14.8,15.8L14.8,15.8l1.9-1.9l-1-1L12.6,16C13.3,16.5,14.2,16.4,14.8,15.8z"/>
	<path class="st0" d="M16.3,19.5l3-3l-1-1l-4.1,4.1C14.8,20,15.7,20,16.3,19.5z"/>
	<polygon class="st0" points="14.2,19.5 14.2,19.5 14.2,19.5 	"/>
	<path class="st0" d="M15,18.2l3-3l-1-1l-4.1,4.1l0,0C13.5,18.8,14.4,18.7,15,18.2z"/>
	<path class="st0" d="M9.2,18.9C8.5,18.4,7.6,18.5,7,19v0l1,1L9.2,18.9z"/>
	<path class="st0" d="M6,24.6L8.7,22l2.7-2.7c0.6-0.6,0.6-1.5,0.1-2.2l-3.7,3.7l-0.2,0.2l-1.5,1.5C5.5,23,5.5,24,6,24.6z"/>
	<polygon class="st0" points="6.1,22.5 6.1,22.4 6.1,22.4 	"/>
	<path class="st0" d="M12.4,20.8c0.6-0.6,0.6-1.5,0.1-2.2l0,0l-6.2,6.1c-0.6,0.6-0.6,1.5-0.1,2.2l0,0L12.4,20.8L12.4,20.8z"/>
	<path class="st0" d="M10,23.7c-0.6,0.6-0.6,1.5-0.1,2.2l0,0l4.6-4.6l-2.1,0L10,23.7z"/>
	<path class="st0" d="M11.2,27L11.2,27l5.8-5.8l-2.1,0L9,27.1l0,0C9.7,27.6,10.6,27.6,11.2,27z"/>
	<path class="st0" d="M19,29.3l2.8-2.8h-2.1l-0.6,0.6C18.5,27.7,18.4,28.7,19,29.3L19,29.3z"/>
	<path class="st0" d="M16.7,32l-5.6,5.6c0.6,0.5,1.6,0.5,2.2-0.1l5.5-5.5H16.7z"/>
	<path class="st0" d="M11.4,29.7L11.4,29.7l1,1l1.1-1.1C12.9,29.1,12,29.1,11.4,29.7z"/>
	<path class="st0" d="M16.4,29.3c0.6-0.6,0.6-1.5,0.1-2.2l0,0l-6.2,6.1c-0.6,0.6-0.6,1.5-0.1,2.2l0,0L16.4,29.3L16.4,29.3z"/>
	<path class="st0" d="M12.5,35.8L12.5,35.8l3.9-3.9l0,0c0.6-0.6,0.6-1.5,0.1-2.1l-3.9,3.9C12,34.2,12,35.1,12.5,35.8z"/>
	<polygon class="st0" points="19.1,37.2 19.1,37.3 19.1,37.2 	"/>
	<path class="st0" d="M21.2,37.2l3.8-3.8l-1-1L22.4,34l-3.2,3.2C19.8,37.8,20.7,37.8,21.2,37.2z"/>
	<path class="st0" d="M24.5,34.4l-0.9,0.9l0,0l-1.8,1.8l0,0c0.6,0.5,1.5,0.5,2.1-0.1l1.7-1.6L24.5,34.4z"/>
	<path class="st0" d="M19.4,31.4l3.9-3.8l-1-1l-2.7,2.7C18.9,29.9,18.9,30.8,19.4,31.4L19.4,31.4z"/>
	<path class="st0" d="M17.4,35.9l7.1-7l-1-1L15.3,36l0,0C15.9,36.6,16.8,36.5,17.4,35.9z"/>
	<path class="st0" d="M24.8,29.1l-9.2,9.2l0,0c0.6,0.5,1.6,0.5,2.2-0.1l8.1-8.1L24.8,29.1z"/>
</g>
</svg>
