<?xml version="1.0" encoding="utf-8"?>
<!-- Generator: Adobe Illustrator 19.1.0, SVG Export Plug-In . SVG Version: 6.00 Build 0)  -->
<svg version="1.1" id="Layer_1" xmlns="http://www.w3.org/2000/svg" xmlns:xlink="http://www.w3.org/1999/xlink" x="0px" y="0px"
	 viewBox="0 0 50 50" style="enable-background:new 0 0 50 50;" xml:space="preserve">
<style type="text/css">
	.st0{fill:#93C01F;}
</style>
<path class="st0" d="M25.8,46.5C13.9,46.5,4.3,36.9,4.3,25c0-11.9,9.6-21.5,21.5-21.5c11.9,0,21.5,9.6,21.5,21.5
	C47.3,36.9,37.6,46.5,25.8,46.5z M25.8,5.5C15,5.5,6.3,14.2,6.3,25c0,10.8,8.7,19.5,19.5,19.5c10.8,0,19.5-8.7,19.5-19.5
	C45.3,14.2,36.5,5.5,25.8,5.5z"/>
<g>
	<path class="st0" d="M24.5,29.6v-1.3c0-1.2,0.3-1.9,0.9-2.8l2.1-2.8c1.1-1.5,1.4-2.2,1.4-3.2c0-1.7-1.2-2.8-3-2.8
		c-1.7,0-2.8,1-3.2,2.9c0,0.2-0.2,0.3-0.3,0.2l-1.9-0.3c-0.2,0-0.3-0.2-0.2-0.3c0.5-2.9,2.6-4.9,5.8-4.9c3.3,0,5.5,2.2,5.5,5.2
		c0,1.5-0.5,2.5-1.6,4l-2.1,2.8c-0.6,0.8-0.8,1.3-0.8,2.3v1c0,0.2-0.1,0.3-0.3,0.3h-2C24.6,29.9,24.5,29.8,24.5,29.6z M24.4,32.6
		c0-0.2,0.1-0.3,0.3-0.3H27c0.2,0,0.3,0.1,0.3,0.3v2.6c0,0.2-0.1,0.3-0.3,0.3h-2.3c-0.2,0-0.3-0.1-0.3-0.3V32.6z"/>
</g>
</svg>
