<?xml version="1.0" encoding="utf-8"?>
<!-- Generator: Adobe Illustrator 19.1.0, SVG Export Plug-In . SVG Version: 6.00 Build 0)  -->
<svg version="1.1" id="Layer_1" xmlns="http://www.w3.org/2000/svg" xmlns:xlink="http://www.w3.org/1999/xlink" x="0px" y="0px"
	 viewBox="0 0 50 50" style="enable-background:new 0 0 50 50;" xml:space="preserve">
<style type="text/css">
	.st0{fill:#FFFFFF;}
</style>
<path class="st0" d="M36.6,35.1H25.7c-1.5,0-2.8-0.5-3.9-1.6c-1.1-1.1-1.6-2.4-1.6-3.9v-3.9h15.5c1.4,0,2.6-0.5,3.6-1.5
	c1-1,1.5-2.2,1.5-3.6c0-1.4-0.5-2.6-1.5-3.6c-1-1-2.2-1.5-3.6-1.5H20.3v-8c0-1.5-0.5-2.8-1.6-3.9c-1.1-1.1-2.4-1.6-3.9-1.6
	c-1.5,0-2.9,0.5-3.9,1.6C9.8,4.6,9.2,5.9,9.2,7.5v22.1c0,4.6,1.6,8.4,4.8,11.7c3.2,3.2,7.1,4.8,11.7,4.8h10.9c1.5,0,2.8-0.5,3.9-1.6
	c1.1-1.1,1.6-2.4,1.6-3.9c0-1.5-0.5-2.8-1.6-3.9C39.4,35.6,38.1,35.1,36.6,35.1"/>
</svg>
