<?xml version="1.0" encoding="utf-8"?>
<!-- Generator: Adobe Illustrator 19.1.0, SVG Export Plug-In . SVG Version: 6.00 Build 0)  -->
<svg version="1.1" id="Layer_1" xmlns="http://www.w3.org/2000/svg" xmlns:xlink="http://www.w3.org/1999/xlink" x="0px" y="0px"
	 viewBox="0 0 50 50" style="enable-background:new 0 0 50 50;" xml:space="preserve">
<style type="text/css">
	.st0{fill:#868686;}
	.st1{fill:#FFFFFF;}
</style>
<path class="st0" d="M25.6,1.5c-10,0-18.1,8.1-18.1,18.1c0,16.8,18.1,29,18.1,29s18.1-12.5,18.1-29C43.7,9.6,35.6,1.5,25.6,1.5z"/>
<path class="st1" d="M33.7,28.1c0.1,0.1,0.2,0.3,0.3,0.4c0.1,0.2,0.1,0.4,0.1,0.5c0,0.2,0,0.5-0.1,0.8s-0.2,0.5-0.4,0.7
	S33.2,31,33,31.2c-0.2,0.2-0.5,0.4-0.8,0.6c-0.3,0.2-0.6,0.3-1,0.4c-0.3,0.1-0.7,0.2-1.1,0.2c-0.3,0-0.5,0-0.7-0.1
	c-0.2,0-0.4-0.1-0.6-0.3c-0.2-0.1-0.3-0.3-0.5-0.6c-0.2-0.2-0.3-0.5-0.5-0.9c-0.3-0.5-0.5-1-0.8-1.5s-0.5-0.9-0.7-1.3
	s-0.4-0.7-0.6-1s-0.4-0.5-0.6-0.7s-0.4-0.3-0.6-0.4s-0.4-0.2-0.6-0.3c-0.1,0.5-0.2,1-0.3,1.5c-0.1,0.5-0.1,1-0.2,1.5
	s-0.1,0.9-0.1,1.3s-0.1,0.7-0.1,0.9c-0.1,0.2-0.3,0.3-0.5,0.4s-0.5,0.2-0.8,0.2s-0.5,0-0.7-0.1s-0.4-0.2-0.6-0.3
	c-0.2-0.1-0.4-0.3-0.5-0.5s-0.3-0.4-0.4-0.5c-0.1-0.2-0.2-0.4-0.3-0.6c-0.1-0.2-0.1-0.4-0.1-0.6c0-0.1,0-0.3,0-0.4s0-0.3,0-0.5
	s0.1-0.4,0.1-0.7c0-0.3,0.1-0.6,0.2-0.9c0.1-0.4,0.2-0.8,0.3-1.2c0.1-0.5,0.3-1,0.4-1.5c0.3-1.2,0.7-2.5,1.1-3.8
	c0.4-1.4,0.8-2.9,1.2-4.5c-0.4,0.1-0.7,0.2-1.1,0.3c-0.4,0.2-0.7,0.3-1,0.6c-0.3,0.2-0.6,0.5-0.9,0.7c-0.3,0.3-0.6,0.6-0.8,0.9
	c-0.2,0.3-0.5,0.6-0.7,0.9s-0.4,0.6-0.5,0.9c-0.1,0-0.2,0.1-0.3,0.1c-0.1,0-0.2,0-0.3,0.1c-0.2,0-0.3,0-0.5-0.1
	c-0.1-0.1-0.3-0.2-0.4-0.3c-0.1-0.1-0.2-0.3-0.3-0.5s-0.1-0.4-0.1-0.7c0-0.5,0.1-1,0.3-1.5c0.2-0.5,0.5-1.1,1-1.6
	c0.4-0.5,0.9-1,1.5-1.5s1.3-0.9,2-1.3c0.8-0.4,1.6-0.7,2.4-1s1.8-0.4,2.8-0.5c1.2-0.1,2.2,0,3.1,0.2s1.6,0.6,2.2,1
	c0.6,0.5,1.1,1,1.4,1.7c0.3,0.7,0.5,1.4,0.6,2.2c0,0.7,0,1.3-0.2,2s-0.4,1.3-0.8,2c-0.4,0.7-0.8,1.3-1.4,2c-0.5,0.7-1.2,1.4-1.9,2.2
	c0.1,0.1,0.3,0.3,0.5,0.5s0.4,0.5,0.7,0.8c0.2,0.3,0.5,0.7,0.8,1.1s0.5,0.8,0.8,1.3c0.1,0.2,0.2,0.3,0.3,0.4
	c0.1,0.1,0.2,0.2,0.2,0.2c0.1,0.1,0.2,0.1,0.3,0.1s0.2,0,0.3,0s0.1,0,0.2,0c0.1,0,0.2,0,0.3-0.1c0.1,0,0.2,0,0.3-0.1
	S33.7,28.2,33.7,28.1z M26.8,22.8c0.4-0.6,0.7-1.1,1-1.6s0.5-0.9,0.6-1.4c0.2-0.4,0.3-0.8,0.3-1.2c0.1-0.4,0.1-0.8,0-1.2
	c0-0.4-0.1-0.7-0.2-1s-0.3-0.6-0.6-0.8c-0.3-0.2-0.6-0.4-1-0.6c-0.4-0.1-0.9-0.2-1.5-0.2c0,0.9-0.1,2-0.2,3.3
	c-0.2,1.4-0.4,2.9-0.8,4.7c0.3-0.1,0.6-0.1,0.9-0.1s0.5,0,0.8,0C26.4,22.7,26.6,22.7,26.8,22.8z"/>
<path class="st0" d="M328.6,71.5c-10,0-18.1,8.1-18.1,18.1c0,16.8,18.1,29,18.1,29s18.1-12.5,18.1-29
	C346.7,79.6,338.6,71.5,328.6,71.5z"/>
</svg>
