<?xml version="1.0" encoding="utf-8"?>
<!-- Generator: Adobe Illustrator 19.1.0, SVG Export Plug-In . SVG Version: 6.00 Build 0)  -->
<svg version="1.1" id="Layer_1" xmlns="http://www.w3.org/2000/svg" xmlns:xlink="http://www.w3.org/1999/xlink" x="0px" y="0px"
	 viewBox="0 0 50 50" style="enable-background:new 0 0 50 50;" xml:space="preserve">
<style type="text/css">
	.st0{fill:#93C01F;}
</style>
<path class="st0" d="M48.3,45.4l-13-13c2.6-3,4.1-6.8,4.1-11.1c0-9.4-7.6-17-17-17s-17,7.6-17,17c0,9.4,7.6,17,17,17
	c3.7,0,7.1-1.2,9.9-3.2l13.1,13.1L48.3,45.4z M7.4,21.3c0-8.3,6.7-15,15-15c8.3,0,15,6.7,15,15s-6.7,15-15,15
	C14.2,36.3,7.4,29.6,7.4,21.3z"/>
</svg>
