<?xml version="1.0" encoding="UTF-8" standalone="no"?>
<!-- Generator: Adobe Illustrator 21.0.0, SVG Export Plug-In . SVG Version: 6.00 Build 0)  -->

<svg
   xmlns:dc="http://purl.org/dc/elements/1.1/"
   xmlns:cc="http://creativecommons.org/ns#"
   xmlns:rdf="http://www.w3.org/1999/02/22-rdf-syntax-ns#"
   xmlns:svg="http://www.w3.org/2000/svg"
   xmlns="http://www.w3.org/2000/svg"
   xmlns:sodipodi="http://sodipodi.sourceforge.net/DTD/sodipodi-0.dtd"
   xmlns:inkscape="http://www.inkscape.org/namespaces/inkscape"
   version="1.1"
   id="Ebene_1"
   x="0px"
   y="0px"
   viewBox="0 0 200 200"
   xml:space="preserve"
   inkscape:version="0.91 r13725"
   sodipodi:docname="sharemail.svg"
   style="enable-background:new 0 0 200 200;"><metadata
     id="metadata11"><rdf:RDF><cc:Work
         rdf:about=""><dc:format>image/svg+xml</dc:format><dc:type
           rdf:resource="http://purl.org/dc/dcmitype/StillImage" /><dc:title></dc:title></cc:Work></rdf:RDF></metadata><defs
     id="defs9" /><sodipodi:namedview
     pagecolor="#ffa6ff"
     bordercolor="#666666"
     borderopacity="1"
     objecttolerance="10"
     gridtolerance="10"
     guidetolerance="10"
     inkscape:pageopacity="0.25490196"
     inkscape:pageshadow="2"
     inkscape:window-width="828"
     inkscape:window-height="480"
     id="namedview7"
     showgrid="false"
     inkscape:zoom="1.18"
     inkscape:cx="145.98141"
     inkscape:cy="92.112713"
     inkscape:window-x="0"
     inkscape:window-y="0"
     inkscape:window-maximized="0"
     inkscape:current-layer="Ebene_1" /><style
     type="text/css"
     id="style3">
	.st0{fill:#FFFFFF;}
</style><path
     class="st0"
     d="m 182.22542,13.837288 c -0.6,-0.6 -1.6,-0.8 -2.4,-0.5 l -177.5999963,76.4 c -0.8,0.3 -1.29999995,1.1 -1.29999995,2 0,0.9 0.49999995,1.7 1.19999995,2 l 66.8000003,33.500002 33.399996,66.8 c 0.4,0.8 1.1,1.2 2,1.2 0,0 0,0 0.1,0 0.9,0 1.6,-0.6 2,-1.3 l 76.3,-177.600002 c 0.3,-0.8 0.1,-1.8 -0.5,-2.5 z m -6,6.2 c 0,0 0,-0.1 -0.1,-0.1 0,0 -0.1,0 -0.1,-0.1 l 0.4,-0.2 -0.2,0.4 z m -167.8999963,71.9 162.4999963,-69.9 -99.999996,100.000002 c -0.3,0.3 -0.4,0.6 -0.5,0.9 L 8.3254237,91.937288 Z m 95.7999963,95.800002 -31.099996,-62 c 0.3,-0.1 0.7,-0.3 0.9,-0.5 l 99.999996,-100.000002 -69.8,162.500002 z"
     id="path5"
     inkscape:connector-curvature="0"
     style="fill:#ffffff" /></svg>