<?xml version="1.0" encoding="utf-8"?>
<!-- Generator: Adobe Illustrator 21.0.0, SVG Export Plug-In . SVG Version: 6.00 Build 0)  -->
<svg version="1.1" id="Ebene_1" xmlns="http://www.w3.org/2000/svg" xmlns:xlink="http://www.w3.org/1999/xlink" x="0px" y="0px"
	 viewBox="0 0 200 200" style="enable-background:new 0 0 200 200;" xml:space="preserve">
<style type="text/css">
	.st0{fill:#FFFFFF;}
</style>
<g>
	<path class="st0" d="M141.4,56.3L90.9,89.9c-0.2,0.1-0.3,0.3-0.5,0.5l-33.6,50.5c-0.4,0.7-0.4,1.5,0.2,2.1c0.3,0.3,0.7,0.5,1.2,0.5
		c0.3,0,0.6-0.1,0.9-0.3l50.5-33.6c0.2-0.1,0.3-0.3,0.5-0.5l33.6-50.5c0.4-0.7,0.4-1.5-0.2-2.1C142.9,55.9,142,55.8,141.4,56.3z
		 M107.5,107l-43.3,28.8L93,92.5h0L107.5,107L107.5,107z"/>
	<path class="st0" d="M100.2,18c-45,0-81.7,36.7-81.7,81.7c0,45,36.7,81.7,81.7,81.7c45.1,0,81.7-36.7,81.7-81.7
		C182,54.7,145.3,18,100.2,18z M101.9,178v-5c0-0.9-0.7-1.7-1.7-1.7s-1.7,0.7-1.7,1.7v5c-41.9-0.9-75.8-34.8-76.7-76.7h5
		c0.9,0,1.7-0.7,1.7-1.7c0-0.9-0.7-1.7-1.7-1.7h-5c0.9-41.9,34.8-75.8,76.7-76.7v5c0,0.9,0.7,1.7,1.7,1.7s1.7-0.7,1.7-1.7v-5
		c41.9,0.9,75.8,34.8,76.7,76.7h-5c-0.9,0-1.7,0.7-1.7,1.7c0,0.9,0.7,1.7,1.7,1.7h5C177.7,143.3,143.8,177.1,101.9,178z"/>
</g>
</svg>
