<?xml version="1.0" encoding="utf-8"?>
<!-- Generator: Adobe Illustrator 21.0.0, SVG Export Plug-In . SVG Version: 6.00 Build 0)  -->
<svg version="1.1" id="Ebene_1" xmlns="http://www.w3.org/2000/svg" xmlns:xlink="http://www.w3.org/1999/xlink" x="0px" y="0px"
	 viewBox="0 0 200 200" style="enable-background:new 0 0 200 200;" xml:space="preserve">
<style type="text/css">
	.st0{fill:#FFFFFF;}
</style>
<path class="st0" d="M100.1,186.4c-47.8,0-86.7-38.9-86.7-86.7S52.3,13,100.1,13c47.8,0,86.7,38.9,86.7,86.7S148,186.4,100.1,186.4z
	 M100.1,16.5C54.3,16.5,17,53.8,17,99.7c0,45.9,37.3,83.2,83.2,83.2s83.2-37.3,83.2-83.2C183.3,53.8,146,16.5,100.1,16.5z"/>
<path class="st0" d="M96.2,70.9c-0.7,0-1.2-0.5-1.2-1.2v-8.5c0-0.7,0.5-1.2,1.2-1.2h7.9c0.7,0,1.2,0.5,1.2,1.2v8.5
	c0,0.7-0.5,1.2-1.2,1.2H96.2z M96.4,139.4c-0.7,0-1.2-0.5-1.2-1.2V84.6c0-0.7,0.5-1.2,1.2-1.2h7.5c0.7,0,1.2,0.5,1.2,1.2v53.6
	c0,0.7-0.5,1.2-1.2,1.2H96.4z"/>
</svg>
