<?xml version="1.0" encoding="utf-8"?>
<!-- Generator: Adobe Illustrator 21.0.0, SVG Export Plug-In . SVG Version: 6.00 Build 0)  -->
<svg version="1.1" id="Ebene_1" xmlns="http://www.w3.org/2000/svg" xmlns:xlink="http://www.w3.org/1999/xlink" x="0px" y="0px"
	 viewBox="0 0 200 200" style="enable-background:new 0 0 200 200;" xml:space="preserve">
<style type="text/css">
	.st0{fill:#FFFFFF;}
</style>
<path class="st0" d="M182.6,30c-4.7,0-8.6,3.5-9.3,8L26,82.2c-1.1-4-4.7-7-9.1-7c-5.2,0-9.4,4.2-9.4,9.4v22.6c0,5.2,4.2,9.4,9.4,9.4
	c4.3,0,7.9-2.9,9-6.9l33.7,11.8c-0.2,0.2-0.4,0.4-0.6,0.8l-3.2,8.8c-2.6,7.8,1.6,16.2,9.4,18.8l15.6,5.2c1.6,0.5,3.1,0.8,4.7,0.8
	c2.3,0,4.5-0.5,6.6-1.6c3.6-1.8,6.2-4.8,7.5-8.6l3.1-9.1l70.6,24.7c0.7,4.5,4.6,8,9.3,8c5.2,0,9.4-4.2,9.4-9.4V39.5
	C192,34.3,187.8,30,182.6,30z M16.9,112.9c-3.1,0-5.6-2.5-5.6-5.6V84.6c0-3.1,2.5-5.6,5.6-5.6s5.6,2.5,5.6,5.6v22.6
	C22.5,110.3,20,112.9,16.9,112.9z M26.3,86L173.2,42v115.3L26.3,105.9V86z M96.1,144.6c-0.9,2.8-2.9,5.1-5.6,6.4
	c-2.7,1.3-5.7,1.5-8.5,0.6l-15.6-5.2c-5.8-1.9-8.9-8.2-7-14l3.2-8.8c0.1-0.3,0.1-0.7,0.1-1l36.5,12.8L96.1,144.6z M188.2,160
	c0,3.1-2.5,5.6-5.6,5.6c-3.1,0-5.6-2.5-5.6-5.6V39.5c0-3.1,2.5-5.6,5.6-5.6c3.1,0,5.6,2.5,5.6,5.6V160z"/>
</svg>
