<?xml version="1.0" encoding="utf-8"?>
<!-- Generator: Adobe Illustrator 21.0.0, SVG Export Plug-In . SVG Version: 6.00 Build 0)  -->
<svg version="1.1" id="Ebene_1" xmlns="http://www.w3.org/2000/svg" xmlns:xlink="http://www.w3.org/1999/xlink" x="0px" y="0px"
	 viewBox="0 0 200 200" style="enable-background:new 0 0 200 200;" xml:space="preserve">
<style type="text/css">
	.st0{fill:#FFFFFF;}
</style>
<path class="st0" d="M155.6,86.3c-2.9,0-5.7,0.4-8.4,1.1c-6.3-24.1-8.3-40.1-8.3-40.3c0-0.5-0.3-1-0.7-1.3c-0.4-0.3-0.9-0.5-1.4-0.4
	c-10.1,1.3-17.5,0.1-20.8-3.2c-0.7-0.7-1.9-0.7-2.6,0s-0.7,1.9,0,2.6c4.1,4.1,11.5,5.6,22.1,4.5c0.4,3,1.4,9.5,3.3,18.4H71
	l-6.6-13.2c0.2,0,0.3,0,0.5,0c8.4,0,12-2,12-4.1c0-1.7-1.6-1.7-4-1.7c0,0-19.5,0-21,0c-3.7,0-4.4,1.5-4.4,4.3c0,8,6,3.8,13,2.2
	l7.3,14.5L58,89.3c-4.3-1.9-9.1-3-14.1-3c-19.5,0-35.4,15.9-35.4,35.4c0,19.5,15.9,35.4,35.4,35.4c18.9,0,34.3-14.9,35.3-33.5H96
	c0,0,0,0,0,0c0,0,0,0,0,0c0,0,0,0,0,0c0.3,0,0.5-0.1,0.8-0.2c0,0,0,0,0,0c0.2-0.1,0.4-0.3,0.6-0.5l42.5-49.6c1,4.6,2.2,9.6,3.7,15.1
	c-13.6,4.9-23.4,18-23.4,33.2c0,19.5,15.9,35.4,35.4,35.4s35.4-15.9,35.4-35.4C191,102.2,175.1,86.3,155.6,86.3z M69.9,73.7
	L93,119.9H79.1c-0.6-12.4-7.7-23.1-17.8-28.9L69.9,73.7z M75.4,119.9H46.8l12.8-25.5C68.6,99.5,74.8,108.9,75.4,119.9z M43.8,153.4
	c-17.5,0-31.7-14.2-31.7-31.7c0-17.5,14.2-31.7,31.7-31.7c4.4,0,8.6,0.9,12.5,2.6l-14.1,28.3c-0.3,0.6-0.3,1.3,0.1,1.8
	c0.3,0.5,0.9,0.9,1.6,0.9h31.6C74.4,140.2,60.7,153.4,43.8,153.4z M96.4,118.4l-23.5-47h63.8L96.4,118.4z M155.6,153.4
	c-17.5,0-31.7-14.2-31.7-31.7c0-13.6,8.6-25.1,20.6-29.6c2.5,9.2,5.5,19.3,9.3,30.2c0.3,0.8,1,1.3,1.8,1.3c0.2,0,0.4,0,0.6-0.1
	c1-0.3,1.5-1.4,1.2-2.4c-3.7-10.8-6.8-21-9.2-30.1c2.4-0.6,4.9-0.9,7.5-0.9c17.5,0,31.7,14.2,31.7,31.7
	C187.3,139.2,173.1,153.4,155.6,153.4z"/>
</svg>
