<?xml version="1.0" encoding="utf-8"?>
<!-- Generator: Adobe Illustrator 21.0.0, SVG Export Plug-In . SVG Version: 6.00 Build 0)  -->
<svg version="1.1" id="Ebene_1" xmlns="http://www.w3.org/2000/svg" xmlns:xlink="http://www.w3.org/1999/xlink" x="0px" y="0px"
	 viewBox="0 0 200 200" style="enable-background:new 0 0 200 200;" xml:space="preserve">
<style type="text/css">
	.st0{fill:#FFFFFF;}
</style>
<path class="st0" d="M190.7,9.6c-0.6-0.6-1.6-0.8-2.4-0.5L10.7,85.5c-0.8,0.3-1.3,1.1-1.3,2c0,0.9,0.5,1.7,1.2,2L77.4,123l33.4,66.8
	c0.4,0.8,1.1,1.2,2,1.2c0,0,0,0,0.1,0c0.9,0,1.6-0.6,2-1.3l76.3-177.6C191.5,11.3,191.3,10.3,190.7,9.6z M184.7,15.8
	c0,0,0-0.1-0.1-0.1c0,0-0.1,0-0.1-0.1l0.4-0.2L184.7,15.8z M16.8,87.7l162.5-69.9l-100,100c-0.3,0.3-0.4,0.6-0.5,0.9L16.8,87.7z
	 M112.6,183.5l-31.1-62c0.3-0.1,0.7-0.3,0.9-0.5l100-100L112.6,183.5z"/>
</svg>
