<?xml version="1.0" encoding="utf-8"?>
<!-- Generator: Adobe Illustrator 21.0.0, SVG Export Plug-In . SVG Version: 6.00 Build 0)  -->
<svg version="1.1" id="Ebene_1" xmlns="http://www.w3.org/2000/svg" xmlns:xlink="http://www.w3.org/1999/xlink" x="0px" y="0px"
	 viewBox="0 0 200 200" style="enable-background:new 0 0 200 200;" xml:space="preserve">
<style type="text/css">
	.st0{fill:#FFFFFF;}
</style>
<path class="st0" d="M182.5,188.5H18l0.1-2.2c1.5-24.2,21.3-32,37.2-38.3c10.5-4.1,19.6-7.7,22.4-14.6c0.1-1.2,0.2-2.1,0.2-2.9
	c-9.5-1.2-26.7-4.2-29.7-11h-0.5l0-1.9l0-0.3v-2.1h1.2c3.6-4.8,3.9-16,4.2-28.9c0.7-29.9,1.6-70.9,47.3-74.4c0,0,0,0,0,0
	c8.8,0,14,2.8,16.6,4.7c7.9-0.2,14.6,2.2,19.6,7c12.7,12.3,12.7,37.5,12.7,59.8c0,14.5,0,28.2,4.1,31.9l0,0l0.7,0.2v1.6
	c0,8.5-20.4,12-31.1,13.3c0,1.1,0.1,2.1,0.2,2.8c2.8,6.9,11.8,10.5,22.3,14.6c15.8,6.3,35.6,14,37,38.3L182.5,188.5z M22.5,184.3
	H178c-2.3-19.8-18.5-26.2-34.2-32.4c-11-4.4-21.5-8.5-24.8-17.3l-0.1-0.5c-0.1-1.2-0.2-3.2-0.3-5.3l-0.1-2l2-0.2
	c18.9-1.9,28.1-6.1,29.1-8.8c-4.7-5.4-4.7-18.2-4.7-34.2c0-20.4,0-45.8-11.4-56.8c-4.3-4.2-10-6.1-17.3-5.8l-0.8,0l-0.6-0.5
	c-1.5-1.3-6-4.3-14.4-4.3c-41.7,3.2-42.5,40.4-43.2,70.2c-0.3,14.2-0.6,25.6-5.2,31.5c1.3,2.6,10.2,6.6,28.2,8.6l2,0.2l-0.1,2
	c0,1.2-0.2,2.8-0.4,5.4l-0.1,0.5c-3.3,8.9-13.8,13-24.9,17.3C41.1,158.2,24.8,164.6,22.5,184.3z M49.8,117.4L49.8,117.4L49.8,117.4z
	"/>
</svg>
