<?xml version="1.0" encoding="UTF-8" standalone="no"?>
<!-- Generator: Adobe Illustrator 21.0.0, SVG Export Plug-In . SVG Version: 6.00 Build 0)  -->

<svg
   xmlns:dc="http://purl.org/dc/elements/1.1/"
   xmlns:cc="http://creativecommons.org/ns#"
   xmlns:rdf="http://www.w3.org/1999/02/22-rdf-syntax-ns#"
   xmlns:svg="http://www.w3.org/2000/svg"
   xmlns="http://www.w3.org/2000/svg"
   xmlns:sodipodi="http://sodipodi.sourceforge.net/DTD/sodipodi-0.dtd"
   xmlns:inkscape="http://www.inkscape.org/namespaces/inkscape"
   version="1.1"
   id="Ebene_1"
   x="0px"
   y="0px"
   viewBox="0 0 200 200"
   style="enable-background:new 0 0 200 200;"
   xml:space="preserve"
   inkscape:version="0.91 r13725"
   sodipodi:docname="pdf_green.svg"><metadata
     id="metadata15"><rdf:RDF><cc:Work
         rdf:about=""><dc:format>image/svg+xml</dc:format><dc:type
           rdf:resource="http://purl.org/dc/dcmitype/StillImage" /><dc:title></dc:title></cc:Work></rdf:RDF></metadata><defs
     id="defs13" /><sodipodi:namedview
     pagecolor="#ffffff"
     bordercolor="#666666"
     borderopacity="1"
     objecttolerance="10"
     gridtolerance="10"
     guidetolerance="10"
     inkscape:pageopacity="0"
     inkscape:pageshadow="2"
     inkscape:window-width="828"
     inkscape:window-height="480"
     id="namedview11"
     showgrid="false"
     inkscape:zoom="1.18"
     inkscape:cx="100"
     inkscape:cy="100"
     inkscape:window-x="0"
     inkscape:window-y="0"
     inkscape:window-maximized="0"
     inkscape:current-layer="Ebene_1" /><style
     type="text/css"
     id="style3">
	.st0{fill:#A0A0A0;}
</style><path
     class="st0"
     d="M177.3,65.5c0-1.8-0.4-3.8-0.9-5.5c-1.4-4.5-4.4-8.1-7.7-11.4c-10-10.3-20.1-20.5-30.3-30.5  c-4.9-4.9-10.1-9.6-17.2-11.1c-20.6,0-41.1,0-61.7,0c-0.8,0.2-1.6,0.4-2.4,0.6c-13.9,2.7-23.4,14.4-23.4,29c0,42.6,0,85.1,0,127.7  c0,2,0.2,4,0.5,6c2.6,14,14.3,23.6,28.9,23.6c28.2,0,56.4,0,84.6,0c2.1,0,4.1-0.2,6.2-0.5c13.8-2.7,23.3-14.4,23.3-28.8  C177.4,131.4,177.4,98.4,177.3,65.5z M157.4,176.4c-2.8,2.2-6.1,3.1-9.5,3.1c-28.2,0-56.4,0-84.6,0c-7.5,0-12.9-4-14.7-10.9  c-0.5-1.7-0.5-3.5-0.5-5.2c0-21,0-42.1,0-63.1c0-21,0-42,0-62.9c0-3.7,0.6-7.1,2.9-10.1c3.1-4,7.2-5.9,12.2-5.9  c16.9-0.1,33.8,0,50.7,0c2.5,0,4.2,1.4,5,3.6c0.6,1.6,1,3.3,1,4.9c0.1,8.5,0.1,17,0.2,25.5c0,1,0,1.9,0.2,2.9c0.4,3.3,2.9,5.9,6.3,6  c3.8,0.2,7.7,0.1,11.5,0.1c5.1,0,10.2,0.1,15.3,0.2c1.3,0,2.7,0.2,4,0.4c3.9,0.8,5.4,2.6,5.9,6.5c0.1,0.6,0.1,1.2,0.1,1.8  c0,30,0,60.1,0,90.1C163.1,168.6,161.7,173,157.4,176.4z"
     id="path5"
     style="fill:#92c021;fill-opacity:1" /><g
     id="g7"
     style="fill:#92c021;fill-opacity:1"><path
       class="st0"
       d="M109.4,84.3c-0.9,4.9-1.8,9.9-2.9,14.9c-0.4,1.7-0.2,3,0.7,4.5c3.6,5.7,7.8,11,12.7,15.7   c0.9,0.8,1.7,1,2.9,0.8c6.4-1.1,12.8-2.5,19.3-0.9c5.3,1.3,8,5.6,6.5,10.5c-1,3-3.8,4.8-7.9,5.2c-7.5,0.7-14-1.6-20-5.8   c-0.7-0.5-2-0.8-2.8-0.6c-8.5,2.7-16.9,5.6-25.4,8.5c-1,0.4-2,1.3-2.6,2.3c-3.5,5.6-6.9,11.3-12.2,15.5c-2.8,2.2-5.9,3.5-9.6,2.3   c-4.8-1.6-6.8-6.5-3.7-10.6c1.9-2.5,4.3-4.8,7-6.5c4.2-2.7,8.7-4.8,13-7.2c0.8-0.5,1.7-1.2,2.2-2c4.6-8.8,8.5-17.9,11.3-27.4   c0.2-0.7,0-1.8-0.3-2.5C95,95.6,92.7,90.1,92,84.1c-0.5-4.1-0.2-8.1,3.5-10.9c4.1-3.1,10.3-1.6,12.2,3.3   C108.6,78.9,108.8,81.5,109.4,84.3z M96.2,127.9c5.6-1.8,11.1-3.6,16.5-5.4c-3.2-3.9-6.3-7.8-9.5-11.7   C100.8,116.4,98.5,122.1,96.2,127.9z M100.8,90.4c0.3,0,0.5,0,0.8-0.1c0-3.3,0.1-6.7-0.1-10c0-0.5-0.8-1-1.2-1.5   c-0.4,0.6-1.2,1.1-1.3,1.7C98.6,83.9,99.7,87.2,100.8,90.4z M141.8,127.1c-3.6-2-7.4-1.3-11.2-0.8   C134.2,128.1,137.9,128.4,141.8,127.1z M77.7,144.6c-2.8,1.4-5.5,3-7.1,5.8C73.9,149.7,75.8,147.1,77.7,144.6z"
       id="path9"
       style="fill:#92c021;fill-opacity:1" /></g></svg>