<?xml version="1.0" encoding="utf-8"?>
<!-- Generator: Adobe Illustrator 19.1.0, SVG Export Plug-In . SVG Version: 6.00 Build 0)  -->
<svg version="1.1" id="Layer_1" xmlns="http://www.w3.org/2000/svg" xmlns:xlink="http://www.w3.org/1999/xlink" x="0px" y="0px"
	 viewBox="0 0 50 50" style="enable-background:new 0 0 50 50;" xml:space="preserve">
<style type="text/css">
	.st0{fill:#FFFFFF;}
</style>
<g>
	<g>
		<path class="st0" d="M12.2,11.5c-0.4-0.9-0.7-1.9-0.7-2.9c0-3.7,3-6.8,6.8-6.8s6.8,3,6.8,6.8h-1c0-3.2-2.6-5.8-5.8-5.8
			s-5.8,2.6-5.8,5.8c0,0.9,0.2,1.7,0.6,2.5L12.2,11.5z"/>
	</g>
	<path class="st0" d="M31.6,43c-0.3,0-0.6-0.1-0.9-0.2c-0.5-0.2-0.9-0.7-1.1-1.2c0,0-0.4-0.9-0.7-1.8c-0.2-0.5-0.2-0.5-1.4-0.4
		c-0.8,0.1-1.9,0.2-3.6,0.2c-1.9,0-3-0.2-3.8-0.4C19.2,39,19.2,39,19,39.6c-0.3,0.9-0.8,2-0.8,2c-0.2,0.5-0.6,1-1.1,1.2
		c-0.5,0.2-1.1,0.3-1.7,0l-3.1-1.2c-0.5-0.2-1-0.6-1.2-1.1c-0.2-0.5-0.3-1.1,0-1.7c0,0,0.6-1.4,0.9-2.3c0.2-0.6-0.1-0.8-0.4-1
		c-1.9-1.5-5-4.6-5.2-8.9c-0.2-5,1.5-9.1,4.7-11.6c3.6-2.8,7.8-4.2,12.8-4.2c1.9,0,3.7,0.2,5.5,0.6c1.4-2.8,3.7-4.6,7-5.4
		c0.2,0,0.4,0,0.5,0.2C37,6.3,37,6.5,36.9,6.7c-1.1,2.9-1.5,4.5-1.5,6.5c5.1,1.9,6.3,6.2,6.6,8c0,0.2,0.3,0.3,0.8,0.3h1.6
		c1.1,0,2.1,0.9,2.1,2.1v4.7c0,1.1-0.9,2.1-2.1,2.1h-1.6c-0.7,0-0.9,0.3-1.1,0.8c-1.1,2.4-2.8,4.2-5.1,5.4c-0.2,0.1-0.4,0.3-0.4,0.4
		c0,0.2,0,0.3,0,0.3l0.5,1.4c0.2,0.5,0.2,1.1,0,1.7c-0.2,0.5-0.7,0.9-1.2,1.1l-3.1,1.2C32.1,42.9,31.8,43,31.6,43z M28.4,38.3
		c0.7,0,1.1,0.2,1.4,1.1c0.3,0.9,0.7,1.8,0.7,1.8c0.1,0.3,0.3,0.5,0.6,0.7c0.3,0.1,0.6,0.1,0.9,0l3.1-1.2c0.3-0.1,0.5-0.3,0.7-0.6
		c0.1-0.3,0.1-0.6,0-0.9l-0.5-1.3c0,0,0,0,0,0c0,0-0.3-0.5-0.1-1c0.1-0.4,0.4-0.8,0.9-1c2-1.1,3.6-2.8,4.7-5c0.2-0.5,0.7-1.4,2-1.4
		h1.6c0.6,0,1.1-0.5,1.1-1.1v-4.7c0-0.6-0.5-1.1-1.1-1.1h-1.6c-1.2,0-1.7-0.6-1.8-1.2c-0.3-1.6-1.4-5.7-6.3-7.4
		c-0.2-0.1-0.3-0.3-0.3-0.5c0-2.3,0.4-4,1.3-6.3c-2.6,0.9-4.4,2.5-5.5,5c-0.1,0.2-0.3,0.3-0.6,0.3c-1.8-0.4-3.7-0.7-5.7-0.7
		c-4.8,0-8.8,1.3-12.2,4c-3,2.3-4.5,6.1-4.3,10.8c0.2,3.9,3,6.8,4.8,8.1c0.4,0.3,1.1,0.9,0.7,2.1c-0.3,1-0.9,2.3-0.9,2.3
		c-0.1,0.3-0.1,0.6,0,0.9s0.4,0.5,0.6,0.6l3.1,1.2c0.3,0.1,0.6,0.1,0.9,0c0.3-0.1,0.5-0.4,0.6-0.6c0,0,0.4-1.1,0.8-2
		c0.5-1.4,1.2-1.2,2.3-1c0.7,0.2,1.8,0.4,3.6,0.4c1.6,0,2.7-0.1,3.5-0.2C27.8,38.3,28.1,38.3,28.4,38.3z"/>
	<path class="st0" d="M35.7,24.9c-1,0-1.9-0.8-1.9-1.9c0-1,0.8-1.9,1.9-1.9c1,0,1.8,0.8,1.8,1.9C37.6,24,36.8,24.9,35.7,24.9z"/>
	<path class="st0" d="M7,21.7c0,0-0.1,0-0.1,0c-1.4-0.3-4.1-1.7-4.1-4.7c0-1.6,0.9-3,2.2-3.6c0.3-0.1,0.5,0,0.7,0.3
		c0.1,0.3,0,0.5-0.3,0.7c-1,0.4-1.6,1.5-1.6,2.7c0,2.9,3.2,3.7,3.3,3.7c0.3,0.1,0.4,0.3,0.4,0.6C7.5,21.5,7.3,21.7,7,21.7z"/>
</g>
</svg>
