<?xml version="1.0" encoding="utf-8"?>
<!-- Generator: Adobe Illustrator 19.1.0, SVG Export Plug-In . SVG Version: 6.00 Build 0)  -->
<svg version="1.1" id="Layer_1" xmlns="http://www.w3.org/2000/svg" xmlns:xlink="http://www.w3.org/1999/xlink" x="0px" y="0px"
	 viewBox="0 0 50 50" style="enable-background:new 0 0 50 50;" xml:space="preserve">
<style type="text/css">
	.st0{fill:#868686;}
	.st1{fill:#FFFFFF;stroke:#868686;stroke-width:0.5;stroke-miterlimit:10;}
	.st2{fill:#FFFFFF;}
</style>
<path class="st0" d="M25.6,1.5c-10,0-18.1,8.1-18.1,18.1c0,16.8,18.1,29,18.1,29s18.1-12.5,18.1-29C43.7,9.6,35.6,1.5,25.6,1.5z"/>
<path class="st1" d="M31.1,31.7c-2.2,0-3.5-1.5-3.6-4.1c0-1,0.2-2.2,0.5-3.4c0.2-0.9,0.4-1.8,0.5-2.8c0.1-1-0.1-1.3-0.2-1.4
	c-0.2-0.2-0.7-0.2-1.3-0.2h-0.3v-1.3H27c0.8,0,1.6,0,2.2,0.6c0.4,0.5,0.6,1.3,0.5,2.4c-0.1,1-0.3,2-0.5,3c-0.3,1.1-0.5,2.2-0.5,3
	c0.1,1.9,0.9,2.9,2.4,2.9c1.6,0,2.4-1,2.4-3c0-1.7-0.5-3-0.9-3.8l-0.1-0.3c-0.4-0.9-0.4-1.8-0.4-3.1c0-1.2,0-2.6,0.3-3.9
	c0.3-1.3,1.1-2,2.2-3l0.3-0.3l0.9,0.9l-0.3,0.3c-1.1,1-1.6,1.4-1.8,2.4c-0.3,1.1-0.3,2.4-0.3,3.5c0,1.2,0.1,1.9,0.4,2.6l0.1,0.3
	c0.4,0.9,1,2.4,1,4.3C34.8,30.1,33.4,31.7,31.1,31.7L31.1,31.7z"/>
<g>
	<g>
		<path class="st2" d="M25.9,11.6h-8.8c-0.5,0-0.9,0.4-0.9,0.9v18.9h10.7V12.5C26.8,12,26.4,11.6,25.9,11.6L25.9,11.6z M25.5,18.6
			h-8v-5.2h8V18.6z M32.7,20.4"/>
	</g>
	<path class="st2" d="M35.7,13l0.6-2c0.1-0.2-0.1-0.5-0.3-0.5c-0.2-0.1-0.5,0.1-0.5,0.3l-0.6,2l-1.4-0.4l0.6-2
		c0.1-0.2-0.1-0.5-0.3-0.5c-0.2-0.1-0.5,0.1-0.5,0.3l-0.6,2l-0.9-0.3L31.3,13c-0.3,1.2,0.2,2.4,1.2,3l1.3,0.4c1.2,0,2.2-0.7,2.6-1.9
		l0.3-1.2L35.7,13z"/>
</g>
</svg>
