<?xml version="1.0" encoding="utf-8"?>
<!-- Generator: Adobe Illustrator 19.1.0, SVG Export Plug-In . SVG Version: 6.00 Build 0)  -->
<svg version="1.1" id="Layer_1" xmlns="http://www.w3.org/2000/svg" xmlns:xlink="http://www.w3.org/1999/xlink" x="0px" y="0px"
	 viewBox="0 0 50 50" style="enable-background:new 0 0 50 50;" xml:space="preserve">
<style type="text/css">
	.st0{fill:#868686;}
	.st1{fill:#F9F9F9;}
</style>
<path class="st0" d="M25.6,1.5c-10,0-18.1,8.1-18.1,18.1c0,16.8,18.1,29,18.1,29s18.1-12.5,18.1-29C43.7,9.6,35.6,1.5,25.6,1.5z"/>
<path class="st1" d="M14.8,26.9l8-0.4l-0.3-3l0.9-0.3c0.1,0.2,0.1,0.3,0.2,0.5c0.9,2,3.3,2.9,5.4,2c1.5-0.7,2.3-2.1,2.3-3.6l2.6-1.2
	l1.1-2.3c0,0,1.1,0.5,1.6,0.6c0.5,0.1,1.1-0.5,1.1-0.5l-0.2-0.4l1.1-0.5l0.3,0.6l1.1-0.5l1-2.1l-0.2-0.5l-1.6-0.5L30,19.1
	c-1.2-1.1-2.9-1.4-4.4-0.7c-1.7,0.8-2.6,2.6-2.3,4.4L22.5,23l-0.2-2.5l-8-0.1L14.8,26.9z M24.6,23.2c-0.2-0.5,0-1.1,0.5-1.4
	c0.5-0.2,1.1,0,1.4,0.5c0.2,0.5,0,1.1-0.5,1.4C25.4,23.9,24.8,23.7,24.6,23.2z M19.6,24.1c-0.3-0.6,0-1.3,0.6-1.5
	c0.6-0.3,1.3,0,1.5,0.6c0.3,0.6,0,1.3-0.6,1.5C20.5,25,19.9,24.7,19.6,24.1z"/>
</svg>
