<?xml version="1.0" encoding="utf-8"?>
<!-- Generator: Adobe Illustrator 19.1.0, SVG Export Plug-In . SVG Version: 6.00 Build 0)  -->
<svg version="1.1" id="Layer_1" xmlns="http://www.w3.org/2000/svg" xmlns:xlink="http://www.w3.org/1999/xlink" x="0px" y="0px"
	 viewBox="0 0 50 50" style="enable-background:new 0 0 50 50;" xml:space="preserve">
<style type="text/css">
	.st0{fill:#868686;}
	.st1{fill:#FFFFFF;}
</style>
<path class="st0" d="M25.6,1.5c-10,0-18.1,8.1-18.1,18.1c0,16.8,18.1,29,18.1,29s18.1-12.5,18.1-29C43.7,9.6,35.6,1.5,25.6,1.5z"/>
<g>
	<path class="st1" d="M25,23.6h-8.1c-0.1,0-0.2-0.1-0.2-0.1c-0.1-0.1-0.1-0.2,0-0.3l4-8.1c0-0.1,0.1-0.2,0.3-0.2h10.9
		c0.1,0,0.2,0.1,0.3,0.2c0,0.1,0,0.2,0,0.3l-6.9,8.1C25.2,23.5,25.1,23.6,25,23.6z M17.4,23h7.5l6.4-7.5H21.1L17.4,23z"/>
	<path class="st1" d="M34.2,23.6c-0.1,0-0.2-0.1-0.3-0.2c-2-5.7-2.7-10.1-2.9-11.3c-1.6,0.2-2.8-0.1-3.4-0.7c-0.1-0.1-0.1-0.3,0-0.4
		c0.1-0.1,0.3-0.1,0.4,0c0.5,0.5,1.7,0.7,3.2,0.5c0.1,0,0.2,0,0.2,0.1c0.1,0.1,0.1,0.1,0.1,0.2c0,0,0.6,5,2.9,11.4
		C34.5,23.4,34.5,23.5,34.2,23.6C34.3,23.6,34.3,23.6,34.2,23.6z"/>
	<path class="st1" d="M25,23.6c-0.1,0-0.2-0.1-0.3-0.2l-5.4-10.7c-0.1-0.1,0-0.3,0.1-0.4c0.1-0.1,0.3,0,0.4,0.1l5.4,10.7
		c0.1,0.1,0,0.3-0.1,0.4C25.1,23.6,25,23.6,25,23.6z"/>
	<path class="st1" d="M22.1,12.3c0,0.3-0.6,0.6-1.9,0.6s-2.7,1.3-2.7-0.2c0-0.4,0.1-0.7,0.7-0.7c0.2,0,3.2,0,3.2,0
		C21.8,12,22.1,12,22.1,12.3z"/>
	<path class="st1" d="M16.9,28.8c-3,0-5.5-2.5-5.5-5.5s2.5-5.5,5.5-5.5s5.5,2.5,5.5,5.5S20,28.8,16.9,28.8z M16.9,18.4
		c-2.7,0-4.9,2.2-4.9,4.9s2.2,4.9,4.9,4.9s4.9-2.2,4.9-4.9S19.6,18.4,16.9,18.4z"/>
	<path class="st1" d="M34.2,28.8c-3,0-5.5-2.5-5.5-5.5s2.5-5.5,5.5-5.5s5.5,2.5,5.5,5.5S37.2,28.8,34.2,28.8z M34.2,18.4
		c-2.7,0-4.9,2.2-4.9,4.9s2.2,4.9,4.9,4.9s4.9-2.2,4.9-4.9C39.1,20.6,36.9,18.4,34.2,18.4z"/>
</g>
</svg>
