<?xml version="1.0" encoding="utf-8"?>
<!-- Generator: Adobe Illustrator 19.1.0, SVG Export Plug-In . SVG Version: 6.00 Build 0)  -->
<svg version="1.1" id="Layer_1" xmlns="http://www.w3.org/2000/svg" xmlns:xlink="http://www.w3.org/1999/xlink" x="0px" y="0px"
	 viewBox="0 0 50 50" style="enable-background:new 0 0 50 50;" xml:space="preserve">
<style type="text/css">
	.st0{fill:#868686;}
	.st1{fill:#FFFFFF;stroke:#868686;stroke-width:0.5;stroke-miterlimit:10;}
</style>
<path class="st0" d="M25.6,1.5c-10,0-18.1,8.1-18.1,18.1c0,16.8,18.1,29,18.1,29s18.1-12.5,18.1-29C43.7,9.6,35.6,1.5,25.6,1.5z"/>
<path class="st1" d="M37,13.1c-0.1,0-0.2,0-0.3,0.1l-2.9,2.5L31,14.8l-0.4-2.9l2.9-2.5c0.1-0.1,0.1-0.2,0.1-0.3
	c0-0.1-0.1-0.2-0.2-0.2c-1.6-0.4-3.3,0-4.5,1.1c-1.5,1.3-2,3.2-1.6,5l-0.6,0.5c0,0,0,0,0,0l-7,6.1c-1.7-0.7-3.7-0.4-5.2,0.9
	c-1.2,1.1-1.9,2.7-1.7,4.3c0,0.1,0.1,0.2,0.2,0.3c0.1,0,0.2,0,0.3-0.1l2.9-2.5l2.8,0.8l0.4,2.9l-2.9,2.5c-0.1,0.1-0.1,0.2-0.1,0.3
	c0,0.1,0.1,0.2,0.2,0.2c1.6,0.4,3.3,0,4.5-1.1c1.5-1.3,2-3.2,1.6-5l0.6-0.5c0,0,0,0,0,0l7-6.1c1.7,0.7,3.7,0.4,5.2-0.9
	c1.2-1.1,1.9-2.7,1.7-4.3C37.2,13.2,37.1,13.1,37,13.1z"/>
</svg>
