<?xml version="1.0" encoding="utf-8"?>
<!-- Generator: Adobe Illustrator 21.0.0, SVG Export Plug-In . SVG Version: 6.00 Build 0)  -->
<svg version="1.1" id="Ebene_1" xmlns="http://www.w3.org/2000/svg" xmlns:xlink="http://www.w3.org/1999/xlink" x="0px" y="0px"
	 viewBox="0 0 200 200" style="enable-background:new 0 0 200 200;" xml:space="preserve">
<style type="text/css">
	.st0{fill-rule:evenodd;clip-rule:evenodd;fill:#595959;}
</style>
<g>
	<path class="st0" d="M170.8,108.8h-12.3c-3.1,0-6.1,2.4-6.1,5.6c-2.4,24.4-22.6,42.8-47.2,42.8c-26.9,0-48.4-21.4-48.4-47.8
		c0-26.3,21.4-47.1,47.8-47.7v7.9c0,3,2.4,4.3,5.5,3l40.4-20.1c3.1-1.9,3.1-4.3,0-6.2l-40.4-20.2c-0.6-0.6-1.2-0.6-1.9-0.6
		c-2.4,0-3.7,1.2-3.7,4.2v7.4c-39.8,0.6-71.7,32.5-71.7,72.3c0,39.9,31.8,71.8,72.2,71.8c38,0,68.6-29.4,71.1-66.8
		C176.3,111.2,173.8,108.8,170.8,108.8L170.8,108.8z"/>
</g>
</svg>
