<?xml version="1.0" encoding="utf-8"?>
<!-- Generator: Adobe Illustrator 19.1.0, SVG Export Plug-In . SVG Version: 6.00 Build 0)  -->
<svg version="1.1" id="Layer_1" xmlns="http://www.w3.org/2000/svg" xmlns:xlink="http://www.w3.org/1999/xlink" x="0px" y="0px"
	 viewBox="0 0 50 50" style="enable-background:new 0 0 50 50;" xml:space="preserve">
<style type="text/css">
	.st0{fill:#F29100;}
</style>
<path class="st0" d="M25.9,36.1c0.2,0,0.3,0.1,0.3,0.3v1.9c0,0.2-0.1,0.3-0.3,0.3h-1.8c-0.2,0-0.3-0.1-0.3-0.3v-1.9
	c0-0.2,0.1-0.3,0.3-0.3H25.9z M25.8,21c0.2,0,0.3,0.1,0.3,0.3v11.8c0,0.2-0.1,0.3-0.3,0.3h-1.6c-0.2,0-0.3-0.1-0.3-0.3V21.2
	c0-0.2,0.1-0.3,0.3-0.3H25.8z"/>
<path class="st0" d="M48.2,45.8H1.8L25,2L48.2,45.8z M3.5,44.8h43L25,4.1L3.5,44.8z"/>
</svg>
